{
.appVersion = "3151";
.formatVersion = 3;
DisplayStrings = (
RISD
);
axes = (
{
name = Test;
tag = TEST;
}
);
customParameters = (
{
name = panose;
value = (
0,
0,
0,
0,
0,
0,
0,
0,
0,
0
);
},
{
name = unicodeRanges;
value = (
0,
1,
2,
3,
4,
5,
6,
7,
29,
31,
32,
33,
35,
36,
37,
38,
42,
45,
47
);
},
{
name = codePageRanges;
value = (
"1252",
"1250",
"1254",
"1257",
"bit 29"
);
},
{
name = fsType;
value = (
);
},
{
name = blueScale;
value = 0.037;
},
{
name = glyphOrder;
value = (
.notdef,
space,
A,
Aacute,
Abreve,
Acircumflex,
Adieresis,
Agrave,
Amacron,
Aogonek,
Aring,
Atilde,
AE,
AEacute,
B,
C,
Cacute,
Ccaron,
Ccedilla,
Ccircumflex,
Cdotaccent,
D,
Eth,
Dcaron,
Dcroat,
E,
Eacute,
Ebreve,
Ecaron,
Ecircumflex,
Edieresis,
Edotaccent,
Egrave,
Emacron,
Eogonek,
uni1EBC,
F,
G,
Gbreve,
Gcircumflex,
uni0122,
Gdotaccent,
uni1E20,
H,
Hbar,
Hcircumflex,
I,
IJ,
Iacute,
Ibreve,
Icircumflex,
Idieresis,
Idotaccent,
Igrave,
Imacron,
Iogonek,
Itilde,
J,
uni004A0301,
Jcircumflex,
K,
uni0136,
L,
Lacute,
Lcaron,
uni013B,
Ldot,
Lslash,
M,
N,
Nacute,
Ncaron,
uni0145,
Ntilde,
Eng,
O,
Oacute,
Obreve,
Ocircumflex,
Odieresis,
Ograve,
Ohungarumlaut,
Omacron,
Oslash,
Oslashacute,
Otilde,
OE,
P,
Thorn,
Q,
R,
Racute,
Rcaron,
uni0156,
S,
Sacute,
Scaron,
Scedilla,
Scircumflex,
uni0218,
uni1E9E,
T,
Tbar,
Tcaron,
uni0162,
uni021A,
U,
Uacute,
Ubreve,
Ucircumflex,
Udieresis,
Ugrave,
Uhungarumlaut,
Umacron,
Uogonek,
Uring,
Utilde,
V,
W,
Wacute,
Wcircumflex,
Wdieresis,
Wgrave,
X,
Y,
Yacute,
Ycircumflex,
Ydieresis,
Ygrave,
uni1EF8,
Z,
Zacute,
Zcaron,
Zdotaccent,
R.ss01,
Racute.ss01,
Rcaron.ss01,
uni0156.ss01,
Y.ss02,
Yacute.ss02,
Ycircumflex.ss02,
Ydieresis.ss02,
Ygrave.ss02,
uni1EF8.ss02,
Oslash.ss03,
Oslashacute.ss03,
Q.ss03,
Adieresis.ss07,
Cdotaccent.ss07,
Edieresis.ss07,
Edotaccent.ss07,
uni0122.ss07,
Gdotaccent.ss07,
Idieresis.ss07,
Idotaccent.ss07,
uni0136.ss07,
Lcaron.ss07,
uni013B.ss07,
Ldot.ss07,
uni0145.ss07,
Odieresis.ss07,
uni0156.ss07,
uni0218.ss07,
uni021A.ss07,
Udieresis.ss07,

glyphs = (
{
glyphname = .notdef;
lastChange = "2024-02-20 15:05:20 +0000";
layers = (
{
hints = (
{
horizontal = 1;
place = (-230, 82);
place = (-230, 82);
type = Stem;
},
{
horizontal = 1;
place = (-109, 56);
place = (-109, 56);
type = Stem;
},
{
horizontal = 1;
place = (-13, 27);
place = (-13, 27);
type = Stem;
},
{
horizontal = 1;
place = (53, 56);
place = (53, 56);
type = Stem;
},
{
horizontal = 1;
place = (148, 72);
place = (148, 72);
type = Stem;
},
{
horizontal = 1;
place = (259, 29);
place = (259, 29);
type = Stem;
},
{
horizontal = 1;
place = (354, 26);
place = (354, 26);
type = Stem;
},
{
horizontal = 1;
place = (421, 27);
place = (421, 27);
type = Stem;
},
{
horizontal = 1;
place = (488, 44);
place = (488, 44);
type = Stem;
},
{
horizontal = 1;
place = (571, 32);
place = (571, 32);
type = Stem;
},
{
horizontal = 1;
place = (643, 43);
place = (643, 43);
type = Stem;
},
{
horizontal = 1;
place = (727, 31);
place = (727, 31);
type = Stem;
},
{
horizontal = 1;
place = (797, 44);
place = (797, 44);
type = Stem;
},
{
horizontal = 1;
place = (880, 80);
place = (880, 80);
type = Stem;
},
{
place = (111, 88);
place = (111, 88);
type = Stem;
},
{
place = (238, 39);
place = (238, 39);
type = Stem;
},
{
place = (318, 39);
place = (318, 39);
type = Stem;
},
{
place = (396, 92);
place = (396, 92);
type = Stem;
},
{
place = (111, 166);
place = (111, 166);
type = Stem;
},
{
place = (318, 170);
place = (318, 170);
type = Stem;
},
{
horizontal = 1;
place = (499, 33);
place = (499, 33);
type = Stem;
},
{
place = (111, 89);
place = (111, 89);
type = Stem;
},
{
place = (238, 250);
place = (238, 250);
type = Stem;
},
{
place = (111, 246);
place = (111, 246);
type = Stem;
}
);
layerId = m01;
shapes = (
{
closed = 1;
nodes = (
(488,960,l),
(111,960,l),
(111,-230,l),
(488,-230,l)
);
},
{
closed = 1;
nodes = (
(199,-148,l),
(199,-109,l),
(282,-53,l),
(199,-53,l),
(199,-13,l),
(396,-13,l),
(396,-53,l),
(358,-53,l),
(275,-109,l),
(396,-109,l),
(396,-148,l)
);
},
{
closed = 1;
nodes = (
(199,14,l),
(199,148,l),
(396,148,l),
(396,14,l)
);
},
{
closed = 1;
nodes = (
(199,220,l),
(199,354,l),
(238,354,l),
(238,259,l),
(357,259,l),
(357,315,l),
(318,315,l),
(318,288,l),
(277,288,l),
(277,354,l),
(396,354,l),
(396,220,l)
);
},
{
closed = 1;
nodes = (
(199,380,l),
(199,421,l),
(357,421,l),
(357,499,l),
(396,499,l),
(396,380,l)
);
},
{
closed = 1;
nodes = (
(199,448,l),
(199,488,l),
(277,488,l),
(277,532,l),
(199,532,l),
(199,571,l),
(396,571,l),
(396,532,l),
(318,532,l),
(318,448,l)
);
},
{
closed = 1;
nodes = (
(199,603,l),
(199,727,l),
(318,727,l),
(318,643,l),
(396,643,l),
(396,603,l)
);
},
{
closed = 1;
nodes = (
(199,758,l),
(199,797,l),
(277,797,l),
(277,841,l),
(200,841,l),
(200,880,l),
(396,880,l),
(396,841,l),
(318,841,l),
(318,797,l),
(396,797,l),
(396,758,l)
);
},
{
closed = 1;
nodes = (
(238,53,l),
(357,53,l),
(357,109,l),
(238,109,l)
);
},
{
closed = 1;
nodes = (
(238,643,l),
(277,643,l),
(277,686,l),
(238,686,l)
);
}
);
width = 595;
},
{
hints = (
{
horizontal = 1;
place = (-230, 82);
place = (-230, 82);
type = Stem;
},
{
horizontal = 1;
place = (-109, 56);
place = (-109, 56);
type = Stem;
},
{
horizontal = 1;
place = (-13, 27);
place = (-13, 27);
type = Stem;
},
{
horizontal = 1;
place = (53, 56);
place = (53, 56);
type = Stem;
},
{
horizontal = 1;
place = (148, 72);
place = (148, 72);
type = Stem;
},
{
horizontal = 1;
place = (259, 29);
place = (259, 29);
type = Stem;
},
{
horizontal = 1;
place = (354, 26);
place = (354, 26);
type = Stem;
},
{
horizontal = 1;
place = (421, 27);
place = (421, 27);
type = Stem;
},
{
horizontal = 1;
place = (488, 44);
place = (488, 44);
type = Stem;
},
{
horizontal = 1;
place = (571, 32);
place = (571, 32);
type = Stem;
},
{
horizontal = 1;
place = (643, 43);
place = (643, 43);
type = Stem;
},
{
horizontal = 1;
place = (727, 31);
place = (727, 31);
type = Stem;
},
{
horizontal = 1;
place = (797, 44);
place = (797, 44);
type = Stem;
},
{
horizontal = 1;
place = (880, 80);
place = (880, 80);
type = Stem;
},
{
place = (111, 88);
place = (111, 88);
type = Stem;
},
{
place = (238, 39);
place = (238, 39);
type = Stem;
},
{
place = (318, 39);
place = (318, 39);
type = Stem;
},
{
place = (396, 92);
place = (396, 92);
type = Stem;
},
{
place = (111, 166);
place = (111, 166);
type = Stem;
},
{
place = (318, 170);
place = (318, 170);
type = Stem;
},
{
horizontal = 1;
place = (499, 33);
place = (499, 33);
type = Stem;
},
{
place = (111, 89);
place = (111, 89);
type = Stem;
},
{
place = (238, 250);
place = (238, 250);
type = Stem;
},
{
place = (111, 246);
place = (111, 246);
type = Stem;
}
);
layerId = "1E451FFA-12DA-4FF6-A0F2-5663C8724383";
shapes = (
{
closed = 1;
nodes = (
(488,960,l),
(111,960,l),
(111,-230,l),
(488,-230,l)
);
},
{
closed = 1;
nodes = (
(199,-148,l),
(199,-109,l),
(282,-53,l),
(199,-53,l),
(199,-13,l),
(396,-13,l),
(396,-53,l),
(358,-53,l),
(275,-109,l),
(396,-109,l),
(396,-148,l)
);
},
{
closed = 1;
nodes = (
(199,14,l),
(199,148,l),
(396,148,l),
(396,14,l)
);
},
{
closed = 1;
nodes = (
(199,220,l),
(199,354,l),
(238,354,l),
(238,259,l),
(357,259,l),
(357,315,l),
(318,315,l),
(318,288,l),
(277,288,l),
(277,354,l),
(396,354,l),
(396,220,l)
);
},
{
closed = 1;
nodes = (
(199,380,l),
(199,421,l),
(357,421,l),
(357,499,l),
(396,499,l),
(396,380,l)
);
},
{
closed = 1;
nodes = (
(199,448,l),
(199,488,l),
(277,488,l),
(277,532,l),
(199,532,l),
(199,571,l),
(396,571,l),
(396,532,l),
(318,532,l),
(318,448,l)
);
},
{
closed = 1;
nodes = (
(199,603,l),
(199,727,l),
(318,727,l),
(318,643,l),
(396,643,l),
(396,603,l)
);
},
{
closed = 1;
nodes = (
(199,758,l),
(199,797,l),
(277,797,l),
(277,841,l),
(200,841,l),
(200,880,l),
(396,880,l),
(396,841,l),
(318,841,l),
(318,797,l),
(396,797,l),
(396,758,l)
);
},
{
closed = 1;
nodes = (
(238,53,l),
(357,53,l),
(357,109,l),
(238,109,l)
);
},
{
closed = 1;
nodes = (
(238,643,l),
(277,643,l),
(277,686,l),
(238,686,l)
);
}
);
width = 595;
}
);
note = ".notdef";
},
{
glyphname = A;
kernLeft = A;
kernRight = A;
lastChange = "2024-02-20 15:05:35 +0000";
layers = (
{
hints = (
{
horizontal = 1;
place = (0, 21);
target = up;
type = BottomGhost;
},
{
horizontal = 1;
place = (216, 86);
place = (216, 86);
type = Stem;
},
{
horizontal = 1;
place = (616, 84);
place = (616, 84);
type = Stem;
},
{
place = (19, 619);
place = (19, 619);
type = Stem;
}
);
layerId = m01;
shapes = (
{
closed = 1;
nodes = (
(329,794,l),
(539,178,l),
(638,178,l),
(400,878,l),
(329,878,l)
);
},
{
closed = 1;
nodes = (
(437,176,l),
(221,176,l),
(191,90,l),
(466,90,l)
);
},
{
closed = 1;
nodes = (
(161,700,l),
(89,700,l),
(-149,0,l),
(-50,0,l),
(161,616,l)
);
}
);
width = 657;
},
{
hints = (
{
horizontal = 1;
place = (0, 21);
target = up;
type = BottomGhost;
},
{
horizontal = 1;
place = (216, 86);
place = (216, 86);
type = Stem;
},
{
horizontal = 1;
place = (616, 84);
place = (616, 84);
type = Stem;
},
{
place = (19, 619);
place = (19, 619);
type = Stem;
}
);
layerId = "1E451FFA-12DA-4FF6-A0F2-5663C8724383";
shapes = (
{
closed = 1;
nodes = (
(329,616,l),
(539,0,l),
(638,0,l),
(400,700,l),
(329,700,l)
);
},
{
closed = 1;
nodes = (
(437,302,l),
(221,302,l),
(191,216,l),
(466,216,l)
);
},
{
closed = 1;
nodes = (
(329,700,l),
(257,700,l),
(19,0,l),
(118,0,l),
(329,616,l)
);
}
);
width = 657;
}
);
note = A;
unicode = 65;
},
{
glyphname = Aacute;
kernLeft = A;
kernRight = A;
lastChange = "2024-02-20 15:05:20 +0000";
layers = (
{
hints = (
{
horizontal = 1;
place = (0, 21);
target = up;
type = BottomGhost;
},
{
horizontal = 1;
place = (216, 86);
place = (216, 86);
type = Stem;
},
{
horizontal = 1;
place = (616, 84);
place = (616, 84);
type = Stem;
},
{
horizontal = 1;
place = (780, 147);
place = (780, 147);
type = Stem;
},
{
place = (19, 619);
place = (19, 619);
type = Stem;
}
);
layerId = m01;
shapes = (
{
closed = 1;
nodes = (
(19,0,l),
(118,0,l),
(192,216,l),
(465,216,l),
(539,0,l),
(638,0,l),
(400,700,l),
(257,700,l)
);
},
{
closed = 1;
nodes = (
(221,302,l),
(329,616,l),
(436,302,l)
);
},
{
closed = 1;
nodes = (
(299,780,l),
(371,780,l),
(466,927,l),
(358,927,l)
);
}
);
width = 657;
},
{
hints = (
{
horizontal = 1;
place = (0, 21);
target = up;
type = BottomGhost;
},
{
horizontal = 1;
place = (216, 86);
place = (216, 86);
type = Stem;
},
{
horizontal = 1;
place = (616, 84);
place = (616, 84);
type = Stem;
},
{
horizontal = 1;
place = (780, 147);
place = (780, 147);
type = Stem;
},
{
place = (19, 619);
place = (19, 619);
type = Stem;
}
);
layerId = "1E451FFA-12DA-4FF6-A0F2-5663C8724383";
shapes = (
{
closed = 1;
nodes = (
(19,0,l),
(118,0,l),
(192,216,l),
(465,216,l),
(539,0,l),
(638,0,l),
(400,700,l),
(257,700,l)
);
},
{
closed = 1;
nodes = (
(221,302,l),
(329,616,l),
(436,302,l)
);
},
{
closed = 1;
nodes = (
(299,780,l),
(371,780,l),
(466,927,l),
(358,927,l)
);
}
);
width = 657;
}
);
note = Aacute;
unicode = 193;
},
{
glyphname = Abreve;
kernLeft = A;
kernRight = A;
lastChange = "2024-02-20 15:05:20 +0000";
layers = (
{
hints = (
{
horizontal = 1;
place = (0, 21);
target = up;
type = BottomGhost;
},
{
horizontal = 1;
place = (216, 86);
place = (216, 86);
type = Stem;
},
{
horizontal = 1;
place = (616, 84);
place = (616, 84);
type = Stem;
},
{
horizontal = 1;
place = (780, 74);
place = (780, 74);
type = Stem;
},
{
place = (172, 74);
place = (172, 74);
type = Stem;
},
{
place = (411, 74);
place = (411, 74);
type = Stem;
}
);
layerId = m01;
shapes = (
{
closed = 1;
nodes = (
(19,0,l),
(118,0,l),
(192,216,l),
(465,216,l),
(539,0,l),
(638,0,l),
(400,700,l),
(257,700,l)
);
},
{
closed = 1;
nodes = (
(172,937,l),
(172,847,o),
(241,780,o),
(329,780,cs),
(415,780,o),
(485,847,o),
(485,937,c),
(411,937,l),
(410,890,o),
(374,854,o),
(329,854,cs),
(283,854,o),
(247,890,o),
(246,937,c)
);
},
{
closed = 1;
nodes = (
(221,302,l),
(329,616,l),
(436,302,l)
);
}
);
width = 657;
},
{
hints = (
{
horizontal = 1;
place = (0, 21);
target = up;
type = BottomGhost;
},
{
horizontal = 1;
place = (216, 86);
place = (216, 86);
type = Stem;
},
{
horizontal = 1;
place = (616, 84);
place = (616, 84);
type = Stem;
},
{
horizontal = 1;
place = (780, 74);
place = (780, 74);
type = Stem;
},
{
place = (172, 74);
place = (172, 74);
type = Stem;
},
{
place = (411, 74);
place = (411, 74);
type = Stem;
}
);
layerId = "1E451FFA-12DA-4FF6-A0F2-5663C8724383";
shapes = (
{
closed = 1;
nodes = (
(19,0,l),
(118,0,l),
(192,216,l),
(465,216,l),
(539,0,l),
(638,0,l),
(400,700,l),
(257,700,l)
);
},
{
closed = 1;
nodes = (
(172,937,l),
(172,847,o),
(241,780,o),
(329,780,cs),
(415,780,o),
(485,847,o),
(485,937,c),
(411,937,l),
(410,890,o),
(374,854,o),
(329,854,cs),
(283,854,o),
(247,890,o),
(246,937,c)
);
},
{
closed = 1;
nodes = (
(221,302,l),
(329,616,l),
(436,302,l)
);
}
);
width = 657;
}
);
note = Abreve;
unicode = 258;
},
{
glyphname = Acircumflex;
kernLeft = A;
kernRight = A;
lastChange = "2024-02-20 15:05:20 +0000";
layers = (
{
hints = (
{
horizontal = 1;
place = (0, 21);
target = up;
type = BottomGhost;
},
{
horizontal = 1;
place = (216, 86);
place = (216, 86);
type = Stem;
},
{
horizontal = 1;
place = (616, 84);
place = (616, 84);
type = Stem;
},
{
horizontal = 1;
place = (780, 147);
place = (780, 147);
type = Stem;
},
{
place = (19, 619);
place = (19, 619);
type = Stem;
},
{
horizontal = 1;
place = (887, 40);
place = (887, 40);
type = Stem;
}
);
layerId = m01;
shapes = (
{
closed = 1;
nodes = (
(19,0,l),
(118,0,l),
(192,216,l),
(465,216,l),
(539,0,l),
(638,0,l),
(400,700,l),
(257,700,l)
);
},
{
closed = 1;
nodes = (
(183,780,l),
(266,780,l),
(329,887,l),
(392,780,l),
(475,780,l),
(401,927,l),
(257,927,l)
);
},
{
closed = 1;
nodes = (
(221,302,l),
(329,616,l),
(436,302,l)
);
}
);
width = 657;
},
{
hints = (
{
horizontal = 1;
place = (0, 21);
target = up;
type = BottomGhost;
},
{
horizontal = 1;
place = (216, 86);
place = (216, 86);
type = Stem;
},
{
horizontal = 1;
place = (616, 84);
place = (616, 84);
type = Stem;
},
{
horizontal = 1;
place = (780, 147);
place = (780, 147);
type = Stem;
},
{
place = (19, 619);
place = (19, 619);
type = Stem;
},
{
horizontal = 1;
place = (887, 40);
place = (887, 40);
type = Stem;
}
);
layerId = "1E451FFA-12DA-4FF6-A0F2-5663C8724383";
shapes = (
{
closed = 1;
nodes = (
(19,0,l),
(118,0,l),
(192,216,l),
(465,216,l),
(539,0,l),
(638,0,l),
(400,700,l),
(257,700,l)
);
},
{
closed = 1;
nodes = (
(183,780,l),
(266,780,l),
(329,887,l),
(392,780,l),
(475,780,l),
(401,927,l),
(257,927,l)
);
},
{
closed = 1;
nodes = (
(221,302,l),
(329,616,l),
(436,302,l)
);
}
);
width = 657;
}
);
note = Acircumflex;
unicode = 194;
},
{
glyphname = Adieresis;
kernLeft = A;
kernRight = A;
lastChange = "2024-02-20 15:05:20 +0000";
layers = (
{
hints = (
{
horizontal = 1;
place = (0, 21);
target = up;
type = BottomGhost;
},
{
horizontal = 1;
place = (216, 86);
place = (216, 86);
type = Stem;
},
{
horizontal = 1;
place = (616, 84);
place = (616, 84);
type = Stem;
},
{
horizontal = 1;
place = (777, 93);
place = (777, 93);
type = Stem;
},
{
place = (200, 97);
place = (200, 97);
type = Stem;
},
{
place = (362, 97);
place = (362, 97);
type = Stem;
}
);
layerId = m01;
shapes = (
{
closed = 1;
nodes = (
(19,0,l),
(118,0,l),
(192,216,l),
(465,216,l),
(539,0,l),
(638,0,l),
(400,700,l),
(257,700,l)
);
},
{
closed = 1;
nodes = (
(200,777,l),
(297,777,l),
(297,870,l),
(200,870,l)
);
},
{
closed = 1;
nodes = (
(221,302,l),
(329,616,l),
(436,302,l)
);
},
{
closed = 1;
nodes = (
(362,777,l),
(459,777,l),
(459,870,l),
(362,870,l)
);
}
);
width = 657;
},
{
hints = (
{
horizontal = 1;
place = (0, 21);
target = up;
type = BottomGhost;
},
{
horizontal = 1;
place = (216, 86);
place = (216, 86);
type = Stem;
},
{
horizontal = 1;
place = (616, 84);
place = (616, 84);
type = Stem;
},
{
horizontal = 1;
place = (777, 93);
place = (777, 93);
type = Stem;
},
{
place = (200, 97);
place = (200, 97);
type = Stem;
},
{
place = (362, 97);
place = (362, 97);
type = Stem;
}
);
layerId = "1E451FFA-12DA-4FF6-A0F2-5663C8724383";
shapes = (
{
closed = 1;
nodes = (
(19,0,l),
(118,0,l),
(192,216,l),
(465,216,l),
(539,0,l),
(638,0,l),
(400,700,l),
(257,700,l)
);
},
{
closed = 1;
nodes = (
(200,777,l),
(297,777,l),
(297,870,l),
(200,870,l)
);
},
{
closed = 1;
nodes = (
(221,302,l),
(329,616,l),
(436,302,l)
);
},
{
closed = 1;
nodes = (
(362,777,l),
(459,777,l),
(459,870,l),
(362,870,l)
);
}
);
width = 657;
}
);
note = Adieresis;
unicode = 196;
},
{
glyphname = Agrave;
kernLeft = A;
kernRight = A;
lastChange = "2024-02-20 15:05:20 +0000";
layers = (
{
hints = (
{
horizontal = 1;
place = (0, 21);
target = up;
type = BottomGhost;
},
{
horizontal = 1;
place = (216, 86);
place = (216, 86);
type = Stem;
},
{
horizontal = 1;
place = (616, 84);
place = (616, 84);
type = Stem;
},
{
horizontal = 1;
place = (780, 147);
place = (780, 147);
type = Stem;
},
{
place = (19, 619);
place = (19, 619);
type = Stem;
}
);
layerId = m01;
shapes = (
{
closed = 1;
nodes = (
(19,0,l),
(118,0,l),
(192,216,l),
(465,216,l),
(539,0,l),
(638,0,l),
(400,700,l),
(257,700,l)
);
},
{
closed = 1;
nodes = (
(192,927,l),
(287,780,l),
(359,780,l),
(300,927,l)
);
},
{
closed = 1;
nodes = (
(221,302,l),
(329,616,l),
(436,302,l)
);
}
);
width = 657;
},
{
hints = (
{
horizontal = 1;
place = (0, 21);
target = up;
type = BottomGhost;
},
{
horizontal = 1;
place = (216, 86);
place = (216, 86);
type = Stem;
},
{
horizontal = 1;
place = (616, 84);
place = (616, 84);
type = Stem;
},
{
horizontal = 1;
place = (780, 147);
place = (780, 147);
type = Stem;
},
{
place = (19, 619);
place = (19, 619);
type = Stem;
}
);
layerId = "1E451FFA-12DA-4FF6-A0F2-5663C8724383";
shapes = (
{
closed = 1;
nodes = (
(19,0,l),
(118,0,l),
(192,216,l),
(465,216,l),
(539,0,l),
(638,0,l),
(400,700,l),
(257,700,l)
);
},
{
closed = 1;
nodes = (
(192,927,l),
(287,780,l),
(359,780,l),
(300,927,l)
);
},
{
closed = 1;
nodes = (
(221,302,l),
(329,616,l),
(436,302,l)
);
}
);
width = 657;
}
);
note = Agrave;
unicode = 192;
},
{
glyphname = Amacron;
kernLeft = A;
kernRight = A;
lastChange = "2024-02-20 15:05:20 +0000";
layers = (
{
hints = (
{
horizontal = 1;
place = (0, 21);
target = up;
type = BottomGhost;
},
{
horizontal = 1;
place = (216, 86);
place = (216, 86);
type = Stem;
},
{
horizontal = 1;
place = (616, 84);
place = (616, 84);
type = Stem;
},
{
horizontal = 1;
place = (777, 76);
place = (777, 76);
type = Stem;
},
{
place = (19, 619);
place = (19, 619);
type = Stem;
}
);
layerId = m01;
shapes = (
{
closed = 1;
nodes = (
(19,0,l),
(118,0,l),
(192,216,l),
(465,216,l),
(539,0,l),
(638,0,l),
(400,700,l),
(257,700,l)
);
},
{
closed = 1;
nodes = (
(176,777,l),
(481,777,l),
(481,853,l),
(176,853,l)
);
},
{
closed = 1;
nodes = (
(221,302,l),
(329,616,l),
(436,302,l)
);
}
);
width = 657;
},
{
hints = (
{
horizontal = 1;
place = (0, 21);
target = up;
type = BottomGhost;
},
{
horizontal = 1;
place = (216, 86);
place = (216, 86);
type = Stem;
},
{
horizontal = 1;
place = (616, 84);
place = (616, 84);
type = Stem;
},
{
horizontal = 1;
place = (777, 76);
place = (777, 76);
type = Stem;
},
{
place = (19, 619);
place = (19, 619);
type = Stem;
}
);
layerId = "1E451FFA-12DA-4FF6-A0F2-5663C8724383";
shapes = (
{
closed = 1;
nodes = (
(19,0,l),
(118,0,l),
(192,216,l),
(465,216,l),
(539,0,l),
(638,0,l),
(400,700,l),
(257,700,l)
);
},
{
closed = 1;
nodes = (
(176,777,l),
(481,777,l),
(481,853,l),
(176,853,l)
);
},
{
closed = 1;
nodes = (
(221,302,l),
(329,616,l),
(436,302,l)
);
}
);
width = 657;
}
);
note = Amacron;
unicode = 256;
},
{
glyphname = Aogonek;
kernLeft = A;
kernRight = A;
lastChange = "2024-02-20 15:05:20 +0000";
layers = (
{
hints = (
{
horizontal = 1;
place = (-171, 65);
place = (-171, 65);
type = Stem;
},
{
horizontal = 1;
place = (0, 21);
target = up;
type = BottomGhost;
},
{
horizontal = 1;
place = (216, 86);
place = (216, 86);
type = Stem;
},
{
horizontal = 1;
place = (616, 84);
place = (616, 84);
type = Stem;
},
{
place = (511, 62);
place = (511, 62);
type = Stem;
},
{
place = (628, 54);
place = (628, 54);
type = Stem;
}
);
layerId = m01;
shapes = (
{
closed = 1;
nodes = (
(19,0,l),
(118,0,l),
(192,216,l),
(465,216,l),
(539,0,l),
(582,0,l),
(539,-18,o),
(511,-56,o),
(511,-95,cs),
(511,-140,o),
(545,-171,o),
(593,-171,cs),
(645,-171,o),
(682,-134,o),
(682,-82,c),
(628,-72,l),
(628,-92,o),
(617,-106,o),
(599,-106,cs),
(583,-106,o),
(573,-93,o),
(573,-74,cs),
(573,-45,o),
(595,-21,o),
(639,0,c),
(638,0,l),
(400,700,l),
(257,700,l)
);
},
{
closed = 1;
nodes = (
(221,302,l),
(329,616,l),
(436,302,l)
);
}
);
width = 640;
},
{
hints = (
{
horizontal = 1;
place = (-171, 65);
place = (-171, 65);
type = Stem;
},
{
horizontal = 1;
place = (0, 21);
target = up;
type = BottomGhost;
},
{
horizontal = 1;
place = (216, 86);
place = (216, 86);
type = Stem;
},
{
horizontal = 1;
place = (616, 84);
place = (616, 84);
type = Stem;
},
{
place = (511, 62);
place = (511, 62);
type = Stem;
},
{
place = (628, 54);
place = (628, 54);
type = Stem;
}
);
layerId = "1E451FFA-12DA-4FF6-A0F2-5663C8724383";
shapes = (
{
closed = 1;
nodes = (
(19,0,l),
(118,0,l),
(192,216,l),
(465,216,l),
(539,0,l),
(582,0,l),
(539,-18,o),
(511,-56,o),
(511,-95,cs),
(511,-140,o),
(545,-171,o),
(593,-171,cs),
(645,-171,o),
(682,-134,o),
(682,-82,c),
(628,-72,l),
(628,-92,o),
(617,-106,o),
(599,-106,cs),
(583,-106,o),
(573,-93,o),
(573,-74,cs),
(573,-45,o),
(595,-21,o),
(639,0,c),
(638,0,l),
(400,700,l),
(257,700,l)
);
},
{
closed = 1;
nodes = (
(221,302,l),
(329,616,l),
(436,302,l)
);
}
);
width = 640;
}
);
note = Aogonek;
unicode = 260;
},
{
glyphname = Aring;
kernLeft = A;
kernRight = A;
lastChange = "2024-02-20 15:05:20 +0000";
layers = (
{
hints = (
{
horizontal = 1;
place = (0, 21);
target = up;
type = BottomGhost;
},
{
horizontal = 1;
place = (216, 86);
place = (216, 86);
type = Stem;
},
{
horizontal = 1;
place = (616, 84);
place = (616, 84);
type = Stem;
},
{
horizontal = 1;
place = (749, 68);
place = (749, 68);
type = Stem;
},
{
horizontal = 1;
place = (899, 69);
place = (899, 69);
type = Stem;
},
{
place = (219, 69);
place = (219, 69);
type = Stem;
},
{
place = (370, 68);
place = (370, 68);
type = Stem;
}
);
layerId = m01;
shapes = (
{
closed = 1;
nodes = (
(19,0,l),
(118,0,l),
(192,216,l),
(465,216,l),
(539,0,l),
(638,0,l),
(400,700,l),
(257,700,l)
);
},
{
closed = 1;
nodes = (
(219,799,o),
(269,749,o),
(329,749,cs),
(388,749,o),
(438,799,o),
(438,858,cs),
(438,918,o),
(388,968,o),
(329,968,cs),
(269,968,o),
(219,918,o),
(219,858,cs)
);
},
{
closed = 1;
nodes = (
(221,302,l),
(329,616,l),
(436,302,l)
);
},
{
closed = 1;
nodes = (
(288,882,o),
(305,899,o),
(329,899,cs),
(352,899,o),
(370,882,o),
(370,858,cs),
(370,835,o),
(352,817,o),
(329,817,cs),
(305,817,o),
(288,835,o),
(288,858,cs)
);
}
);
width = 657;
},
{
hints = (
{
horizontal = 1;
place = (0, 21);
target = up;
type = BottomGhost;
},
{
horizontal = 1;
place = (216, 86);
place = (216, 86);
type = Stem;
},
{
horizontal = 1;
place = (616, 84);
place = (616, 84);
type = Stem;
},
{
horizontal = 1;
place = (749, 68);
place = (749, 68);
type = Stem;
},
{
horizontal = 1;
place = (899, 69);
place = (899, 69);
type = Stem;
},
{
place = (219, 69);
place = (219, 69);
type = Stem;
},
{
place = (370, 68);
place = (370, 68);
type = Stem;
}
);
layerId = "1E451FFA-12DA-4FF6-A0F2-5663C8724383";
shapes = (
{
closed = 1;
nodes = (
(19,0,l),
(118,0,l),
(192,216,l),
(465,216,l),
(539,0,l),
(638,0,l),
(400,700,l),
(257,700,l)
);
},
{
closed = 1;
nodes = (
(219,799,o),
(269,749,o),
(329,749,cs),
(388,749,o),
(438,799,o),
(438,858,cs),
(438,918,o),
(388,968,o),
(329,968,cs),
(269,968,o),
(219,918,o),
(219,858,cs)
);
},
{
closed = 1;
nodes = (
(221,302,l),
(329,616,l),
(436,302,l)
);
},
{
closed = 1;
nodes = (
(288,882,o),
(305,899,o),
(329,899,cs),
(352,899,o),
(370,882,o),
(370,858,cs),
(370,835,o),
(352,817,o),
(329,817,cs),
(305,817,o),
(288,835,o),
(288,858,cs)
);
}
);
width = 657;
}
);
note = Aring;
unicode = 197;
},
{
glyphname = Atilde;
kernLeft = A;
kernRight = A;
lastChange = "2024-02-20 15:05:20 +0000";
layers = (
{
hints = (
{
horizontal = 1;
place = (0, 21);
target = up;
type = BottomGhost;
},
{
horizontal = 1;
place = (216, 86);
place = (216, 86);
type = Stem;
},
{
horizontal = 1;
place = (616, 84);
place = (616, 84);
type = Stem;
},
{
horizontal = 1;
place = (836, 77);
place = (836, 77);
type = Stem;
},
{
place = (19, 619);
place = (19, 619);
type = Stem;
},
{
place = (152, 86);
place = (152, 86);
type = Stem;
},
{
horizontal = 1;
place = (780, 77);
place = (780, 77);
type = Stem;
},
{
place = (421, 86);
place = (421, 86);
type = Stem;
}
);
layerId = m01;
shapes = (
{
closed = 1;
nodes = (
(19,0,l),
(118,0,l),
(192,216,l),
(465,216,l),
(539,0,l),
(638,0,l),
(400,700,l),
(257,700,l)
);
},
{
closed = 1;
nodes = (
(238,780,l),
(238,811,o),
(252,836,o),
(275,836,cs),
(309,836,o),
(332,780,o),
(397,780,cs),
(462,780,o),
(507,835,o),
(507,903,c),
(421,913,l),
(421,882,o),
(407,857,o),
(384,857,cs),
(350,857,o),
(327,913,o),
(263,913,cs),
(197,913,o),
(152,858,o),
(152,790,c)
);
},
{
closed = 1;
nodes = (
(221,302,l),
(329,616,l),
(436,302,l)
);
}
);
width = 657;
},
{
hints = (
{
horizontal = 1;
place = (0, 21);
target = up;
type = BottomGhost;
},
{
horizontal = 1;
place = (216, 86);
place = (216, 86);
type = Stem;
},
{
horizontal = 1;
place = (616, 84);
place = (616, 84);
type = Stem;
},
{
horizontal = 1;
place = (836, 77);
place = (836, 77);
type = Stem;
},
{
place = (19, 619);
place = (19, 619);
type = Stem;
},
{
place = (152, 86);
place = (152, 86);
type = Stem;
},
{
horizontal = 1;
place = (780, 77);
place = (780, 77);
type = Stem;
},
{
place = (421, 86);
place = (421, 86);
type = Stem;
}
);
layerId = "1E451FFA-12DA-4FF6-A0F2-5663C8724383";
shapes = (
{
closed = 1;
nodes = (
(19,0,l),
(118,0,l),
(192,216,l),
(465,216,l),
(539,0,l),
(638,0,l),
(400,700,l),
(257,700,l)
);
},
{
closed = 1;
nodes = (
(238,780,l),
(238,811,o),
(252,836,o),
(275,836,cs),
(309,836,o),
(332,780,o),
(397,780,cs),
(462,780,o),
(507,835,o),
(507,903,c),
(421,913,l),
(421,882,o),
(407,857,o),
(384,857,cs),
(350,857,o),
(327,913,o),
(263,913,cs),
(197,913,o),
(152,858,o),
(152,790,c)
);
},
{
closed = 1;
nodes = (
(221,302,l),
(329,616,l),
(436,302,l)
);
}
);
width = 657;
}
);
note = Atilde;
unicode = 195;
},
{
glyphname = AE;
kernLeft = A;
kernRight = AE;
lastChange = "2024-02-20 15:05:20 +0000";
layers = (
{
hints = (
{
horizontal = 1;
place = (0, 86);
place = (0, 86);
type = Stem;
},
{
horizontal = 1;
place = (216, 86);
place = (216, 86);
type = Stem;
},
{
horizontal = 1;
place = (614, 86);
place = (614, 86);
type = Stem;
},
{
place = (19, 793);
place = (19, 793);
type = Stem;
},
{
horizontal = 1;
place = (320, 87);
place = (320, 87);
type = Stem;
}
);
layerId = m01;
shapes = (
{
closed = 1;
nodes = (
(19,0,l),
(118,0,l),
(192,216,l),
(465,216,l),
(539,0,l),
(812,0,l),
(812,86,l),
(609,86,l),
(529,320,l),
(752,320,l),
(752,407,l),
(500,407,l),
(429,614,l),
(812,614,l),
(812,700,l),
(257,700,l)
);
},
{
closed = 1;
nodes = (
(221,302,l),
(329,616,l),
(436,302,l)
);
}
);
width = 863;
},
{
hints = (
{
horizontal = 1;
place = (0, 86);
place = (0, 86);
type = Stem;
},
{
horizontal = 1;
place = (216, 86);
place = (216, 86);
type = Stem;
},
{
horizontal = 1;
place = (614, 86);
place = (614, 86);
type = Stem;
},
{
place = (19, 793);
place = (19, 793);
type = Stem;
},
{
horizontal = 1;
place = (320, 87);
place = (320, 87);
type = Stem;
}
);
layerId = "1E451FFA-12DA-4FF6-A0F2-5663C8724383";
shapes = (
{
closed = 1;
nodes = (
(19,0,l),
(118,0,l),
(192,216,l),
(465,216,l),
(539,0,l),
(812,0,l),
(812,86,l),
(609,86,l),
(529,320,l),
(752,320,l),
(752,407,l),
(500,407,l),
(429,614,l),
(812,614,l),
(812,700,l),
(257,700,l)
);
},
{
closed = 1;
nodes = (
(221,302,l),
(329,616,l),
(436,302,l)
);
}
);
width = 863;
}
);
note = AE;
unicode = 198;
},
{
glyphname = AEacute;
kernLeft = A;
kernRight = AE;
lastChange = "2024-02-20 15:05:20 +0000";
layers = (
{
hints = (
{
horizontal = 1;
place = (0, 86);
place = (0, 86);
type = Stem;
},
{
horizontal = 1;
place = (216, 86);
place = (216, 86);
type = Stem;
},
{
horizontal = 1;
place = (614, 86);
place = (614, 86);
type = Stem;
},
{
place = (19, 793);
place = (19, 793);
type = Stem;
},
{
horizontal = 1;
place = (320, 87);
place = (320, 87);
type = Stem;
},
{
horizontal = 1;
place = (780, 147);
place = (780, 147);
type = Stem;
}
);
layerId = m01;
shapes = (
{
closed = 1;
nodes = (
(19,0,l),
(118,0,l),
(192,216,l),
(465,216,l),
(539,0,l),
(812,0,l),
(812,86,l),
(609,86,l),
(529,320,l),
(752,320,l),
(752,407,l),
(500,407,l),
(429,614,l),
(812,614,l),
(812,700,l),
(257,700,l)
);
},
{
closed = 1;
nodes = (
(221,302,l),
(329,616,l),
(436,302,l)
);
},
{
closed = 1;
nodes = (
(299,780,l),
(371,780,l),
(466,927,l),
(358,927,l)
);
}
);
width = 863;
},
{
hints = (
{
horizontal = 1;
place = (0, 86);
place = (0, 86);
type = Stem;
},
{
horizontal = 1;
place = (216, 86);
place = (216, 86);
type = Stem;
},
{
horizontal = 1;
place = (614, 86);
place = (614, 86);
type = Stem;
},
{
place = (19, 793);
place = (19, 793);
type = Stem;
},
{
horizontal = 1;
place = (320, 87);
place = (320, 87);
type = Stem;
},
{
horizontal = 1;
place = (780, 147);
place = (780, 147);
type = Stem;
}
);
layerId = "1E451FFA-12DA-4FF6-A0F2-5663C8724383";
shapes = (
{
closed = 1;
nodes = (
(19,0,l),
(118,0,l),
(192,216,l),
(465,216,l),
(539,0,l),
(812,0,l),
(812,86,l),
(609,86,l),
(529,320,l),
(752,320,l),
(752,407,l),
(500,407,l),
(429,614,l),
(812,614,l),
(812,700,l),
(257,700,l)
);
},
{
closed = 1;
nodes = (
(221,302,l),
(329,616,l),
(436,302,l)
);
},
{
closed = 1;
nodes = (
(299,780,l),
(371,780,l),
(466,927,l),
(358,927,l)
);
}
);
width = 863;
}
);
note = AEacute;
unicode = 508;
},
{
glyphname = B;
kernLeft = B;
kernRight = B;
lastChange = "2024-02-20 15:05:48 +0000";
layers = (
{
hints = (
{
horizontal = 1;
place = (0, 86);
place = (0, 86);
type = Stem;
},
{
horizontal = 1;
place = (312, 86);
place = (312, 86);
type = Stem;
},
{
horizontal = 1;
place = (614, 86);
place = (614, 86);
type = Stem;
},
{
place = (79, 93);
place = (79, 93);
type = Stem;
},
{
place = (452, 98);
place = (452, 98);
type = Stem;
},
{
place = (412, 98);
place = (412, 98);
type = Stem;
}
);
layerId = m01;
shapes = (
{
closed = 1;
nodes = (
(104,0,l),
(104,700,l),
(11,700,l),
(11,0,l)
);
},
{
closed = 1;
nodes = (
(172,142,l),
(313,142,ls),
(453,142,o),
(550,222,o),
(550,337,cs),
(550,425,o),
(493,489,o),
(406,503,c),
(469,518,o),
(510,574,o),
(510,651,cs),
(510,766,o),
(415,842,o),
(273,842,cs),
(172,842,l),
(172,756,l),
(273,756,ls),
(358,756,o),
(412,714,o),
(412,648,cs),
(412,583,o),
(358,540,o),
(273,540,cs),
(172,540,l),
(172,454,l),
(313,454,ls),
(396,454,o),
(452,409,o),
(452,341,cs),
(452,273,o),
(396,228,o),
(313,228,cs),
(172,228,l)
);
}
);
width = 597;
},
{
hints = (
{
horizontal = 1;
place = (0, 86);
place = (0, 86);
type = Stem;
},
{
horizontal = 1;
place = (312, 86);
place = (312, 86);
type = Stem;
},
{
horizontal = 1;
place = (614, 86);
place = (614, 86);
type = Stem;
},
{
place = (79, 93);
place = (79, 93);
type = Stem;
},
{
place = (452, 98);
place = (452, 98);
type = Stem;
},
{
place = (412, 98);
place = (412, 98);
type = Stem;
}
);
layerId = "1E451FFA-12DA-4FF6-A0F2-5663C8724383";
shapes = (
{
closed = 1;
nodes = (
(172,0,l),
(172,700,l),
(79,700,l),
(79,0,l)
);
},
{
closed = 1;
nodes = (
(172,0,l),
(313,0,ls),
(453,0,o),
(550,80,o),
(550,195,cs),
(550,283,o),
(493,347,o),
(406,361,c),
(469,376,o),
(510,432,o),
(510,509,cs),
(510,624,o),
(415,700,o),
(273,700,cs),
(172,700,l),
(172,614,l),
(273,614,ls),
(358,614,o),
(412,572,o),
(412,506,cs),
(412,441,o),
(358,398,o),
(273,398,cs),
(172,398,l),
(172,312,l),
(313,312,ls),
(396,312,o),
(452,267,o),
(452,199,cs),
(452,131,o),
(396,86,o),
(313,86,cs),
(172,86,l)
);
}
);
width = 597;
}
);
note = B;
unicode = 66;
},
{
glyphname = C;
kernLeft = C;
kernRight = C;
lastChange = "2024-02-20 15:05:53 +0000";
layers = (
{
hints = (
{
horizontal = 1;
place = (-16, 86);
place = (-16, 86);
type = Stem;
},
{
horizontal = 1;
place = (629, 87);
place = (629, 87);
type = Stem;
},
{
place = (51, 98);
place = (51, 98);
type = Stem;
}
);
layerId = m01;
shapes = (
{
closed = 1;
nodes = (
(290,349,l),
(290,349,o),
(290,349,o),
(290,349,cs),
(290,512,o),
(387,629,o),
(521,629,cs),
(633,629,o),
(712,548,o),
(727,416,c),
(827,426,l),
(811,600,o),
(690,716,o),
(522,716,cs),
(329,716,o),
(192,564,o),
(192,350,cs),
(192,350,o),
(192,349,o),
(192,349,c)
);
},
{
closed = 1;
nodes = (
(51,239,l),
(52,25,o),
(189,-126,o),
(381,-126,cs),
(548,-126,o),
(670,-12,o),
(686,159,c),
(587,169,l),
(573,41,o),
(493,-40,o),
(380,-40,cs),
(245,-40,o),
(149,76,o),
(149,239,c)
);
}
);
width = 747;
},
{
hints = (
{
horizontal = 1;
place = (-16, 86);
place = (-16, 86);
type = Stem;
},
{
horizontal = 1;
place = (629, 87);
place = (629, 87);
type = Stem;
},
{
place = (51, 98);
place = (51, 98);
type = Stem;
}
);
layerId = "1E451FFA-12DA-4FF6-A0F2-5663C8724383";
shapes = (
{
closed = 1;
nodes = (
(149,349,l),
(149,349,o),
(149,349,o),
(149,349,cs),
(149,512,o),
(246,629,o),
(380,629,cs),
(492,629,o),
(571,548,o),
(586,416,c),
(686,426,l),
(670,600,o),
(549,716,o),
(381,716,cs),
(188,716,o),
(51,564,o),
(51,350,cs),
(51,350,o),
(51,349,o),
(51,349,c)
);
},
{
closed = 1;
nodes = (
(51,349,l),
(52,135,o),
(189,-16,o),
(381,-16,cs),
(548,-16,o),
(670,98,o),
(686,269,c),
(587,279,l),
(573,151,o),
(493,70,o),
(380,70,cs),
(245,70,o),
(149,186,o),
(149,349,c)
);
}
);
width = 747;
}
);
note = C;
unicode = 67;
},
{
glyphname = Cacute;
kernLeft = C;
kernRight = C;
lastChange = "2024-02-20 15:05:20 +0000";
layers = (
{
hints = (
{
horizontal = 1;
place = (-16, 86);
place = (-16, 86);
type = Stem;
},
{
horizontal = 1;
place = (629, 87);
place = (629, 87);
type = Stem;
},
{
horizontal = 1;
place = (780, 147);
place = (780, 147);
type = Stem;
},
{
place = (51, 98);
place = (51, 98);
type = Stem;
}
);
layerId = m01;
shapes = (
{
closed = 1;
nodes = (
(548,-16,o),
(670,98,o),
(686,269,c),
(587,279,l),
(573,151,o),
(493,70,o),
(380,70,cs),
(245,70,o),
(149,186,o),
(149,349,cs),
(149,512,o),
(246,629,o),
(380,629,cs),
(492,629,o),
(571,548,o),
(586,416,c),
(686,426,l),
(670,600,o),
(549,716,o),
(381,716,cs),
(188,716,o),
(51,564,o),
(51,350,cs),
(51,136,o),
(189,-16,o),
(381,-16,cs)
);
},
{
closed = 1;
nodes = (
(338,780,l),
(410,780,l),
(505,927,l),
(397,927,l)
);
}
);
width = 747;
},
{
hints = (
{
horizontal = 1;
place = (-16, 86);
place = (-16, 86);
type = Stem;
},
{
horizontal = 1;
place = (629, 87);
place = (629, 87);
type = Stem;
},
{
horizontal = 1;
place = (780, 147);
place = (780, 147);
type = Stem;
},
{
place = (51, 98);
place = (51, 98);
type = Stem;
}
);
layerId = "1E451FFA-12DA-4FF6-A0F2-5663C8724383";
shapes = (
{
closed = 1;
nodes = (
(548,-16,o),
(670,98,o),
(686,269,c),
(587,279,l),
(573,151,o),
(493,70,o),
(380,70,cs),
(245,70,o),
(149,186,o),
(149,349,cs),
(149,512,o),
(246,629,o),
(380,629,cs),
(492,629,o),
(571,548,o),
(586,416,c),
(686,426,l),
(670,600,o),
(549,716,o),
(381,716,cs),
(188,716,o),
(51,564,o),
(51,350,cs),
(51,136,o),
(189,-16,o),
(381,-16,cs)
);
},
{
closed = 1;
nodes = (
(338,780,l),
(410,780,l),
(505,927,l),
(397,927,l)
);
}
);
width = 747;
}
);
note = Cacute;
unicode = 262;
},
{
glyphname = Ccaron;
kernLeft = C;
kernRight = C;
lastChange = "2024-02-20 15:05:20 +0000";
layers = (
{
hints = (
{
horizontal = 1;
place = (-16, 86);
place = (-16, 86);
type = Stem;
},
{
horizontal = 1;
place = (629, 87);
place = (629, 87);
type = Stem;
},
{
horizontal = 1;
place = (783, 147);
place = (783, 147);
type = Stem;
},
{
place = (51, 98);
place = (51, 98);
type = Stem;
}
);
layerId = m01;
shapes = (
{
closed = 1;
nodes = (
(548,-16,o),
(670,98,o),
(686,269,c),
(587,279,l),
(573,151,o),
(493,70,o),
(380,70,cs),
(245,70,o),
(149,186,o),
(149,349,cs),
(149,512,o),
(246,629,o),
(380,629,cs),
(492,629,o),
(571,548,o),
(586,416,c),
(686,426,l),
(670,600,o),
(549,716,o),
(381,716,cs),
(188,716,o),
(51,564,o),
(51,350,cs),
(51,136,o),
(189,-16,o),
(381,-16,cs)
);
},
{
closed = 1;
nodes = (
(223,930,l),
(297,783,l),
(441,783,l),
(515,930,l),
(432,930,l),
(369,823,l),
(306,930,l)
);
}
);
width = 747;
},
{
hints = (
{
horizontal = 1;
place = (-16, 86);
place = (-16, 86);
type = Stem;
},
{
horizontal = 1;
place = (629, 87);
place = (629, 87);
type = Stem;
},
{
horizontal = 1;
place = (783, 147);
place = (783, 147);
type = Stem;
},
{
place = (51, 98);
place = (51, 98);
type = Stem;
}
);
layerId = "1E451FFA-12DA-4FF6-A0F2-5663C8724383";
shapes = (
{
closed = 1;
nodes = (
(548,-16,o),
(670,98,o),
(686,269,c),
(587,279,l),
(573,151,o),
(493,70,o),
(380,70,cs),
(245,70,o),
(149,186,o),
(149,349,cs),
(149,512,o),
(246,629,o),
(380,629,cs),
(492,629,o),
(571,548,o),
(586,416,c),
(686,426,l),
(670,600,o),
(549,716,o),
(381,716,cs),
(188,716,o),
(51,564,o),
(51,350,cs),
(51,136,o),
(189,-16,o),
(381,-16,cs)
);
},
{
closed = 1;
nodes = (
(223,930,l),
(297,783,l),
(441,783,l),
(515,930,l),
(432,930,l),
(369,823,l),
(306,930,l)
);
}
);
width = 747;
}
);
note = Ccaron;
unicode = 268;
},
{
glyphname = Ccedilla;
kernLeft = C;
kernRight = C;
lastChange = "2024-02-20 15:05:20 +0000";
layers = (
{
hints = (
{
horizontal = 1;
place = (-216, 58);
place = (-216, 58);
type = Stem;
},
{
horizontal = 1;
place = (-94, 49);
place = (-94, 49);
type = Stem;
},
{
horizontal = 1;
place = (-12, 21);
target = up;
type = BottomGhost;
},
{
horizontal = 1;
place = (629, 87);
place = (629, 87);
type = Stem;
},
{
place = (51, 98);
place = (51, 98);
type = Stem;
},
{
place = (403, 61);
place = (403, 61);
type = Stem;
},
{
horizontal = 1;
place = (-12, 82);
place = (-12, 82);
type = Stem;
}
);
layerId = m01;
shapes = (
{
closed = 1;
nodes = (
(423,-216,o),
(464,-178,o),
(464,-127,cs),
(464,-80,o),
(429,-45,o),
(383,-45,cs),
(378,-45,o),
(373,-45,o),
(369,-46,c),
(382,-16,l),
(549,-15,o),
(670,98,o),
(686,269,c),
(587,279,l),
(573,151,o),
(493,70,o),
(380,70,cs),
(245,70,o),
(149,186,o),
(149,349,cs),
(149,512,o),
(246,629,o),
(380,629,cs),
(492,629,o),
(571,548,o),
(586,416,c),
(686,426,l),
(670,600,o),
(549,716,o),
(381,716,cs),
(188,716,o),
(51,564,o),
(51,350,cs),
(51,156,o),
(164,13,o),
(329,-12,c),
(294,-87,l),
(341,-108,l),
(347,-99,o),
(357,-94,o),
(369,-94,cs),
(389,-94,o),
(403,-107,o),
(403,-125,cs),
(403,-144,o),
(389,-158,o),
(368,-158,cs),
(351,-158,o),
(338,-148,o),
(335,-132,c),
(273,-142,l),
(278,-186,o),
(316,-216,o),
(367,-216,cs)
);
}
);
width = 747;
},
{
hints = (
{
horizontal = 1;
place = (-216, 58);
place = (-216, 58);
type = Stem;
},
{
horizontal = 1;
place = (-94, 49);
place = (-94, 49);
type = Stem;
},
{
horizontal = 1;
place = (-12, 21);
target = up;
type = BottomGhost;
},
{
horizontal = 1;
place = (629, 87);
place = (629, 87);
type = Stem;
},
{
place = (51, 98);
place = (51, 98);
type = Stem;
},
{
place = (403, 61);
place = (403, 61);
type = Stem;
},
{
horizontal = 1;
place = (-12, 82);
place = (-12, 82);
type = Stem;
}
);
layerId = "1E451FFA-12DA-4FF6-A0F2-5663C8724383";
shapes = (
{
closed = 1;
nodes = (
(423,-216,o),
(464,-178,o),
(464,-127,cs),
(464,-80,o),
(429,-45,o),
(383,-45,cs),
(378,-45,o),
(373,-45,o),
(369,-46,c),
(382,-16,l),
(549,-15,o),
(670,98,o),
(686,269,c),
(587,279,l),
(573,151,o),
(493,70,o),
(380,70,cs),
(245,70,o),
(149,186,o),
(149,349,cs),
(149,512,o),
(246,629,o),
(380,629,cs),
(492,629,o),
(571,548,o),
(586,416,c),
(686,426,l),
(670,600,o),
(549,716,o),
(381,716,cs),
(188,716,o),
(51,564,o),
(51,350,cs),
(51,156,o),
(164,13,o),
(329,-12,c),
(294,-87,l),
(341,-108,l),
(347,-99,o),
(357,-94,o),
(369,-94,cs),
(389,-94,o),
(403,-107,o),
(403,-125,cs),
(403,-144,o),
(389,-158,o),
(368,-158,cs),
(351,-158,o),
(338,-148,o),
(335,-132,c),
(273,-142,l),
(278,-186,o),
(316,-216,o),
(367,-216,cs)
);
}
);
width = 747;
}
);
note = Ccedilla;
unicode = 199;
},
{
glyphname = Ccircumflex;
kernLeft = C;
kernRight = C;
lastChange = "2024-02-20 15:05:20 +0000";
layers = (
{
hints = (
{
horizontal = 1;
place = (-16, 86);
place = (-16, 86);
type = Stem;
},
{
horizontal = 1;
place = (629, 87);
place = (629, 87);
type = Stem;
},
{
horizontal = 1;
place = (780, 147);
place = (780, 147);
type = Stem;
},
{
place = (51, 98);
place = (51, 98);
type = Stem;
},
{
horizontal = 1;
place = (887, 40);
place = (887, 40);
type = Stem;
}
);
layerId = m01;
shapes = (
{
closed = 1;
nodes = (
(548,-16,o),
(670,98,o),
(686,269,c),
(587,279,l),
(573,151,o),
(493,70,o),
(380,70,cs),
(245,70,o),
(149,186,o),
(149,349,cs),
(149,512,o),
(246,629,o),
(380,629,cs),
(492,629,o),
(571,548,o),
(586,416,c),
(686,426,l),
(670,600,o),
(549,716,o),
(381,716,cs),
(188,716,o),
(51,564,o),
(51,350,cs),
(51,136,o),
(189,-16,o),
(381,-16,cs)
);
},
{
closed = 1;
nodes = (
(223,780,l),
(306,780,l),
(369,887,l),
(432,780,l),
(515,780,l),
(441,927,l),
(297,927,l)
);
}
);
width = 747;
},
{
hints = (
{
horizontal = 1;
place = (-16, 86);
place = (-16, 86);
type = Stem;
},
{
horizontal = 1;
place = (629, 87);
place = (629, 87);
type = Stem;
},
{
horizontal = 1;
place = (780, 147);
place = (780, 147);
type = Stem;
},
{
place = (51, 98);
place = (51, 98);
type = Stem;
},
{
horizontal = 1;
place = (887, 40);
place = (887, 40);
type = Stem;
}
);
layerId = "1E451FFA-12DA-4FF6-A0F2-5663C8724383";
shapes = (
{
closed = 1;
nodes = (
(548,-16,o),
(670,98,o),
(686,269,c),
(587,279,l),
(573,151,o),
(493,70,o),
(380,70,cs),
(245,70,o),
(149,186,o),
(149,349,cs),
(149,512,o),
(246,629,o),
(380,629,cs),
(492,629,o),
(571,548,o),
(586,416,c),
(686,426,l),
(670,600,o),
(549,716,o),
(381,716,cs),
(188,716,o),
(51,564,o),
(51,350,cs),
(51,136,o),
(189,-16,o),
(381,-16,cs)
);
},
{
closed = 1;
nodes = (
(223,780,l),
(306,780,l),
(369,887,l),
(432,780,l),
(515,780,l),
(441,927,l),
(297,927,l)
);
}
);
width = 747;
}
);
note = Ccircumflex;
unicode = 264;
},
{
glyphname = Cdotaccent;
kernLeft = C;
kernRight = C;
lastChange = "2024-02-20 15:05:20 +0000";
layers = (
{
hints = (
{
horizontal = 1;
place = (-16, 86);
place = (-16, 86);
type = Stem;
},
{
horizontal = 1;
place = (629, 87);
place = (629, 87);
type = Stem;
},
{
horizontal = 1;
place = (757, 106);
place = (757, 106);
type = Stem;
},
{
place = (51, 98);
place = (51, 98);
type = Stem;
},
{
place = (311, 116);
place = (311, 116);
type = Stem;
}
);
layerId = m01;
shapes = (
{
closed = 1;
nodes = (
(548,-16,o),
(670,98,o),
(686,269,c),
(587,279,l),
(573,151,o),
(493,70,o),
(380,70,cs),
(245,70,o),
(149,186,o),
(149,349,cs),
(149,512,o),
(246,629,o),
(380,629,cs),
(492,629,o),
(571,548,o),
(586,416,c),
(686,426,l),
(670,600,o),
(549,716,o),
(381,716,cs),
(188,716,o),
(51,564,o),
(51,350,cs),
(51,136,o),
(189,-16,o),
(381,-16,cs)
);
},
{
closed = 1;
nodes = (
(311,757,l),
(427,757,l),
(427,863,l),
(311,863,l)
);
}
);
width = 747;
},
{
hints = (
{
horizontal = 1;
place = (-16, 86);
place = (-16, 86);
type = Stem;
},
{
horizontal = 1;
place = (629, 87);
place = (629, 87);
type = Stem;
},
{
horizontal = 1;
place = (757, 106);
place = (757, 106);
type = Stem;
},
{
place = (51, 98);
place = (51, 98);
type = Stem;
},
{
place = (311, 116);
place = (311, 116);
type = Stem;
}
);
layerId = "1E451FFA-12DA-4FF6-A0F2-5663C8724383";
shapes = (
{
closed = 1;
nodes = (
(548,-16,o),
(670,98,o),
(686,269,c),
(587,279,l),
(573,151,o),
(493,70,o),
(380,70,cs),
(245,70,o),
(149,186,o),
(149,349,cs),
(149,512,o),
(246,629,o),
(380,629,cs),
(492,629,o),
(571,548,o),
(586,416,c),
(686,426,l),
(670,600,o),
(549,716,o),
(381,716,cs),
(188,716,o),
(51,564,o),
(51,350,cs),
(51,136,o),
(189,-16,o),
(381,-16,cs)
);
},
{
closed = 1;
nodes = (
(311,757,l),
(427,757,l),
(427,863,l),
(311,863,l)
);
}
);
width = 747;
}
);
note = Cdotaccent;
unicode = 266;
},
{
glyphname = D;
kernLeft = B;
kernRight = C;
lastChange = "2024-02-20 15:28:18 +0000";
layers = (
{
hints = (
{
horizontal = 1;
place = (0, 86);
place = (0, 86);
type = Stem;
},
{
horizontal = 1;
place = (614, 86);
place = (614, 86);
type = Stem;
},
{
place = (79, 98);
place = (79, 98);
type = Stem;
},
{
place = (539, 98);
place = (539, 98);
type = Stem;
}
);
layerId = m01;
shapes = (
{
closed = 1;
nodes = (
(177,-545,l),
(177,155,l),
(79,155,l),
(79,-545,l)
);
},
{
closed = 1;
nodes = (
(959,193,o),
(863,86,o),
(723,86,cs),
(597,86,l),
(597,0,l),
(723,0,ls),
(921,0,o),
(1057,142,o),
(1057,350,c),
(959,350,l)
);
},
{
closed = 1;
nodes = (
(637,869,o),
(501,1011,o),
(303,1011,cs),
(177,1011,l),
(177,925,l),
(303,925,ls),
(443,925,o),
(539,818,o),
(539,661,c),
(637,661,l)
);
}
);
width = 689;
},
{
hints = (
{
horizontal = 1;
place = (0, 86);
place = (0, 86);
type = Stem;
},
{
horizontal = 1;
place = (614, 86);
place = (614, 86);
type = Stem;
},
{
place = (79, 98);
place = (79, 98);
type = Stem;
},
{
place = (539, 98);
place = (539, 98);
type = Stem;
}
);
layerId = "1E451FFA-12DA-4FF6-A0F2-5663C8724383";
shapes = (
{
closed = 1;
nodes = (
(177,0,l),
(177,700,l),
(79,700,l),
(79,0,l)
);
},
{
closed = 1;
nodes = (
(539,193,o),
(443,86,o),
(303,86,cs),
(177,86,l),
(177,0,l),
(303,0,ls),
(501,0,o),
(637,142,o),
(637,350,c),
(539,350,l)
);
},
{
closed = 1;
nodes = (
(637,558,o),
(501,700,o),
(303,700,cs),
(177,700,l),
(177,614,l),
(303,614,ls),
(443,614,o),
(539,507,o),
(539,350,c),
(637,350,l)
);
}
);
width = 689;
}
);
note = D;
unicode = 68;
},
{
glyphname = Eth;
kernLeft = B;
kernRight = C;
lastChange = "2024-02-20 15:05:20 +0000";
layers = (
{
hints = (
{
horizontal = 1;
place = (0, 86);
place = (0, 86);
type = Stem;
},
{
horizontal = 1;
place = (313, 74);
place = (313, 74);
type = Stem;
},
{
horizontal = 1;
place = (614, 86);
place = (614, 86);
type = Stem;
},
{
place = (75, 98);
place = (75, 98);
type = Stem;
},
{
place = (535, 98);
place = (535, 98);
type = Stem;
}
);
layerId = m01;
shapes = (
{
closed = 1;
nodes = (
(9,313,l),
(75,313,l),
(75,0,l),
(299,0,ls),
(497,0,o),
(633,142,o),
(633,350,cs),
(633,558,o),
(497,700,o),
(299,700,cs),
(75,700,l),
(75,387,l),
(9,387,l)
);
},
{
closed = 1;
nodes = (
(173,86,l),
(173,313,l),
(312,313,l),
(312,387,l),
(173,387,l),
(173,614,l),
(299,614,ls),
(439,614,o),
(535,507,o),
(535,350,cs),
(535,193,o),
(439,86,o),
(299,86,cs)
);
}
);
width = 685;
},
{
hints = (
{
horizontal = 1;
place = (0, 86);
place = (0, 86);
type = Stem;
},
{
horizontal = 1;
place = (313, 74);
place = (313, 74);
type = Stem;
},
{
horizontal = 1;
place = (614, 86);
place = (614, 86);
type = Stem;
},
{
place = (75, 98);
place = (75, 98);
type = Stem;
},
{
place = (535, 98);
place = (535, 98);
type = Stem;
}
);
layerId = "1E451FFA-12DA-4FF6-A0F2-5663C8724383";
shapes = (
{
closed = 1;
nodes = (
(9,313,l),
(75,313,l),
(75,0,l),
(299,0,ls),
(497,0,o),
(633,142,o),
(633,350,cs),
(633,558,o),
(497,700,o),
(299,700,cs),
(75,700,l),
(75,387,l),
(9,387,l)
);
},
{
closed = 1;
nodes = (
(173,86,l),
(173,313,l),
(312,313,l),
(312,387,l),
(173,387,l),
(173,614,l),
(299,614,ls),
(439,614,o),
(535,507,o),
(535,350,cs),
(535,193,o),
(439,86,o),
(299,86,cs)
);
}
);
width = 685;
}
);
note = Eth;
unicode = 208;
},
{
glyphname = Dcaron;
kernLeft = B;
kernRight = C;
lastChange = "2024-02-20 15:05:20 +0000";
layers = (
{
hints = (
{
horizontal = 1;
place = (0, 86);
place = (0, 86);
type = Stem;
},
{
horizontal = 1;
place = (614, 86);
place = (614, 86);
type = Stem;
},
{
horizontal = 1;
place = (783, 147);
place = (783, 147);
type = Stem;
},
{
place = (79, 98);
place = (79, 98);
type = Stem;
},
{
place = (539, 98);
place = (539, 98);
type = Stem;
}
);
layerId = m01;
shapes = (
{
closed = 1;
nodes = (
(79,0,l),
(303,0,ls),
(501,0,o),
(637,142,o),
(637,350,cs),
(637,558,o),
(501,700,o),
(303,700,cs),
(79,700,l)
);
},
{
closed = 1;
nodes = (
(177,86,l),
(177,614,l),
(303,614,ls),
(443,614,o),
(539,507,o),
(539,350,cs),
(539,193,o),
(443,86,o),
(303,86,cs)
);
},
{
closed = 1;
nodes = (
(182,930,l),
(256,783,l),
(400,783,l),
(474,930,l),
(391,930,l),
(328,823,l),
(265,930,l)
);
}
);
width = 689;
},
{
hints = (
{
horizontal = 1;
place = (0, 86);
place = (0, 86);
type = Stem;
},
{
horizontal = 1;
place = (614, 86);
place = (614, 86);
type = Stem;
},
{
horizontal = 1;
place = (783, 147);
place = (783, 147);
type = Stem;
},
{
place = (79, 98);
place = (79, 98);
type = Stem;
},
{
place = (539, 98);
place = (539, 98);
type = Stem;
}
);
layerId = "1E451FFA-12DA-4FF6-A0F2-5663C8724383";
shapes = (
{
closed = 1;
nodes = (
(79,0,l),
(303,0,ls),
(501,0,o),
(637,142,o),
(637,350,cs),
(637,558,o),
(501,700,o),
(303,700,cs),
(79,700,l)
);
},
{
closed = 1;
nodes = (
(177,86,l),
(177,614,l),
(303,614,ls),
(443,614,o),
(539,507,o),
(539,350,cs),
(539,193,o),
(443,86,o),
(303,86,cs)
);
},
{
closed = 1;
nodes = (
(182,930,l),
(256,783,l),
(400,783,l),
(474,930,l),
(391,930,l),
(328,823,l),
(265,930,l)
);
}
);
width = 689;
}
);
note = Dcaron;
unicode = 270;
},
{
glyphname = Dcroat;
kernLeft = B;
kernRight = C;
lastChange = "2024-02-20 15:05:20 +0000";
layers = (
{
hints = (
{
horizontal = 1;
place = (0, 86);
place = (0, 86);
type = Stem;
},
{
horizontal = 1;
place = (313, 74);
place = (313, 74);
type = Stem;
},
{
horizontal = 1;
place = (614, 86);
place = (614, 86);
type = Stem;
},
{
place = (75, 98);
place = (75, 98);
type = Stem;
},
{
place = (535, 98);
place = (535, 98);
type = Stem;
}
);
layerId = m01;
shapes = (
{
closed = 1;
nodes = (
(9,313,l),
(75,313,l),
(75,0,l),
(299,0,ls),
(497,0,o),
(633,142,o),
(633,350,cs),
(633,558,o),
(497,700,o),
(299,700,cs),
(75,700,l),
(75,387,l),
(9,387,l)
);
},
{
closed = 1;
nodes = (
(173,86,l),
(173,313,l),
(312,313,l),
(312,387,l),
(173,387,l),
(173,614,l),
(299,614,ls),
(439,614,o),
(535,507,o),
(535,350,cs),
(535,193,o),
(439,86,o),
(299,86,cs)
);
}
);
width = 685;
},
{
hints = (
{
horizontal = 1;
place = (0, 86);
place = (0, 86);
type = Stem;
},
{
horizontal = 1;
place = (313, 74);
place = (313, 74);
type = Stem;
},
{
horizontal = 1;
place = (614, 86);
place = (614, 86);
type = Stem;
},
{
place = (75, 98);
place = (75, 98);
type = Stem;
},
{
place = (535, 98);
place = (535, 98);
type = Stem;
}
);
layerId = "1E451FFA-12DA-4FF6-A0F2-5663C8724383";
shapes = (
{
closed = 1;
nodes = (
(9,313,l),
(75,313,l),
(75,0,l),
(299,0,ls),
(497,0,o),
(633,142,o),
(633,350,cs),
(633,558,o),
(497,700,o),
(299,700,cs),
(75,700,l),
(75,387,l),
(9,387,l)
);
},
{
closed = 1;
nodes = (
(173,86,l),
(173,313,l),
(312,313,l),
(312,387,l),
(173,387,l),
(173,614,l),
(299,614,ls),
(439,614,o),
(535,507,o),
(535,350,cs),
(535,193,o),
(439,86,o),
(299,86,cs)
);
}
);
width = 685;
}
);
note = Dcroat;
unicode = 272;
},
{
glyphname = E;
kernLeft = B;
kernRight = AE;
lastChange = "2024-02-20 15:05:20 +0000";
layers = (
{
hints = (
{
horizontal = 1;
place = (0, 86);
place = (0, 86);
type = Stem;
},
{
horizontal = 1;
place = (320, 87);
place = (320, 87);
type = Stem;
},
{
horizontal = 1;
place = (614, 86);
place = (614, 86);
type = Stem;
},
{
place = (79, 98);
place = (79, 98);
type = Stem;
}
);
layerId = m01;
shapes = (
{
closed = 1;
nodes = (
(79,0,l),
(507,0,l),
(507,86,l),
(177,86,l),
(177,320,l),
(447,320,l),
(447,407,l),
(177,407,l),
(177,614,l),
(507,614,l),
(507,700,l),
(79,700,l)
);
}
);
width = 559;
},
{
hints = (
{
horizontal = 1;
place = (0, 86);
place = (0, 86);
type = Stem;
},
{
horizontal = 1;
place = (320, 87);
place = (320, 87);
type = Stem;
},
{
horizontal = 1;
place = (614, 86);
place = (614, 86);
type = Stem;
},
{
place = (79, 98);
place = (79, 98);
type = Stem;
}
);
layerId = "1E451FFA-12DA-4FF6-A0F2-5663C8724383";
shapes = (
{
closed = 1;
nodes = (
(79,0,l),
(507,0,l),
(507,86,l),
(177,86,l),
(177,320,l),
(447,320,l),
(447,407,l),
(177,407,l),
(177,614,l),
(507,614,l),
(507,700,l),
(79,700,l)
);
}
);
width = 559;
}
);
note = E;
unicode = 69;
},
{
glyphname = Eacute;
kernLeft = B;
kernRight = AE;
lastChange = "2024-02-20 15:05:20 +0000";
layers = (
{
hints = (
{
horizontal = 1;
place = (0, 86);
place = (0, 86);
type = Stem;
},
{
horizontal = 1;
place = (320, 87);
place = (320, 87);
type = Stem;
},
{
horizontal = 1;
place = (614, 86);
place = (614, 86);
type = Stem;
},
{
horizontal = 1;
place = (760, 147);
place = (760, 147);
type = Stem;
},
{
place = (79, 98);
place = (79, 98);
type = Stem;
}
);
layerId = m01;
shapes = (
{
closed = 1;
nodes = (
(79,0,l),
(507,0,l),
(507,86,l),
(177,86,l),
(177,320,l),
(447,320,l),
(447,407,l),
(177,407,l),
(177,614,l),
(507,614,l),
(507,700,l),
(79,700,l)
);
},
{
closed = 1;
nodes = (
(264,760,l),
(336,760,l),
(431,907,l),
(323,907,l)
);
}
);
width = 559;
},
{
hints = (
{
horizontal = 1;
place = (0, 86);
place = (0, 86);
type = Stem;
},
{
horizontal = 1;
place = (320, 87);
place = (320, 87);
type = Stem;
},
{
horizontal = 1;
place = (614, 86);
place = (614, 86);
type = Stem;
},
{
horizontal = 1;
place = (760, 147);
place = (760, 147);
type = Stem;
},
{
place = (79, 98);
place = (79, 98);
type = Stem;
}
);
layerId = "1E451FFA-12DA-4FF6-A0F2-5663C8724383";
shapes = (
{
closed = 1;
nodes = (
(79,0,l),
(507,0,l),
(507,86,l),
(177,86,l),
(177,320,l),
(447,320,l),
(447,407,l),
(177,407,l),
(177,614,l),
(507,614,l),
(507,700,l),
(79,700,l)
);
},
{
closed = 1;
nodes = (
(264,760,l),
(336,760,l),
(431,907,l),
(323,907,l)
);
}
);
width = 559;
}
);
note = Eacute;
unicode = 201;
},
{
glyphname = Ebreve;
kernLeft = B;
kernRight = AE;
lastChange = "2024-02-20 15:05:20 +0000";
layers = (
{
hints = (
{
horizontal = 1;
place = (0, 86);
place = (0, 86);
type = Stem;
},
{
horizontal = 1;
place = (320, 87);
place = (320, 87);
type = Stem;
},
{
horizontal = 1;
place = (614, 86);
place = (614, 86);
type = Stem;
},
{
horizontal = 1;
place = (760, 74);
place = (760, 74);
type = Stem;
},
{
place = (79, 98);
place = (79, 98);
type = Stem;
},
{
place = (137, 74);
place = (137, 74);
type = Stem;
},
{
place = (376, 74);
place = (376, 74);
type = Stem;
}
);
layerId = m01;
shapes = (
{
closed = 1;
nodes = (
(79,0,l),
(507,0,l),
(507,86,l),
(177,86,l),
(177,320,l),
(447,320,l),
(447,407,l),
(177,407,l),
(177,614,l),
(507,614,l),
(507,700,l),
(79,700,l)
);
},
{
closed = 1;
nodes = (
(137,917,l),
(137,827,o),
(206,760,o),
(294,760,cs),
(380,760,o),
(450,827,o),
(450,917,c),
(376,917,l),
(375,870,o),
(339,834,o),
(294,834,cs),
(248,834,o),
(212,870,o),
(211,917,c)
);
}
);
width = 559;
},
{
hints = (
{
horizontal = 1;
place = (0, 86);
place = (0, 86);
type = Stem;
},
{
horizontal = 1;
place = (320, 87);
place = (320, 87);
type = Stem;
},
{
horizontal = 1;
place = (614, 86);
place = (614, 86);
type = Stem;
},
{
horizontal = 1;
place = (760, 74);
place = (760, 74);
type = Stem;
},
{
place = (79, 98);
place = (79, 98);
type = Stem;
},
{
place = (137, 74);
place = (137, 74);
type = Stem;
},
{
place = (376, 74);
place = (376, 74);
type = Stem;
}
);
layerId = "1E451FFA-12DA-4FF6-A0F2-5663C8724383";
shapes = (
{
closed = 1;
nodes = (
(79,0,l),
(507,0,l),
(507,86,l),
(177,86,l),
(177,320,l),
(447,320,l),
(447,407,l),
(177,407,l),
(177,614,l),
(507,614,l),
(507,700,l),
(79,700,l)
);
},
{
closed = 1;
nodes = (
(137,917,l),
(137,827,o),
(206,760,o),
(294,760,cs),
(380,760,o),
(450,827,o),
(450,917,c),
(376,917,l),
(375,870,o),
(339,834,o),
(294,834,cs),
(248,834,o),
(212,870,o),
(211,917,c)
);
}
);
width = 559;
}
);
note = Ebreve;
unicode = 276;
},
{
glyphname = Ecaron;
kernLeft = B;
kernRight = AE;
lastChange = "2024-02-20 15:05:20 +0000";
layers = (
{
hints = (
{
horizontal = 1;
place = (0, 86);
place = (0, 86);
type = Stem;
},
{
horizontal = 1;
place = (320, 87);
place = (320, 87);
type = Stem;
},
{
horizontal = 1;
place = (614, 86);
place = (614, 86);
type = Stem;
},
{
horizontal = 1;
place = (791, 147);
place = (791, 147);
type = Stem;
},
{
place = (79, 98);
place = (79, 98);
type = Stem;
}
);
layerId = m01;
shapes = (
{
closed = 1;
nodes = (
(79,0,l),
(507,0,l),
(507,86,l),
(177,86,l),
(177,320,l),
(447,320,l),
(447,407,l),
(177,407,l),
(177,614,l),
(507,614,l),
(507,700,l),
(79,700,l)
);
},
{
closed = 1;
nodes = (
(147,938,l),
(221,791,l),
(365,791,l),
(439,938,l),
(356,938,l),
(293,831,l),
(230,938,l)
);
}
);
width = 559;
},
{
hints = (
{
horizontal = 1;
place = (0, 86);
place = (0, 86);
type = Stem;
},
{
horizontal = 1;
place = (320, 87);
place = (320, 87);
type = Stem;
},
{
horizontal = 1;
place = (614, 86);
place = (614, 86);
type = Stem;
},
{
horizontal = 1;
place = (791, 147);
place = (791, 147);
type = Stem;
},
{
place = (79, 98);
place = (79, 98);
type = Stem;
}
);
layerId = "1E451FFA-12DA-4FF6-A0F2-5663C8724383";
shapes = (
{
closed = 1;
nodes = (
(79,0,l),
(507,0,l),
(507,86,l),
(177,86,l),
(177,320,l),
(447,320,l),
(447,407,l),
(177,407,l),
(177,614,l),
(507,614,l),
(507,700,l),
(79,700,l)
);
},
{
closed = 1;
nodes = (
(147,938,l),
(221,791,l),
(365,791,l),
(439,938,l),
(356,938,l),
(293,831,l),
(230,938,l)
);
}
);
width = 559;
}
);
note = Ecaron;
unicode = 282;
},
{
glyphname = Ecircumflex;
kernLeft = B;
kernRight = AE;
lastChange = "2024-02-20 15:05:20 +0000";
layers = (
{
hints = (
{
horizontal = 1;
place = (0, 86);
place = (0, 86);
type = Stem;
},
{
horizontal = 1;
place = (320, 87);
place = (320, 87);
type = Stem;
},
{
horizontal = 1;
place = (614, 86);
place = (614, 86);
type = Stem;
},
{
horizontal = 1;
place = (788, 147);
place = (788, 147);
type = Stem;
},
{
place = (79, 98);
place = (79, 98);
type = Stem;
},
{
horizontal = 1;
place = (895, 40);
place = (895, 40);
type = Stem;
}
);
layerId = m01;
shapes = (
{
closed = 1;
nodes = (
(79,0,l),
(507,0,l),
(507,86,l),
(177,86,l),
(177,320,l),
(447,320,l),
(447,407,l),
(177,407,l),
(177,614,l),
(507,614,l),
(507,700,l),
(79,700,l)
);
},
{
closed = 1;
nodes = (
(147,788,l),
(230,788,l),
(293,895,l),
(356,788,l),
(439,788,l),
(365,935,l),
(221,935,l)
);
}
);
width = 559;
},
{
hints = (
{
horizontal = 1;
place = (0, 86);
place = (0, 86);
type = Stem;
},
{
horizontal = 1;
place = (320, 87);
place = (320, 87);
type = Stem;
},
{
horizontal = 1;
place = (614, 86);
place = (614, 86);
type = Stem;
},
{
horizontal = 1;
place = (788, 147);
place = (788, 147);
type = Stem;
},
{
place = (79, 98);
place = (79, 98);
type = Stem;
},
{
horizontal = 1;
place = (895, 40);
place = (895, 40);
type = Stem;
}
);
layerId = "1E451FFA-12DA-4FF6-A0F2-5663C8724383";
shapes = (
{
closed = 1;
nodes = (
(79,0,l),
(507,0,l),
(507,86,l),
(177,86,l),
(177,320,l),
(447,320,l),
(447,407,l),
(177,407,l),
(177,614,l),
(507,614,l),
(507,700,l),
(79,700,l)
);
},
{
closed = 1;
nodes = (
(147,788,l),
(230,788,l),
(293,895,l),
(356,788,l),
(439,788,l),
(365,935,l),
(221,935,l)
);
}
);
width = 559;
}
);
note = Ecircumflex;
unicode = 202;
},
{
glyphname = Edieresis;
kernLeft = B;
kernRight = AE;
lastChange = "2024-02-20 15:05:20 +0000";
layers = (
{
hints = (
{
horizontal = 1;
place = (0, 86);
place = (0, 86);
type = Stem;
},
{
horizontal = 1;
place = (320, 87);
place = (320, 87);
type = Stem;
},
{
horizontal = 1;
place = (614, 86);
place = (614, 86);
type = Stem;
},
{
horizontal = 1;
place = (777, 93);
place = (777, 93);
type = Stem;
},
{
place = (79, 98);
place = (79, 98);
type = Stem;
},
{
place = (326, 97);
place = (326, 97);
type = Stem;
},
{
place = (164, 97);
place = (164, 97);
type = Stem;
}
);
layerId = m01;
shapes = (
{
closed = 1;
nodes = (
(326,777,l),
(423,777,l),
(423,870,l),
(326,870,l)
);
},
{
closed = 1;
nodes = (
(79,0,l),
(507,0,l),
(507,86,l),
(177,86,l),
(177,320,l),
(447,320,l),
(447,407,l),
(177,407,l),
(177,614,l),
(507,614,l),
(507,700,l),
(79,700,l)
);
},
{
closed = 1;
nodes = (
(164,777,l),
(261,777,l),
(261,870,l),
(164,870,l)
);
}
);
width = 559;
},
{
hints = (
{
horizontal = 1;
place = (0, 86);
place = (0, 86);
type = Stem;
},
{
horizontal = 1;
place = (320, 87);
place = (320, 87);
type = Stem;
},
{
horizontal = 1;
place = (614, 86);
place = (614, 86);
type = Stem;
},
{
horizontal = 1;
place = (777, 93);
place = (777, 93);
type = Stem;
},
{
place = (79, 98);
place = (79, 98);
type = Stem;
},
{
place = (326, 97);
place = (326, 97);
type = Stem;
},
{
place = (164, 97);
place = (164, 97);
type = Stem;
}
);
layerId = "1E451FFA-12DA-4FF6-A0F2-5663C8724383";
shapes = (
{
closed = 1;
nodes = (
(326,777,l),
(423,777,l),
(423,870,l),
(326,870,l)
);
},
{
closed = 1;
nodes = (
(79,0,l),
(507,0,l),
(507,86,l),
(177,86,l),
(177,320,l),
(447,320,l),
(447,407,l),
(177,407,l),
(177,614,l),
(507,614,l),
(507,700,l),
(79,700,l)
);
},
{
closed = 1;
nodes = (
(164,777,l),
(261,777,l),
(261,870,l),
(164,870,l)
);
}
);
width = 559;
}
);
note = Edieresis;
unicode = 203;
},
{
glyphname = Edotaccent;
kernLeft = B;
kernRight = AE;
lastChange = "2024-02-20 15:05:20 +0000";
layers = (
{
hints = (
{
horizontal = 1;
place = (0, 86);
place = (0, 86);
type = Stem;
},
{
horizontal = 1;
place = (320, 87);
place = (320, 87);
type = Stem;
},
{
horizontal = 1;
place = (614, 86);
place = (614, 86);
type = Stem;
},
{
horizontal = 1;
place = (757, 106);
place = (757, 106);
type = Stem;
},
{
place = (79, 98);
place = (79, 98);
type = Stem;
},
{
place = (235, 116);
place = (235, 116);
type = Stem;
}
);
layerId = m01;
shapes = (
{
closed = 1;
nodes = (
(79,0,l),
(507,0,l),
(507,86,l),
(177,86,l),
(177,320,l),
(447,320,l),
(447,407,l),
(177,407,l),
(177,614,l),
(507,614,l),
(507,700,l),
(79,700,l)
);
},
{
closed = 1;
nodes = (
(235,757,l),
(351,757,l),
(351,863,l),
(235,863,l)
);
}
);
width = 559;
},
{
hints = (
{
horizontal = 1;
place = (0, 86);
place = (0, 86);
type = Stem;
},
{
horizontal = 1;
place = (320, 87);
place = (320, 87);
type = Stem;
},
{
horizontal = 1;
place = (614, 86);
place = (614, 86);
type = Stem;
},
{
horizontal = 1;
place = (757, 106);
place = (757, 106);
type = Stem;
},
{
place = (79, 98);
place = (79, 98);
type = Stem;
},
{
place = (235, 116);
place = (235, 116);
type = Stem;
}
);
layerId = "1E451FFA-12DA-4FF6-A0F2-5663C8724383";
shapes = (
{
closed = 1;
nodes = (
(79,0,l),
(507,0,l),
(507,86,l),
(177,86,l),
(177,320,l),
(447,320,l),
(447,407,l),
(177,407,l),
(177,614,l),
(507,614,l),
(507,700,l),
(79,700,l)
);
},
{
closed = 1;
nodes = (
(235,757,l),
(351,757,l),
(351,863,l),
(235,863,l)
);
}
);
width = 559;
}
);
note = Edotaccent;
unicode = 278;
},
{
glyphname = Egrave;
kernLeft = B;
kernRight = AE;
lastChange = "2024-02-20 15:05:20 +0000";
layers = (
{
hints = (
{
horizontal = 1;
place = (0, 86);
place = (0, 86);
type = Stem;
},
{
horizontal = 1;
place = (320, 87);
place = (320, 87);
type = Stem;
},
{
horizontal = 1;
place = (614, 86);
place = (614, 86);
type = Stem;
},
{
horizontal = 1;
place = (760, 147);
place = (760, 147);
type = Stem;
},
{
place = (79, 98);
place = (79, 98);
type = Stem;
}
);
layerId = m01;
shapes = (
{
closed = 1;
nodes = (
(79,0,l),
(507,0,l),
(507,86,l),
(177,86,l),
(177,320,l),
(447,320,l),
(447,407,l),
(177,407,l),
(177,614,l),
(507,614,l),
(507,700,l),
(79,700,l)
);
},
{
closed = 1;
nodes = (
(157,907,l),
(252,760,l),
(324,760,l),
(265,907,l)
);
}
);
width = 559;
},
{
hints = (
{
horizontal = 1;
place = (0, 86);
place = (0, 86);
type = Stem;
},
{
horizontal = 1;
place = (320, 87);
place = (320, 87);
type = Stem;
},
{
horizontal = 1;
place = (614, 86);
place = (614, 86);
type = Stem;
},
{
horizontal = 1;
place = (760, 147);
place = (760, 147);
type = Stem;
},
{
place = (79, 98);
place = (79, 98);
type = Stem;
}
);
layerId = "1E451FFA-12DA-4FF6-A0F2-5663C8724383";
shapes = (
{
closed = 1;
nodes = (
(79,0,l),
(507,0,l),
(507,86,l),
(177,86,l),
(177,320,l),
(447,320,l),
(447,407,l),
(177,407,l),
(177,614,l),
(507,614,l),
(507,700,l),
(79,700,l)
);
},
{
closed = 1;
nodes = (
(157,907,l),
(252,760,l),
(324,760,l),
(265,907,l)
);
}
);
width = 559;
}
);
note = Egrave;
unicode = 200;
},
{
glyphname = Emacron;
kernLeft = B;
kernRight = AE;
lastChange = "2024-02-20 15:05:20 +0000";
layers = (
{
hints = (
{
horizontal = 1;
place = (0, 86);
place = (0, 86);
type = Stem;
},
{
horizontal = 1;
place = (320, 87);
place = (320, 87);
type = Stem;
},
{
horizontal = 1;
place = (614, 86);
place = (614, 86);
type = Stem;
},
{
horizontal = 1;
place = (757, 76);
place = (757, 76);
type = Stem;
},
{
place = (79, 98);
place = (79, 98);
type = Stem;
}
);
layerId = m01;
shapes = (
{
closed = 1;
nodes = (
(79,0,l),
(507,0,l),
(507,86,l),
(177,86,l),
(177,320,l),
(447,320,l),
(447,407,l),
(177,407,l),
(177,614,l),
(507,614,l),
(507,700,l),
(79,700,l)
);
},
{
closed = 1;
nodes = (
(141,757,l),
(446,757,l),
(446,833,l),
(141,833,l)
);
}
);
width = 559;
},
{
hints = (
{
horizontal = 1;
place = (0, 86);
place = (0, 86);
type = Stem;
},
{
horizontal = 1;
place = (320, 87);
place = (320, 87);
type = Stem;
},
{
horizontal = 1;
place = (614, 86);
place = (614, 86);
type = Stem;
},
{
horizontal = 1;
place = (757, 76);
place = (757, 76);
type = Stem;
},
{
place = (79, 98);
place = (79, 98);
type = Stem;
}
);
layerId = "1E451FFA-12DA-4FF6-A0F2-5663C8724383";
shapes = (
{
closed = 1;
nodes = (
(79,0,l),
(507,0,l),
(507,86,l),
(177,86,l),
(177,320,l),
(447,320,l),
(447,407,l),
(177,407,l),
(177,614,l),
(507,614,l),
(507,700,l),
(79,700,l)
);
},
{
closed = 1;
nodes = (
(141,757,l),
(446,757,l),
(446,833,l),
(141,833,l)
);
}
);
width = 559;
}
);
note = Emacron;
unicode = 274;
},
{
glyphname = Eogonek;
kernLeft = B;
kernRight = AE;
lastChange = "2024-02-20 15:05:20 +0000";
layers = (
{
hints = (
{
horizontal = 1;
place = (0, 86);
place = (0, 86);
type = Stem;
},
{
horizontal = 1;
place = (320, 87);
place = (320, 87);
type = Stem;
},
{
horizontal = 1;
place = (614, 86);
place = (614, 86);
type = Stem;
},
{
place = (79, 98);
place = (79, 98);
type = Stem;
},
{
place = (451, 56);
place = (451, 56);
type = Stem;
},
{
horizontal = 1;
place = (-171, 65);
place = (-171, 65);
type = Stem;
},
{
place = (380, 62);
place = (380, 62);
type = Stem;
},
{
place = (497, 54);
place = (497, 54);
type = Stem;
}
);
layerId = m01;
shapes = (
{
closed = 1;
nodes = (
(79,0,l),
(451,0,l),
(408,-18,o),
(380,-56,o),
(380,-95,cs),
(380,-140,o),
(414,-171,o),
(462,-171,cs),
(514,-171,o),
(551,-134,o),
(551,-82,c),
(497,-72,l),
(497,-92,o),
(486,-106,o),
(468,-106,cs),
(452,-106,o),
(442,-93,o),
(442,-74,cs),
(442,-45,o),
(464,-21,o),
(508,0,c),
(507,0,l),
(507,86,l),
(177,86,l),
(177,320,l),
(447,320,l),
(447,407,l),
(177,407,l),
(177,614,l),
(507,614,l),
(507,700,l),
(79,700,l)
);
}
);
width = 592;
},
{
hints = (
{
horizontal = 1;
place = (0, 86);
place = (0, 86);
type = Stem;
},
{
horizontal = 1;
place = (320, 87);
place = (320, 87);
type = Stem;
},
{
horizontal = 1;
place = (614, 86);
place = (614, 86);
type = Stem;
},
{
place = (79, 98);
place = (79, 98);
type = Stem;
},
{
place = (451, 56);
place = (451, 56);
type = Stem;
},
{
horizontal = 1;
place = (-171, 65);
place = (-171, 65);
type = Stem;
},
{
place = (380, 62);
place = (380, 62);
type = Stem;
},
{
place = (497, 54);
place = (497, 54);
type = Stem;
}
);
layerId = "1E451FFA-12DA-4FF6-A0F2-5663C8724383";
shapes = (
{
closed = 1;
nodes = (
(79,0,l),
(451,0,l),
(408,-18,o),
(380,-56,o),
(380,-95,cs),
(380,-140,o),
(414,-171,o),
(462,-171,cs),
(514,-171,o),
(551,-134,o),
(551,-82,c),
(497,-72,l),
(497,-92,o),
(486,-106,o),
(468,-106,cs),
(452,-106,o),
(442,-93,o),
(442,-74,cs),
(442,-45,o),
(464,-21,o),
(508,0,c),
(507,0,l),
(507,86,l),
(177,86,l),
(177,320,l),
(447,320,l),
(447,407,l),
(177,407,l),
(177,614,l),
(507,614,l),
(507,700,l),
(79,700,l)
);
}
);
width = 592;
}
);
note = Eogonek;
unicode = 280;
},
{
glyphname = uni1EBC;
kernLeft = B;
kernRight = AE;
lastChange = "2024-02-20 15:05:20 +0000";
layers = (
{
hints = (
{
horizontal = 1;
place = (0, 86);
place = (0, 86);
type = Stem;
},
{
horizontal = 1;
place = (320, 87);
place = (320, 87);
type = Stem;
},
{
horizontal = 1;
place = (614, 86);
place = (614, 86);
type = Stem;
},
{
place = (79, 98);
place = (79, 98);
type = Stem;
},
{
horizontal = 1;
place = (816, 77);
place = (816, 77);
type = Stem;
},
{
place = (116, 86);
place = (116, 86);
type = Stem;
},
{
horizontal = 1;
place = (760, 77);
place = (760, 77);
type = Stem;
},
{
place = (385, 86);
place = (385, 86);
type = Stem;
}
);
layerId = m01;
shapes = (
{
closed = 1;
nodes = (
(79,0,l),
(507,0,l),
(507,86,l),
(177,86,l),
(177,320,l),
(447,320,l),
(447,407,l),
(177,407,l),
(177,614,l),
(507,614,l),
(507,700,l),
(79,700,l)
);
},
{
closed = 1;
nodes = (
(202,760,l),
(202,791,o),
(216,816,o),
(239,816,cs),
(273,816,o),
(296,760,o),
(361,760,cs),
(426,760,o),
(471,815,o),
(471,883,c),
(385,893,l),
(385,862,o),
(371,837,o),
(348,837,cs),
(314,837,o),
(291,893,o),
(227,893,cs),
(161,893,o),
(116,838,o),
(116,770,c)
);
}
);
width = 559;
},
{
hints = (
{
horizontal = 1;
place = (0, 86);
place = (0, 86);
type = Stem;
},
{
horizontal = 1;
place = (320, 87);
place = (320, 87);
type = Stem;
},
{
horizontal = 1;
place = (614, 86);
place = (614, 86);
type = Stem;
},
{
place = (79, 98);
place = (79, 98);
type = Stem;
},
{
horizontal = 1;
place = (816, 77);
place = (816, 77);
type = Stem;
},
{
place = (116, 86);
place = (116, 86);
type = Stem;
},
{
horizontal = 1;
place = (760, 77);
place = (760, 77);
type = Stem;
},
{
place = (385, 86);
place = (385, 86);
type = Stem;
}
);
layerId = "1E451FFA-12DA-4FF6-A0F2-5663C8724383";
shapes = (
{
closed = 1;
nodes = (
(79,0,l),
(507,0,l),
(507,86,l),
(177,86,l),
(177,320,l),
(447,320,l),
(447,407,l),
(177,407,l),
(177,614,l),
(507,614,l),
(507,700,l),
(79,700,l)
);
},
{
closed = 1;
nodes = (
(202,760,l),
(202,791,o),
(216,816,o),
(239,816,cs),
(273,816,o),
(296,760,o),
(361,760,cs),
(426,760,o),
(471,815,o),
(471,883,c),
(385,893,l),
(385,862,o),
(371,837,o),
(348,837,cs),
(314,837,o),
(291,893,o),
(227,893,cs),
(161,893,o),
(116,838,o),
(116,770,c)
);
}
);
width = 559;
}
);
note = uni1EBC;
unicode = 7868;
},
{
glyphname = F;
kernLeft = B;
kernRight = F;
lastChange = "2024-02-20 15:05:20 +0000";
layers = (
{
hints = (
{
horizontal = 1;
place = (0, 21);
target = up;
type = BottomGhost;
},
{
horizontal = 1;
place = (320, 87);
place = (320, 87);
type = Stem;
},
{
horizontal = 1;
place = (614, 86);
place = (614, 86);
type = Stem;
},
{
place = (79, 98);
place = (79, 98);
type = Stem;
}
);
layerId = m01;
shapes = (
{
closed = 1;
nodes = (
(79,0,l),
(177,0,l),
(177,320,l),
(457,320,l),
(457,407,l),
(177,407,l),
(177,614,l),
(507,614,l),
(507,700,l),
(79,700,l)
);
}
);
width = 545;
},
{
hints = (
{
horizontal = 1;
place = (0, 21);
target = up;
type = BottomGhost;
},
{
horizontal = 1;
place = (320, 87);
place = (320, 87);
type = Stem;
},
{
horizontal = 1;
place = (614, 86);
place = (614, 86);
type = Stem;
},
{
place = (79, 98);
place = (79, 98);
type = Stem;
}
);
layerId = "1E451FFA-12DA-4FF6-A0F2-5663C8724383";
shapes = (
{
closed = 1;
nodes = (
(79,0,l),
(177,0,l),
(177,320,l),
(457,320,l),
(457,407,l),
(177,407,l),
(177,614,l),
(507,614,l),
(507,700,l),
(79,700,l)
);
}
);
width = 545;
}
);
note = F;
unicode = 70;
},
{
glyphname = G;
kernLeft = C;
kernRight = G;
lastChange = "2024-02-20 15:05:20 +0000";
layers = (
{
hints = (
{
horizontal = 1;
place = (-16, 86);
place = (-16, 86);
type = Stem;
},
{
horizontal = 1;
place = (268, 86);
place = (268, 86);
type = Stem;
},
{
horizontal = 1;
place = (629, 86);
place = (629, 86);
type = Stem;
},
{
place = (51, 98);
place = (51, 98);
type = Stem;
},
{
place = (640, 86);
place = (640, 86);
type = Stem;
},
{
horizontal = 1;
place = (0, 21);
target = up;
type = BottomGhost;
},
{
place = (603, 99);
place = (603, 99);
type = Stem;
}
);
layerId = m01;
shapes = (
{
closed = 1;
nodes = (
(514,-16,o),
(608,56,o),
(647,179,c),
(633,0,l),
(726,0,l),
(726,354,l),
(378,354,l),
(378,268,l),
(620,268,l),
(602,152,o),
(504,70,o),
(384,70,cs),
(243,70,o),
(149,182,o),
(149,350,cs),
(149,518,o),
(242,629,o),
(383,629,cs),
(506,629,o),
(596,544,o),
(603,422,c),
(702,432,l),
(692,596,o),
(558,715,o),
(384,715,cs),
(189,715,o),
(51,564,o),
(51,351,cs),
(51,137,o),
(191,-16,o),
(383,-16,cs)
);
}
);
width = 801;
},
{
hints = (
{
horizontal = 1;
place = (-16, 86);
place = (-16, 86);
type = Stem;
},
{
horizontal = 1;
place = (268, 86);
place = (268, 86);
type = Stem;
},
{
horizontal = 1;
place = (629, 86);
place = (629, 86);
type = Stem;
},
{
place = (51, 98);
place = (51, 98);
type = Stem;
},
{
place = (640, 86);
place = (640, 86);
type = Stem;
},
{
horizontal = 1;
place = (0, 21);
target = up;
type = BottomGhost;
},
{
place = (603, 99);
place = (603, 99);
type = Stem;
}
);
layerId = "1E451FFA-12DA-4FF6-A0F2-5663C8724383";
shapes = (
{
closed = 1;
nodes = (
(514,-16,o),
(608,56,o),
(647,179,c),
(633,0,l),
(726,0,l),
(726,354,l),
(378,354,l),
(378,268,l),
(620,268,l),
(602,152,o),
(504,70,o),
(384,70,cs),
(243,70,o),
(149,182,o),
(149,350,cs),
(149,518,o),
(242,629,o),
(383,629,cs),
(506,629,o),
(596,544,o),
(603,422,c),
(702,432,l),
(692,596,o),
(558,715,o),
(384,715,cs),
(189,715,o),
(51,564,o),
(51,351,cs),
(51,137,o),
(191,-16,o),
(383,-16,cs)
);
}
);
width = 801;
}
);
note = G;
unicode = 71;
},
{
glyphname = Gbreve;
kernLeft = C;
kernRight = G;
lastChange = "2024-02-20 15:05:20 +0000";
layers = (
{
hints = (
{
horizontal = 1;
place = (-16, 86);
place = (-16, 86);
type = Stem;
},
{
horizontal = 1;
place = (268, 86);
place = (268, 86);
type = Stem;
},
{
horizontal = 1;
place = (629, 86);
place = (629, 86);
type = Stem;
},
{
horizontal = 1;
place = (780, 74);
place = (780, 74);
type = Stem;
},
{
place = (51, 98);
place = (51, 98);
type = Stem;
},
{
place = (640, 86);
place = (640, 86);
type = Stem;
},
{
horizontal = 1;
place = (0, 21);
target = up;
type = BottomGhost;
},
{
place = (603, 99);
place = (603, 99);
type = Stem;
},
{
place = (233, 74);
place = (233, 74);
type = Stem;
},
{
place = (472, 74);
place = (472, 74);
type = Stem;
}
);
layerId = m01;
shapes = (
{
closed = 1;
nodes = (
(514,-16,o),
(608,56,o),
(647,179,c),
(633,0,l),
(726,0,l),
(726,354,l),
(378,354,l),
(378,268,l),
(620,268,l),
(602,152,o),
(504,70,o),
(384,70,cs),
(243,70,o),
(149,182,o),
(149,350,cs),
(149,518,o),
(242,629,o),
(383,629,cs),
(506,629,o),
(596,544,o),
(603,422,c),
(702,432,l),
(692,596,o),
(558,715,o),
(384,715,cs),
(189,715,o),
(51,564,o),
(51,351,cs),
(51,137,o),
(191,-16,o),
(383,-16,cs)
);
},
{
closed = 1;
nodes = (
(233,937,l),
(233,847,o),
(302,780,o),
(390,780,cs),
(476,780,o),
(546,847,o),
(546,937,c),
(472,937,l),
(471,890,o),
(435,854,o),
(390,854,cs),
(344,854,o),
(308,890,o),
(307,937,c)
);
}
);
width = 801;
},
{
hints = (
{
horizontal = 1;
place = (-16, 86);
place = (-16, 86);
type = Stem;
},
{
horizontal = 1;
place = (268, 86);
place = (268, 86);
type = Stem;
},
{
horizontal = 1;
place = (629, 86);
place = (629, 86);
type = Stem;
},
{
horizontal = 1;
place = (780, 74);
place = (780, 74);
type = Stem;
},
{
place = (51, 98);
place = (51, 98);
type = Stem;
},
{
place = (640, 86);
place = (640, 86);
type = Stem;
},
{
horizontal = 1;
place = (0, 21);
target = up;
type = BottomGhost;
},
{
place = (603, 99);
place = (603, 99);
type = Stem;
},
{
place = (233, 74);
place = (233, 74);
type = Stem;
},
{
place = (472, 74);
place = (472, 74);
type = Stem;
}
);
layerId = "1E451FFA-12DA-4FF6-A0F2-5663C8724383";
shapes = (
{
closed = 1;
nodes = (
(514,-16,o),
(608,56,o),
(647,179,c),
(633,0,l),
(726,0,l),
(726,354,l),
(378,354,l),
(378,268,l),
(620,268,l),
(602,152,o),
(504,70,o),
(384,70,cs),
(243,70,o),
(149,182,o),
(149,350,cs),
(149,518,o),
(242,629,o),
(383,629,cs),
(506,629,o),
(596,544,o),
(603,422,c),
(702,432,l),
(692,596,o),
(558,715,o),
(384,715,cs),
(189,715,o),
(51,564,o),
(51,351,cs),
(51,137,o),
(191,-16,o),
(383,-16,cs)
);
},
{
closed = 1;
nodes = (
(233,937,l),
(233,847,o),
(302,780,o),
(390,780,cs),
(476,780,o),
(546,847,o),
(546,937,c),
(472,937,l),
(471,890,o),
(435,854,o),
(390,854,cs),
(344,854,o),
(308,890,o),
(307,937,c)
);
}
);
width = 801;
}
);
note = Gbreve;
unicode = 286;
},
{
glyphname = Gcircumflex;
kernLeft = C;
kernRight = G;
lastChange = "2024-02-20 15:05:20 +0000";
layers = (
{
hints = (
{
horizontal = 1;
place = (-16, 86);
place = (-16, 86);
type = Stem;
},
{
horizontal = 1;
place = (268, 86);
place = (268, 86);
type = Stem;
},
{
horizontal = 1;
place = (629, 86);
place = (629, 86);
type = Stem;
},
{
horizontal = 1;
place = (780, 147);
place = (780, 147);
type = Stem;
},
{
place = (51, 98);
place = (51, 98);
type = Stem;
},
{
place = (640, 86);
place = (640, 86);
type = Stem;
},
{
horizontal = 1;
place = (0, 21);
target = up;
type = BottomGhost;
},
{
place = (603, 99);
place = (603, 99);
type = Stem;
},
{
horizontal = 1;
place = (887, 40);
place = (887, 40);
type = Stem;
}
);
layerId = m01;
shapes = (
{
closed = 1;
nodes = (
(514,-16,o),
(608,56,o),
(647,179,c),
(633,0,l),
(726,0,l),
(726,354,l),
(378,354,l),
(378,268,l),
(620,268,l),
(602,152,o),
(504,70,o),
(384,70,cs),
(243,70,o),
(149,182,o),
(149,350,cs),
(149,518,o),
(242,629,o),
(383,629,cs),
(506,629,o),
(596,544,o),
(603,422,c),
(702,432,l),
(692,596,o),
(558,715,o),
(384,715,cs),
(189,715,o),
(51,564,o),
(51,351,cs),
(51,137,o),
(191,-16,o),
(383,-16,cs)
);
},
{
closed = 1;
nodes = (
(243,780,l),
(326,780,l),
(389,887,l),
(452,780,l),
(535,780,l),
(461,927,l),
(317,927,l)
);
}
);
width = 801;
},
{
hints = (
{
horizontal = 1;
place = (-16, 86);
place = (-16, 86);
type = Stem;
},
{
horizontal = 1;
place = (268, 86);
place = (268, 86);
type = Stem;
},
{
horizontal = 1;
place = (629, 86);
place = (629, 86);
type = Stem;
},
{
horizontal = 1;
place = (780, 147);
place = (780, 147);
type = Stem;
},
{
place = (51, 98);
place = (51, 98);
type = Stem;
},
{
place = (640, 86);
place = (640, 86);
type = Stem;
},
{
horizontal = 1;
place = (0, 21);
target = up;
type = BottomGhost;
},
{
place = (603, 99);
place = (603, 99);
type = Stem;
},
{
horizontal = 1;
place = (887, 40);
place = (887, 40);
type = Stem;
}
);
layerId = "1E451FFA-12DA-4FF6-A0F2-5663C8724383";
shapes = (
{
closed = 1;
nodes = (
(514,-16,o),
(608,56,o),
(647,179,c),
(633,0,l),
(726,0,l),
(726,354,l),
(378,354,l),
(378,268,l),
(620,268,l),
(602,152,o),
(504,70,o),
(384,70,cs),
(243,70,o),
(149,182,o),
(149,350,cs),
(149,518,o),
(242,629,o),
(383,629,cs),
(506,629,o),
(596,544,o),
(603,422,c),
(702,432,l),
(692,596,o),
(558,715,o),
(384,715,cs),
(189,715,o),
(51,564,o),
(51,351,cs),
(51,137,o),
(191,-16,o),
(383,-16,cs)
);
},
{
closed = 1;
nodes = (
(243,780,l),
(326,780,l),
(389,887,l),
(452,780,l),
(535,780,l),
(461,927,l),
(317,927,l)
);
}
);
width = 801;
}
);
note = Gcircumflex;
unicode = 284;
},
{
glyphname = uni0122;
kernLeft = C;
kernRight = G;
lastChange = "2024-02-20 15:05:20 +0000";
layers = (
{
hints = (
{
horizontal = 1;
place = (-254, 53);
place = (-254, 53);
type = Stem;
},
{
horizontal = 1;
place = (-147, 87);
place = (-147, 87);
type = Stem;
},
{
horizontal = 1;
place = (-16, 86);
place = (-16, 86);
type = Stem;
},
{
horizontal = 1;
place = (268, 86);
place = (268, 86);
type = Stem;
},
{
horizontal = 1;
place = (629, 86);
place = (629, 86);
type = Stem;
},
{
place = (51, 98);
place = (51, 98);
type = Stem;
},
{
place = (335, 116);
place = (335, 116);
type = Stem;
},
{
place = (640, 86);
place = (640, 86);
type = Stem;
},
{
horizontal = 1;
place = (0, 21);
target = up;
type = BottomGhost;
},
{
place = (603, 99);
place = (603, 99);
type = Stem;
},
{
place = (393, 58);
place = (393, 58);
type = Stem;
}
);
layerId = m01;
shapes = (
{
closed = 1;
nodes = (
(514,-16,o),
(608,56,o),
(647,179,c),
(633,0,l),
(726,0,l),
(726,354,l),
(378,354,l),
(378,268,l),
(620,268,l),
(602,152,o),
(504,70,o),
(384,70,cs),
(243,70,o),
(149,182,o),
(149,350,cs),
(149,518,o),
(242,629,o),
(383,629,cs),
(506,629,o),
(596,544,o),
(603,422,c),
(702,432,l),
(692,596,o),
(558,715,o),
(384,715,cs),
(189,715,o),
(51,564,o),
(51,351,cs),
(51,137,o),
(191,-16,o),
(383,-16,cs)
);
},
{
closed = 1;
nodes = (
(325,-254,l),
(407,-254,o),
(451,-217,o),
(451,-147,cs),
(451,-60,l),
(335,-60,l),
(335,-147,l),
(393,-147,l),
(393,-187,o),
(375,-201,o),
(325,-201,c)
);
}
);
width = 801;
},
{
hints = (
{
horizontal = 1;
place = (-254, 53);
place = (-254, 53);
type = Stem;
},
{
horizontal = 1;
place = (-147, 87);
place = (-147, 87);
type = Stem;
},
{
horizontal = 1;
place = (-16, 86);
place = (-16, 86);
type = Stem;
},
{
horizontal = 1;
place = (268, 86);
place = (268, 86);
type = Stem;
},
{
horizontal = 1;
place = (629, 86);
place = (629, 86);
type = Stem;
},
{
place = (51, 98);
place = (51, 98);
type = Stem;
},
{
place = (335, 116);
place = (335, 116);
type = Stem;
},
{
place = (640, 86);
place = (640, 86);
type = Stem;
},
{
horizontal = 1;
place = (0, 21);
target = up;
type = BottomGhost;
},
{
place = (603, 99);
place = (603, 99);
type = Stem;
},
{
place = (393, 58);
place = (393, 58);
type = Stem;
}
);
layerId = "1E451FFA-12DA-4FF6-A0F2-5663C8724383";
shapes = (
{
closed = 1;
nodes = (
(514,-16,o),
(608,56,o),
(647,179,c),
(633,0,l),
(726,0,l),
(726,354,l),
(378,354,l),
(378,268,l),
(620,268,l),
(602,152,o),
(504,70,o),
(384,70,cs),
(243,70,o),
(149,182,o),
(149,350,cs),
(149,518,o),
(242,629,o),
(383,629,cs),
(506,629,o),
(596,544,o),
(603,422,c),
(702,432,l),
(692,596,o),
(558,715,o),
(384,715,cs),
(189,715,o),
(51,564,o),
(51,351,cs),
(51,137,o),
(191,-16,o),
(383,-16,cs)
);
},
{
closed = 1;
nodes = (
(325,-254,l),
(407,-254,o),
(451,-217,o),
(451,-147,cs),
(451,-60,l),
(335,-60,l),
(335,-147,l),
(393,-147,l),
(393,-187,o),
(375,-201,o),
(325,-201,c)
);
}
);
width = 801;
}
);
note = uni0122;
unicode = 290;
},
{
glyphname = Gdotaccent;
kernLeft = C;
kernRight = G;
lastChange = "2024-02-20 15:05:20 +0000";
layers = (
{
hints = (
{
horizontal = 1;
place = (-16, 86);
place = (-16, 86);
type = Stem;
},
{
horizontal = 1;
place = (268, 86);
place = (268, 86);
type = Stem;
},
{
horizontal = 1;
place = (629, 86);
place = (629, 86);
type = Stem;
},
{
horizontal = 1;
place = (777, 106);
place = (777, 106);
type = Stem;
},
{
place = (51, 98);
place = (51, 98);
type = Stem;
},
{
place = (331, 116);
place = (331, 116);
type = Stem;
},
{
place = (640, 86);
place = (640, 86);
type = Stem;
},
{
horizontal = 1;
place = (0, 21);
target = up;
type = BottomGhost;
},
{
place = (603, 99);
place = (603, 99);
type = Stem;
}
);
layerId = m01;
shapes = (
{
closed = 1;
nodes = (
(514,-16,o),
(608,56,o),
(647,179,c),
(633,0,l),
(726,0,l),
(726,354,l),
(378,354,l),
(378,268,l),
(620,268,l),
(602,152,o),
(504,70,o),
(384,70,cs),
(243,70,o),
(149,182,o),
(149,350,cs),
(149,518,o),
(242,629,o),
(383,629,cs),
(506,629,o),
(596,544,o),
(603,422,c),
(702,432,l),
(692,596,o),
(558,715,o),
(384,715,cs),
(189,715,o),
(51,564,o),
(51,351,cs),
(51,137,o),
(191,-16,o),
(383,-16,cs)
);
},
{
closed = 1;
nodes = (
(331,777,l),
(447,777,l),
(447,883,l),
(331,883,l)
);
}
);
width = 801;
},
{
hints = (
{
horizontal = 1;
place = (-16, 86);
place = (-16, 86);
type = Stem;
},
{
horizontal = 1;
place = (268, 86);
place = (268, 86);
type = Stem;
},
{
horizontal = 1;
place = (629, 86);
place = (629, 86);
type = Stem;
},
{
horizontal = 1;
place = (777, 106);
place = (777, 106);
type = Stem;
},
{
place = (51, 98);
place = (51, 98);
type = Stem;
},
{
place = (331, 116);
place = (331, 116);
type = Stem;
},
{
place = (640, 86);
place = (640, 86);
type = Stem;
},
{
horizontal = 1;
place = (0, 21);
target = up;
type = BottomGhost;
},
{
place = (603, 99);
place = (603, 99);
type = Stem;
}
);
layerId = "1E451FFA-12DA-4FF6-A0F2-5663C8724383";
shapes = (
{
closed = 1;
nodes = (
(514,-16,o),
(608,56,o),
(647,179,c),
(633,0,l),
(726,0,l),
(726,354,l),
(378,354,l),
(378,268,l),
(620,268,l),
(602,152,o),
(504,70,o),
(384,70,cs),
(243,70,o),
(149,182,o),
(149,350,cs),
(149,518,o),
(242,629,o),
(383,629,cs),
(506,629,o),
(596,544,o),
(603,422,c),
(702,432,l),
(692,596,o),
(558,715,o),
(384,715,cs),
(189,715,o),
(51,564,o),
(51,351,cs),
(51,137,o),
(191,-16,o),
(383,-16,cs)
);
},
{
closed = 1;
nodes = (
(331,777,l),
(447,777,l),
(447,883,l),
(331,883,l)
);
}
);
width = 801;
}
);
note = Gdotaccent;
unicode = 288;
},
{
glyphname = uni1E20;
kernLeft = C;
kernRight = G;
lastChange = "2024-02-20 15:05:20 +0000";
layers = (
{
hints = (
{
horizontal = 1;
place = (-16, 86);
place = (-16, 86);
type = Stem;
},
{
horizontal = 1;
place = (268, 86);
place = (268, 86);
type = Stem;
},
{
horizontal = 1;
place = (629, 86);
place = (629, 86);
type = Stem;
},
{
horizontal = 1;
place = (777, 76);
place = (777, 76);
type = Stem;
},
{
place = (51, 98);
place = (51, 98);
type = Stem;
},
{
place = (640, 86);
place = (640, 86);
type = Stem;
},
{
horizontal = 1;
place = (0, 21);
target = up;
type = BottomGhost;
},
{
place = (603, 99);
place = (603, 99);
type = Stem;
}
);
layerId = m01;
shapes = (
{
closed = 1;
nodes = (
(514,-16,o),
(608,56,o),
(647,179,c),
(633,0,l),
(726,0,l),
(726,354,l),
(378,354,l),
(378,268,l),
(620,268,l),
(602,152,o),
(504,70,o),
(384,70,cs),
(243,70,o),
(149,182,o),
(149,350,cs),
(149,518,o),
(242,629,o),
(383,629,cs),
(506,629,o),
(596,544,o),
(603,422,c),
(702,432,l),
(692,596,o),
(558,715,o),
(384,715,cs),
(189,715,o),
(51,564,o),
(51,351,cs),
(51,137,o),
(191,-16,o),
(383,-16,cs)
);
},
{
closed = 1;
nodes = (
(237,777,l),
(542,777,l),
(542,853,l),
(237,853,l)
);
}
);
width = 801;
},
{
hints = (
{
horizontal = 1;
place = (-16, 86);
place = (-16, 86);
type = Stem;
},
{
horizontal = 1;
place = (268, 86);
place = (268, 86);
type = Stem;
},
{
horizontal = 1;
place = (629, 86);
place = (629, 86);
type = Stem;
},
{
horizontal = 1;
place = (777, 76);
place = (777, 76);
type = Stem;
},
{
place = (51, 98);
place = (51, 98);
type = Stem;
},
{
place = (640, 86);
place = (640, 86);
type = Stem;
},
{
horizontal = 1;
place = (0, 21);
target = up;
type = BottomGhost;
},
{
place = (603, 99);
place = (603, 99);
type = Stem;
}
);
layerId = "1E451FFA-12DA-4FF6-A0F2-5663C8724383";
shapes = (
{
closed = 1;
nodes = (
(514,-16,o),
(608,56,o),
(647,179,c),
(633,0,l),
(726,0,l),
(726,354,l),
(378,354,l),
(378,268,l),
(620,268,l),
(602,152,o),
(504,70,o),
(384,70,cs),
(243,70,o),
(149,182,o),
(149,350,cs),
(149,518,o),
(242,629,o),
(383,629,cs),
(506,629,o),
(596,544,o),
(603,422,c),
(702,432,l),
(692,596,o),
(558,715,o),
(384,715,cs),
(189,715,o),
(51,564,o),
(51,351,cs),
(51,137,o),
(191,-16,o),
(383,-16,cs)
);
},
{
closed = 1;
nodes = (
(237,777,l),
(542,777,l),
(542,853,l),
(237,853,l)
);
}
);
width = 801;
}
);
note = uni1E20;
unicode = 7712;
},
{
glyphname = H;
kernLeft = B;
kernRight = H;
lastChange = "2024-02-20 15:05:20 +0000";
layers = (
{
hints = (
{
horizontal = 1;
place = (0, 21);
target = up;
type = BottomGhost;
},
{
horizontal = 1;
place = (320, 87);
place = (320, 87);
type = Stem;
},
{
place = (79, 98);
place = (79, 98);
type = Stem;
},
{
place = (497, 98);
place = (497, 98);
type = Stem;
}
);
layerId = m01;
shapes = (
{
closed = 1;
nodes = (
(79,0,l),
(177,0,l),
(177,320,l),
(497,320,l),
(497,0,l),
(595,0,l),
(595,700,l),
(497,700,l),
(497,407,l),
(177,407,l),
(177,700,l),
(79,700,l)
);
}
);
width = 675;
},
{
hints = (
{
horizontal = 1;
place = (0, 21);
target = up;
type = BottomGhost;
},
{
horizontal = 1;
place = (320, 87);
place = (320, 87);
type = Stem;
},
{
place = (79, 98);
place = (79, 98);
type = Stem;
},
{
place = (497, 98);
place = (497, 98);
type = Stem;
}
);
layerId = "1E451FFA-12DA-4FF6-A0F2-5663C8724383";
shapes = (
{
closed = 1;
nodes = (
(79,0,l),
(177,0,l),
(177,320,l),
(497,320,l),
(497,0,l),
(595,0,l),
(595,700,l),
(497,700,l),
(497,407,l),
(177,407,l),
(177,700,l),
(79,700,l)
);
}
);
width = 675;
}
);
note = H;
unicode = 72;
},
{
glyphname = Hbar;
kernLeft = B;
kernRight = H;
lastChange = "2024-02-20 15:05:20 +0000";
layers = (
{
hints = (
{
horizontal = 1;
place = (0, 21);
target = up;
type = BottomGhost;
},
{
horizontal = 1;
place = (320, 87);
place = (320, 87);
type = Stem;
},
{
horizontal = 1;
place = (527, 66);
place = (527, 66);
type = Stem;
},
{
place = (79, 98);
place = (79, 98);
type = Stem;
},
{
place = (497, 98);
place = (497, 98);
type = Stem;
},
{
horizontal = 1;
place = (527, 173);
place = (527, 173);
type = Stem;
}
);
layerId = m01;
shapes = (
{
closed = 1;
nodes = (
(14,527,l),
(79,527,l),
(79,0,l),
(177,0,l),
(177,320,l),
(497,320,l),
(497,0,l),
(595,0,l),
(595,527,l),
(660,527,l),
(660,593,l),
(595,593,l),
(595,700,l),
(497,700,l),
(497,593,l),
(177,593,l),
(177,700,l),
(79,700,l),
(79,593,l),
(14,593,l)
);
},
{
closed = 1;
nodes = (
(177,407,l),
(177,527,l),
(497,527,l),
(497,407,l)
);
}
);
width = 675;
},
{
hints = (
{
horizontal = 1;
place = (0, 21);
target = up;
type = BottomGhost;
},
{
horizontal = 1;
place = (320, 87);
place = (320, 87);
type = Stem;
},
{
horizontal = 1;
place = (527, 66);
place = (527, 66);
type = Stem;
},
{
place = (79, 98);
place = (79, 98);
type = Stem;
},
{
place = (497, 98);
place = (497, 98);
type = Stem;
},
{
horizontal = 1;
place = (527, 173);
place = (527, 173);
type = Stem;
}
);
layerId = "1E451FFA-12DA-4FF6-A0F2-5663C8724383";
shapes = (
{
closed = 1;
nodes = (
(14,527,l),
(79,527,l),
(79,0,l),
(177,0,l),
(177,320,l),
(497,320,l),
(497,0,l),
(595,0,l),
(595,527,l),
(660,527,l),
(660,593,l),
(595,593,l),
(595,700,l),
(497,700,l),
(497,593,l),
(177,593,l),
(177,700,l),
(79,700,l),
(79,593,l),
(14,593,l)
);
},
{
closed = 1;
nodes = (
(177,407,l),
(177,527,l),
(497,527,l),
(497,407,l)
);
}
);
width = 675;
}
);
note = Hbar;
unicode = 294;
},
{
glyphname = Hcircumflex;
kernLeft = B;
kernRight = H;
lastChange = "2024-02-20 15:05:20 +0000";
layers = (
{
hints = (
{
horizontal = 1;
place = (0, 21);
target = up;
type = BottomGhost;
},
{
horizontal = 1;
place = (320, 87);
place = (320, 87);
type = Stem;
},
{
horizontal = 1;
place = (780, 147);
place = (780, 147);
type = Stem;
},
{
place = (79, 98);
place = (79, 98);
type = Stem;
},
{
place = (497, 98);
place = (497, 98);
type = Stem;
},
{
horizontal = 1;
place = (887, 40);
place = (887, 40);
type = Stem;
}
);
layerId = m01;
shapes = (
{
closed = 1;
nodes = (
(79,0,l),
(177,0,l),
(177,320,l),
(497,320,l),
(497,0,l),
(595,0,l),
(595,700,l),
(497,700,l),
(497,407,l),
(177,407,l),
(177,700,l),
(79,700,l)
);
},
{
closed = 1;
nodes = (
(191,780,l),
(274,780,l),
(337,887,l),
(400,780,l),
(483,780,l),
(409,927,l),
(265,927,l)
);
}
);
width = 675;
},
{
hints = (
{
horizontal = 1;
place = (0, 21);
target = up;
type = BottomGhost;
},
{
horizontal = 1;
place = (320, 87);
place = (320, 87);
type = Stem;
},
{
horizontal = 1;
place = (780, 147);
place = (780, 147);
type = Stem;
},
{
place = (79, 98);
place = (79, 98);
type = Stem;
},
{
place = (497, 98);
place = (497, 98);
type = Stem;
},
{
horizontal = 1;
place = (887, 40);
place = (887, 40);
type = Stem;
}
);
layerId = "1E451FFA-12DA-4FF6-A0F2-5663C8724383";
shapes = (
{
closed = 1;
nodes = (
(79,0,l),
(177,0,l),
(177,320,l),
(497,320,l),
(497,0,l),
(595,0,l),
(595,700,l),
(497,700,l),
(497,407,l),
(177,407,l),
(177,700,l),
(79,700,l)
);
},
{
closed = 1;
nodes = (
(191,780,l),
(274,780,l),
(337,887,l),
(400,780,l),
(483,780,l),
(409,927,l),
(265,927,l)
);
}
);
width = 675;
}
);
note = Hcircumflex;
unicode = 292;
},
{
glyphname = I;
kernLeft = B;
kernRight = H;
lastChange = "2024-02-20 15:28:04 +0000";
layers = (
{
hints = (
{
horizontal = 1;
place = (0, 21);
target = up;
type = BottomGhost;
},
{
place = (79, 98);
place = (79, 98);
type = Stem;
}
);
layerId = m01;
shapes = (
{
closed = 1;
nodes = (
(-103,500,l),
(-103,700,l),
(-201,700,l),
(-201,500,l)
);
},
{
closed = 1;
nodes = (
(417,500,l),
(417,0,l),
(515,0,l),
(515,500,l)
);
}
);
width = 257;
},
{
hints = (
{
horizontal = 1;
place = (0, 21);
target = up;
type = BottomGhost;
},
{
place = (79, 98);
place = (79, 98);
type = Stem;
}
);
layerId = "1E451FFA-12DA-4FF6-A0F2-5663C8724383";
shapes = (
{
closed = 1;
nodes = (
(177,500,l),
(177,700,l),
(79,700,l),
(79,500,l)
);
},
{
closed = 1;
nodes = (
(79,500,l),
(79,0,l),
(177,0,l),
(177,500,l)
);
}
);
width = 257;
}
);
note = I;
unicode = 73;
},
{
glyphname = IJ;
kernLeft = B;
kernRight = IJ;
lastChange = "2024-02-20 15:05:20 +0000";
layers = (
{
hints = (
{
horizontal = 1;
place = (0, 21);
target = up;
type = BottomGhost;
},
{
place = (79, 98);
place = (79, 98);
type = Stem;
},
{
place = (298, 98);
place = (298, 98);
type = Stem;
},
{
place = (655, 98);
place = (655, 98);
type = Stem;
},
{
horizontal = 1;
place = (-16, 86);
place = (-16, 86);
type = Stem;
}
);
layerId = m01;
shapes = (
{
closed = 1;
nodes = (
(79,0,l),
(177,0,l),
(177,700,l),
(79,700,l)
);
},
{
closed = 1;
nodes = (
(298,219,ls),
(298,81,o),
(393,-16,o),
(526,-16,cs),
(660,-16,o),
(753,81,o),
(753,219,cs),
(753,700,l),
(655,700,l),
(655,219,ls),
(655,130,o),
(603,70,o),
(526,70,cs),
(449,70,o),
(396,131,o),
(396,219,cs),
(396,270,l),
(298,270,l)
);
}
);
width = 828;
},
{
hints = (
{
horizontal = 1;
place = (0, 21);
target = up;
type = BottomGhost;
},
{
place = (79, 98);
place = (79, 98);
type = Stem;
},
{
place = (298, 98);
place = (298, 98);
type = Stem;
},
{
place = (655, 98);
place = (655, 98);
type = Stem;
},
{
horizontal = 1;
place = (-16, 86);
place = (-16, 86);
type = Stem;
}
);
layerId = "1E451FFA-12DA-4FF6-A0F2-5663C8724383";
shapes = (
{
closed = 1;
nodes = (
(79,0,l),
(177,0,l),
(177,700,l),
(79,700,l)
);
},
{
closed = 1;
nodes = (
(298,219,ls),
(298,81,o),
(393,-16,o),
(526,-16,cs),
(660,-16,o),
(753,81,o),
(753,219,cs),
(753,700,l),
(655,700,l),
(655,219,ls),
(655,130,o),
(603,70,o),
(526,70,cs),
(449,70,o),
(396,131,o),
(396,219,cs),
(396,270,l),
(298,270,l)
);
}
);
width = 828;
}
);
note = IJ;
unicode = 306;
},
{
glyphname = Iacute;
kernLeft = B;
kernRight = H;
lastChange = "2024-02-20 15:05:20 +0000";
layers = (
{
hints = (
{
horizontal = 1;
place = (0, 21);
target = up;
type = BottomGhost;
},
{
horizontal = 1;
place = (780, 147);
place = (780, 147);
type = Stem;
},
{
place = (79, 98);
place = (79, 98);
type = Stem;
}
);
layerId = m01;
shapes = (
{
closed = 1;
nodes = (
(79,0,l),
(177,0,l),
(177,700,l),
(79,700,l)
);
},
{
closed = 1;
nodes = (
(98,780,l),
(170,780,l),
(265,927,l),
(157,927,l)
);
}
);
width = 254;
},
{
hints = (
{
horizontal = 1;
place = (0, 21);
target = up;
type = BottomGhost;
},
{
horizontal = 1;
place = (780, 147);
place = (780, 147);
type = Stem;
},
{
place = (79, 98);
place = (79, 98);
type = Stem;
}
);
layerId = "1E451FFA-12DA-4FF6-A0F2-5663C8724383";
shapes = (
{
closed = 1;
nodes = (
(79,0,l),
(177,0,l),
(177,700,l),
(79,700,l)
);
},
{
closed = 1;
nodes = (
(98,780,l),
(170,780,l),
(265,927,l),
(157,927,l)
);
}
);
width = 254;
}
);
note = Iacute;
unicode = 205;
},
{
glyphname = Ibreve;
kernLeft = B;
kernRight = H;
lastChange = "2024-02-20 15:05:20 +0000";
layers = (
{
hints = (
{
horizontal = 1;
place = (0, 21);
target = up;
type = BottomGhost;
},
{
horizontal = 1;
place = (780, 74);
place = (780, 74);
type = Stem;
},
{
place = (-1, 74);
place = (-1, 74);
type = Stem;
},
{
place = (107, 98);
place = (107, 98);
type = Stem;
},
{
place = (238, 74);
place = (238, 74);
type = Stem;
}
);
layerId = m01;
shapes = (
{
closed = 1;
nodes = (
(107,0,l),
(205,0,l),
(205,700,l),
(107,700,l)
);
},
{
closed = 1;
nodes = (
(-1,937,l),
(-1,847,o),
(68,780,o),
(156,780,cs),
(242,780,o),
(312,847,o),
(312,937,c),
(238,937,l),
(237,890,o),
(201,854,o),
(156,854,cs),
(110,854,o),
(74,890,o),
(73,937,c)
);
}
);
width = 312;
},
{
hints = (
{
horizontal = 1;
place = (0, 21);
target = up;
type = BottomGhost;
},
{
horizontal = 1;
place = (780, 74);
place = (780, 74);
type = Stem;
},
{
place = (-1, 74);
place = (-1, 74);
type = Stem;
},
{
place = (107, 98);
place = (107, 98);
type = Stem;
},
{
place = (238, 74);
place = (238, 74);
type = Stem;
}
);
layerId = "1E451FFA-12DA-4FF6-A0F2-5663C8724383";
shapes = (
{
closed = 1;
nodes = (
(107,0,l),
(205,0,l),
(205,700,l),
(107,700,l)
);
},
{
closed = 1;
nodes = (
(-1,937,l),
(-1,847,o),
(68,780,o),
(156,780,cs),
(242,780,o),
(312,847,o),
(312,937,c),
(238,937,l),
(237,890,o),
(201,854,o),
(156,854,cs),
(110,854,o),
(74,890,o),
(73,937,c)
);
}
);
width = 312;
}
);
note = Ibreve;
unicode = 300;
},
{
glyphname = Icircumflex;
kernLeft = B;
kernRight = H;
lastChange = "2024-02-20 15:05:20 +0000";
layers = (
{
hints = (
{
horizontal = 1;
place = (0, 21);
target = up;
type = BottomGhost;
},
{
horizontal = 1;
place = (780, 147);
place = (780, 147);
type = Stem;
},
{
place = (86, 98);
place = (86, 98);
type = Stem;
},
{
horizontal = 1;
place = (887, 40);
place = (887, 40);
type = Stem;
}
);
layerId = m01;
shapes = (
{
closed = 1;
nodes = (
(86,0,l),
(184,0,l),
(184,700,l),
(86,700,l)
);
},
{
closed = 1;
nodes = (
(-11,780,l),
(72,780,l),
(135,887,l),
(198,780,l),
(281,780,l),
(207,927,l),
(63,927,l)
);
}
);
width = 271;
},
{
hints = (
{
horizontal = 1;
place = (0, 21);
target = up;
type = BottomGhost;
},
{
horizontal = 1;
place = (780, 147);
place = (780, 147);
type = Stem;
},
{
place = (86, 98);
place = (86, 98);
type = Stem;
},
{
horizontal = 1;
place = (887, 40);
place = (887, 40);
type = Stem;
}
);
layerId = "1E451FFA-12DA-4FF6-A0F2-5663C8724383";
shapes = (
{
closed = 1;
nodes = (
(86,0,l),
(184,0,l),
(184,700,l),
(86,700,l)
);
},
{
closed = 1;
nodes = (
(-11,780,l),
(72,780,l),
(135,887,l),
(198,780,l),
(281,780,l),
(207,927,l),
(63,927,l)
);
}
);
width = 271;
}
);
note = Icircumflex;
unicode = 206;
},
{
glyphname = Idieresis;
kernLeft = B;
kernRight = H;
lastChange = "2024-02-20 15:05:20 +0000";
layers = (
{
hints = (
{
horizontal = 1;
place = (0, 21);
target = up;
type = BottomGhost;
},
{
horizontal = 1;
place = (777, 93);
place = (777, 93);
type = Stem;
},
{
place = (74, 98);
place = (74, 98);
type = Stem;
},
{
place = (-6, 97);
place = (-6, 97);
type = Stem;
},
{
place = (156, 97);
place = (156, 97);
type = Stem;
}
);
layerId = m01;
shapes = (
{
closed = 1;
nodes = (
(74,0,l),
(172,0,l),
(172,700,l),
(74,700,l)
);
},
{
closed = 1;
nodes = (
(-6,777,l),
(91,777,l),
(91,870,l),
(-6,870,l)
);
},
{
closed = 1;
nodes = (
(156,777,l),
(253,777,l),
(253,870,l),
(156,870,l)
);
}
);
width = 247;
},
{
hints = (
{
horizontal = 1;
place = (0, 21);
target = up;
type = BottomGhost;
},
{
horizontal = 1;
place = (777, 93);
place = (777, 93);
type = Stem;
},
{
place = (74, 98);
place = (74, 98);
type = Stem;
},
{
place = (-6, 97);
place = (-6, 97);
type = Stem;
},
{
place = (156, 97);
place = (156, 97);
type = Stem;
}
);
layerId = "1E451FFA-12DA-4FF6-A0F2-5663C8724383";
shapes = (
{
closed = 1;
nodes = (
(74,0,l),
(172,0,l),
(172,700,l),
(74,700,l)
);
},
{
closed = 1;
nodes = (
(-6,777,l),
(91,777,l),
(91,870,l),
(-6,870,l)
);
},
{
closed = 1;
nodes = (
(156,777,l),
(253,777,l),
(253,870,l),
(156,870,l)
);
}
);
width = 247;
}
);
note = Idieresis;
unicode = 207;
},
{
glyphname = Idotaccent;
kernLeft = B;
kernRight = H;
lastChange = "2024-02-20 15:05:20 +0000";
layers = (
{
hints = (
{
horizontal = 1;
place = (0, 21);
target = up;
type = BottomGhost;
},
{
horizontal = 1;
place = (777, 106);
place = (777, 106);
type = Stem;
},
{
place = (88, 98);
place = (88, 98);
type = Stem;
},
{
place = (79, 107);
place = (79, 107);
type = Stem;
},
{
place = (88, 107);
place = (88, 107);
type = Stem;
}
);
layerId = m01;
shapes = (
{
closed = 1;
nodes = (
(88,0,l),
(186,0,l),
(186,700,l),
(88,700,l)
);
},
{
closed = 1;
nodes = (
(79,777,l),
(195,777,l),
(195,883,l),
(79,883,l)
);
}
);
width = 275;
},
{
hints = (
{
horizontal = 1;
place = (0, 21);
target = up;
type = BottomGhost;
},
{
horizontal = 1;
place = (777, 106);
place = (777, 106);
type = Stem;
},
{
place = (88, 98);
place = (88, 98);
type = Stem;
},
{
place = (79, 107);
place = (79, 107);
type = Stem;
},
{
place = (88, 107);
place = (88, 107);
type = Stem;
}
);
layerId = "1E451FFA-12DA-4FF6-A0F2-5663C8724383";
shapes = (
{
closed = 1;
nodes = (
(88,0,l),
(186,0,l),
(186,700,l),
(88,700,l)
);
},
{
closed = 1;
nodes = (
(79,777,l),
(195,777,l),
(195,883,l),
(79,883,l)
);
}
);
width = 275;
}
);
note = Idotaccent;
unicode = 304;
},
{
glyphname = Igrave;
kernLeft = B;
kernRight = H;
lastChange = "2024-02-20 15:05:20 +0000";
layers = (
{
hints = (
{
horizontal = 1;
place = (0, 21);
target = up;
type = BottomGhost;
},
{
horizontal = 1;
place = (780, 147);
place = (780, 147);
type = Stem;
},
{
place = (76, 98);
place = (76, 98);
type = Stem;
}
);
layerId = m01;
shapes = (
{
closed = 1;
nodes = (
(76,0,l),
(174,0,l),
(174,700,l),
(76,700,l)
);
},
{
closed = 1;
nodes = (
(-11,927,l),
(84,780,l),
(156,780,l),
(97,927,l)
);
}
);
width = 254;
},
{
hints = (
{
horizontal = 1;
place = (0, 21);
target = up;
type = BottomGhost;
},
{
horizontal = 1;
place = (780, 147);
place = (780, 147);
type = Stem;
},
{
place = (76, 98);
place = (76, 98);
type = Stem;
}
);
layerId = "1E451FFA-12DA-4FF6-A0F2-5663C8724383";
shapes = (
{
closed = 1;
nodes = (
(76,0,l),
(174,0,l),
(174,700,l),
(76,700,l)
);
},
{
closed = 1;
nodes = (
(-11,927,l),
(84,780,l),
(156,780,l),
(97,927,l)
);
}
);
width = 254;
}
);
note = Igrave;
unicode = 204;
},
{
glyphname = Imacron;
kernLeft = B;
kernRight = H;
lastChange = "2024-02-20 15:05:20 +0000";
layers = (
{
hints = (
{
horizontal = 1;
place = (0, 21);
target = up;
type = BottomGhost;
},
{
horizontal = 1;
place = (777, 76);
place = (777, 76);
type = Stem;
},
{
place = (83, 98);
place = (83, 98);
type = Stem;
}
);
layerId = m01;
shapes = (
{
closed = 1;
nodes = (
(83,0,l),
(181,0,l),
(181,700,l),
(83,700,l)
);
},
{
closed = 1;
nodes = (
(-21,777,l),
(284,777,l),
(284,853,l),
(-21,853,l)
);
}
);
width = 264;
},
{
hints = (
{
horizontal = 1;
place = (0, 21);
target = up;
type = BottomGhost;
},
{
horizontal = 1;
place = (777, 76);
place = (777, 76);
type = Stem;
},
{
place = (83, 98);
place = (83, 98);
type = Stem;
}
);
layerId = "1E451FFA-12DA-4FF6-A0F2-5663C8724383";
shapes = (
{
closed = 1;
nodes = (
(83,0,l),
(181,0,l),
(181,700,l),
(83,700,l)
);
},
{
closed = 1;
nodes = (
(-21,777,l),
(284,777,l),
(284,853,l),
(-21,853,l)
);
}
);
width = 264;
}
);
note = Imacron;
unicode = 298;
},
{
glyphname = Iogonek;
kernLeft = B;
kernRight = H;
lastChange = "2024-02-20 15:05:20 +0000";
layers = (
{
hints = (
{
horizontal = 1;
place = (-171, 65);
place = (-171, 65);
type = Stem;
},
{
horizontal = 1;
place = (0, 21);
target = up;
type = BottomGhost;
},
{
place = (69, 98);
place = (69, 98);
type = Stem;
},
{
place = (69, 32);
place = (69, 32);
type = Stem;
},
{
place = (156, 54);
place = (156, 54);
type = Stem;
}
);
layerId = m01;
shapes = (
{
closed = 1;
nodes = (
(69,0,l),
(110,0,l),
(67,-18,o),
(39,-56,o),
(39,-95,cs),
(39,-140,o),
(73,-171,o),
(121,-171,cs),
(173,-171,o),
(210,-134,o),
(210,-82,c),
(156,-72,l),
(156,-92,o),
(145,-106,o),
(127,-106,cs),
(111,-106,o),
(101,-93,o),
(101,-74,cs),
(101,-45,o),
(123,-21,o),
(167,0,c),
(167,700,l),
(69,700,l)
);
}
);
width = 250;
},
{
hints = (
{
horizontal = 1;
place = (-171, 65);
place = (-171, 65);
type = Stem;
},
{
horizontal = 1;
place = (0, 21);
target = up;
type = BottomGhost;
},
{
place = (69, 98);
place = (69, 98);
type = Stem;
},
{
place = (69, 32);
place = (69, 32);
type = Stem;
},
{
place = (156, 54);
place = (156, 54);
type = Stem;
}
);
layerId = "1E451FFA-12DA-4FF6-A0F2-5663C8724383";
shapes = (
{
closed = 1;
nodes = (
(69,0,l),
(110,0,l),
(67,-18,o),
(39,-56,o),
(39,-95,cs),
(39,-140,o),
(73,-171,o),
(121,-171,cs),
(173,-171,o),
(210,-134,o),
(210,-82,c),
(156,-72,l),
(156,-92,o),
(145,-106,o),
(127,-106,cs),
(111,-106,o),
(101,-93,o),
(101,-74,cs),
(101,-45,o),
(123,-21,o),
(167,0,c),
(167,700,l),
(69,700,l)
);
}
);
width = 250;
}
);
note = Iogonek;
unicode = 302;
},
{
glyphname = Itilde;
kernLeft = B;
kernRight = H;
lastChange = "2024-02-20 15:05:20 +0000";
layers = (
{
hints = (
{
horizontal = 1;
place = (0, 21);
target = up;
type = BottomGhost;
},
{
horizontal = 1;
place = (836, 77);
place = (836, 77);
type = Stem;
},
{
place = (-41, 86);
place = (-41, 86);
type = Stem;
},
{
place = (87, 98);
place = (87, 98);
type = Stem;
},
{
horizontal = 1;
place = (780, 77);
place = (780, 77);
type = Stem;
},
{
place = (228, 86);
place = (228, 86);
type = Stem;
}
);
layerId = m01;
shapes = (
{
closed = 1;
nodes = (
(87,0,l),
(185,0,l),
(185,700,l),
(87,700,l)
);
},
{
closed = 1;
nodes = (
(45,780,l),
(45,811,o),
(59,836,o),
(82,836,cs),
(116,836,o),
(139,780,o),
(204,780,cs),
(269,780,o),
(314,835,o),
(314,903,c),
(228,913,l),
(228,882,o),
(214,857,o),
(191,857,cs),
(157,857,o),
(134,913,o),
(70,913,cs),
(4,913,o),
(-41,858,o),
(-41,790,c)
);
}
);
width = 273;
},
{
hints = (
{
horizontal = 1;
place = (0, 21);
target = up;
type = BottomGhost;
},
{
horizontal = 1;
place = (836, 77);
place = (836, 77);
type = Stem;
},
{
place = (-41, 86);
place = (-41, 86);
type = Stem;
},
{
place = (87, 98);
place = (87, 98);
type = Stem;
},
{
horizontal = 1;
place = (780, 77);
place = (780, 77);
type = Stem;
},
{
place = (228, 86);
place = (228, 86);
type = Stem;
}
);
layerId = "1E451FFA-12DA-4FF6-A0F2-5663C8724383";
shapes = (
{
closed = 1;
nodes = (
(87,0,l),
(185,0,l),
(185,700,l),
(87,700,l)
);
},
{
closed = 1;
nodes = (
(45,780,l),
(45,811,o),
(59,836,o),
(82,836,cs),
(116,836,o),
(139,780,o),
(204,780,cs),
(269,780,o),
(314,835,o),
(314,903,c),
(228,913,l),
(228,882,o),
(214,857,o),
(191,857,cs),
(157,857,o),
(134,913,o),
(70,913,cs),
(4,913,o),
(-41,858,o),
(-41,790,c)
);
}
);
width = 273;
}
);
note = Itilde;
unicode = 296;
},
{
glyphname = J;
kernLeft = J;
kernRight = IJ;
lastChange = "2024-02-20 15:05:20 +0000";
layers = (
{
hints = (
{
horizontal = 1;
place = (-16, 86);
place = (-16, 86);
type = Stem;
},
{
place = (37, 98);
place = (37, 98);
type = Stem;
},
{
place = (394, 98);
place = (394, 98);
type = Stem;
}
);
layerId = m01;
shapes = (
{
closed = 1;
nodes = (
(399,-16,o),
(492,81,o),
(492,219,cs),
(492,700,l),
(394,700,l),
(394,219,ls),
(394,130,o),
(342,70,o),
(265,70,cs),
(188,70,o),
(135,131,o),
(135,219,cs),
(135,270,l),
(37,270,l),
(37,219,ls),
(37,81,o),
(132,-16,o),
(265,-16,cs)
);
}
);
width = 567;
},
{
hints = (
{
horizontal = 1;
place = (-16, 86);
place = (-16, 86);
type = Stem;
},
{
place = (37, 98);
place = (37, 98);
type = Stem;
},
{
place = (394, 98);
place = (394, 98);
type = Stem;
}
);
layerId = "1E451FFA-12DA-4FF6-A0F2-5663C8724383";
shapes = (
{
closed = 1;
nodes = (
(399,-16,o),
(492,81,o),
(492,219,cs),
(492,700,l),
(394,700,l),
(394,219,ls),
(394,130,o),
(342,70,o),
(265,70,cs),
(188,70,o),
(135,131,o),
(135,219,cs),
(135,270,l),
(37,270,l),
(37,219,ls),
(37,81,o),
(132,-16,o),
(265,-16,cs)
);
}
);
width = 567;
}
);
note = J;
unicode = 74;
},
{
glyphname = uni004A0301;
kernLeft = J;
kernRight = IJ;
lastChange = "2024-02-20 15:05:20 +0000";
layers = (
{
hints = (
{
horizontal = 1;
place = (-16, 86);
place = (-16, 86);
type = Stem;
},
{
horizontal = 1;
place = (780, 147);
place = (780, 147);
type = Stem;
},
{
place = (37, 98);
place = (37, 98);
type = Stem;
},
{
place = (394, 98);
place = (394, 98);
type = Stem;
}
);
layerId = m01;
shapes = (
{
closed = 1;
nodes = (
(399,-16,o),
(492,81,o),
(492,219,cs),
(492,700,l),
(394,700,l),
(394,219,ls),
(394,130,o),
(342,70,o),
(265,70,cs),
(188,70,o),
(135,131,o),
(135,219,cs),
(135,270,l),
(37,270,l),
(37,219,ls),
(37,81,o),
(132,-16,o),
(265,-16,cs)
);
},
{
closed = 1;
nodes = (
(413,780,l),
(485,780,l),
(580,927,l),
(472,927,l)
);
}
);
width = 564;
},
{
hints = (
{
horizontal = 1;
place = (-16, 86);
place = (-16, 86);
type = Stem;
},
{
horizontal = 1;
place = (780, 147);
place = (780, 147);
type = Stem;
},
{
place = (37, 98);
place = (37, 98);
type = Stem;
},
{
place = (394, 98);
place = (394, 98);
type = Stem;
}
);
layerId = "1E451FFA-12DA-4FF6-A0F2-5663C8724383";
shapes = (
{
closed = 1;
nodes = (
(399,-16,o),
(492,81,o),
(492,219,cs),
(492,700,l),
(394,700,l),
(394,219,ls),
(394,130,o),
(342,70,o),
(265,70,cs),
(188,70,o),
(135,131,o),
(135,219,cs),
(135,270,l),
(37,270,l),
(37,219,ls),
(37,81,o),
(132,-16,o),
(265,-16,cs)
);
},
{
closed = 1;
nodes = (
(413,780,l),
(485,780,l),
(580,927,l),
(472,927,l)
);
}
);
width = 564;
}
);
note = uni004A0301;
},
{
glyphname = Jcircumflex;
kernLeft = J;
kernRight = IJ;
lastChange = "2024-02-20 15:05:20 +0000";
layers = (
{
hints = (
{
horizontal = 1;
place = (-16, 86);
place = (-16, 86);
type = Stem;
},
{
horizontal = 1;
place = (780, 147);
place = (780, 147);
type = Stem;
},
{
place = (37, 98);
place = (37, 98);
type = Stem;
},
{
place = (394, 98);
place = (394, 98);
type = Stem;
},
{
horizontal = 1;
place = (887, 40);
place = (887, 40);
type = Stem;
}
);
layerId = m01;
shapes = (
{
closed = 1;
nodes = (
(399,-16,o),
(492,81,o),
(492,219,cs),
(492,700,l),
(394,700,l),
(394,219,ls),
(394,130,o),
(342,70,o),
(265,70,cs),
(188,70,o),
(135,131,o),
(135,219,cs),
(135,270,l),
(37,270,l),
(37,219,ls),
(37,81,o),
(132,-16,o),
(265,-16,cs)
);
},
{
closed = 1;
nodes = (
(295,780,l),
(378,780,l),
(441,887,l),
(504,780,l),
(587,780,l),
(513,927,l),
(369,927,l)
);
}
);
width = 572;
},
{
hints = (
{
horizontal = 1;
place = (-16, 86);
place = (-16, 86);
type = Stem;
},
{
horizontal = 1;
place = (780, 147);
place = (780, 147);
type = Stem;
},
{
place = (37, 98);
place = (37, 98);
type = Stem;
},
{
place = (394, 98);
place = (394, 98);
type = Stem;
},
{
horizontal = 1;
place = (887, 40);
place = (887, 40);
type = Stem;
}
);
layerId = "1E451FFA-12DA-4FF6-A0F2-5663C8724383";
shapes = (
{
closed = 1;
nodes = (
(399,-16,o),
(492,81,o),
(492,219,cs),
(492,700,l),
(394,700,l),
(394,219,ls),
(394,130,o),
(342,70,o),
(265,70,cs),
(188,70,o),
(135,131,o),
(135,219,cs),
(135,270,l),
(37,270,l),
(37,219,ls),
(37,81,o),
(132,-16,o),
(265,-16,cs)
);
},
{
closed = 1;
nodes = (
(295,780,l),
(378,780,l),
(441,887,l),
(504,780,l),
(587,780,l),
(513,927,l),
(369,927,l)
);
}
);
width = 572;
}
);
note = Jcircumflex;
unicode = 308;
},
{
glyphname = K;
kernLeft = B;
kernRight = K;
lastChange = "2024-02-20 15:05:20 +0000";
layers = (
{
hints = (
{
horizontal = 1;
place = (0, 21);
target = up;
type = BottomGhost;
},
{
place = (79, 98);
place = (79, 98);
type = Stem;
}
);
layerId = m01;
shapes = (
{
closed = 1;
nodes = (
(79,0,l),
(177,0,l),
(177,241,l),
(265,343,l),
(494,0,l),
(606,0,l),
(328,414,l),
(578,700,l),
(466,700,l),
(177,374,l),
(177,700,l),
(79,700,l)
);
}
);
width = 624;
},
{
hints = (
{
horizontal = 1;
place = (0, 21);
target = up;
type = BottomGhost;
},
{
place = (79, 98);
place = (79, 98);
type = Stem;
}
);
layerId = "1E451FFA-12DA-4FF6-A0F2-5663C8724383";
shapes = (
{
closed = 1;
nodes = (
(79,0,l),
(177,0,l),
(177,241,l),
(265,343,l),
(494,0,l),
(606,0,l),
(328,414,l),
(578,700,l),
(466,700,l),
(177,374,l),
(177,700,l),
(79,700,l)
);
}
);
width = 624;
}
);
note = K;
unicode = 75;
},
{
glyphname = uni0136;
kernLeft = B;
kernRight = K;
lastChange = "2024-02-20 15:05:20 +0000";
layers = (
{
hints = (
{
horizontal = 1;
place = (-254, 53);
place = (-254, 53);
type = Stem;
},
{
horizontal = 1;
place = (-147, 87);
place = (-147, 87);
type = Stem;
},
{
horizontal = 1;
place = (0, 21);
target = up;
type = BottomGhost;
},
{
place = (79, 98);
place = (79, 98);
type = Stem;
},
{
place = (290, 116);
place = (290, 116);
type = Stem;
},
{
place = (348, 58);
place = (348, 58);
type = Stem;
}
);
layerId = m01;
shapes = (
{
closed = 1;
nodes = (
(79,0,l),
(177,0,l),
(177,241,l),
(265,343,l),
(494,0,l),
(606,0,l),
(328,414,l),
(578,700,l),
(466,700,l),
(177,374,l),
(177,700,l),
(79,700,l)
);
},
{
closed = 1;
nodes = (
(280,-254,l),
(362,-254,o),
(406,-217,o),
(406,-147,cs),
(406,-60,l),
(290,-60,l),
(290,-147,l),
(348,-147,l),
(348,-187,o),
(330,-201,o),
(280,-201,c)
);
}
);
width = 624;
},
{
hints = (
{
horizontal = 1;
place = (-254, 53);
place = (-254, 53);
type = Stem;
},
{
horizontal = 1;
place = (-147, 87);
place = (-147, 87);
type = Stem;
},
{
horizontal = 1;
place = (0, 21);
target = up;
type = BottomGhost;
},
{
place = (79, 98);
place = (79, 98);
type = Stem;
},
{
place = (290, 116);
place = (290, 116);
type = Stem;
},
{
place = (348, 58);
place = (348, 58);
type = Stem;
}
);
layerId = "1E451FFA-12DA-4FF6-A0F2-5663C8724383";
shapes = (
{
closed = 1;
nodes = (
(79,0,l),
(177,0,l),
(177,241,l),
(265,343,l),
(494,0,l),
(606,0,l),
(328,414,l),
(578,700,l),
(466,700,l),
(177,374,l),
(177,700,l),
(79,700,l)
);
},
{
closed = 1;
nodes = (
(280,-254,l),
(362,-254,o),
(406,-217,o),
(406,-147,cs),
(406,-60,l),
(290,-60,l),
(290,-147,l),
(348,-147,l),
(348,-187,o),
(330,-201,o),
(280,-201,c)
);
}
);
width = 624;
}
);
note = uni0136;
unicode = 310;
},
{
glyphname = L;
kernLeft = B;
kernRight = L;
lastChange = "2024-02-20 15:05:20 +0000";
layers = (
{
hints = (
{
horizontal = 1;
place = (0, 86);
place = (0, 86);
type = Stem;
},
{
place = (79, 98);
place = (79, 98);
type = Stem;
}
);
layerId = m01;
shapes = (
{
closed = 1;
nodes = (
(79,0,l),
(502,0,l),
(502,86,l),
(177,86,l),
(177,700,l),
(79,700,l)
);
}
);
width = 521;
},
{
hints = (
{
horizontal = 1;
place = (0, 86);
place = (0, 86);
type = Stem;
},
{
place = (79, 98);
place = (79, 98);
type = Stem;
}
);
layerId = "1E451FFA-12DA-4FF6-A0F2-5663C8724383";
shapes = (
{
closed = 1;
nodes = (
(79,0,l),
(502,0,l),
(502,86,l),
(177,86,l),
(177,700,l),
(79,700,l)
);
}
);
width = 521;
}
);
note = L;
unicode = 76;
},
{
glyphname = Lacute;
kernLeft = B;
kernRight = L;
lastChange = "2024-02-20 15:05:20 +0000";
layers = (
{
hints = (
{
horizontal = 1;
place = (0, 86);
place = (0, 86);
type = Stem;
},
{
horizontal = 1;
place = (780, 147);
place = (780, 147);
type = Stem;
},
{
place = (79, 98);
place = (79, 98);
type = Stem;
}
);
layerId = m01;
shapes = (
{
closed = 1;
nodes = (
(79,0,l),
(502,0,l),
(502,86,l),
(177,86,l),
(177,700,l),
(79,700,l)
);
},
{
closed = 1;
nodes = (
(98,780,l),
(170,780,l),
(265,927,l),
(157,927,l)
);
}
);
width = 521;
},
{
hints = (
{
horizontal = 1;
place = (0, 86);
place = (0, 86);
type = Stem;
},
{
horizontal = 1;
place = (780, 147);
place = (780, 147);
type = Stem;
},
{
place = (79, 98);
place = (79, 98);
type = Stem;
}
);
layerId = "1E451FFA-12DA-4FF6-A0F2-5663C8724383";
shapes = (
{
closed = 1;
nodes = (
(79,0,l),
(502,0,l),
(502,86,l),
(177,86,l),
(177,700,l),
(79,700,l)
);
},
{
closed = 1;
nodes = (
(98,780,l),
(170,780,l),
(265,927,l),
(157,927,l)
);
}
);
width = 521;
}
);
note = Lacute;
unicode = 313;
},
{
glyphname = Lcaron;
kernLeft = B;
kernRight = L;
lastChange = "2024-02-20 15:05:20 +0000";
layers = (
{
hints = (
{
horizontal = 1;
place = (0, 86);
place = (0, 86);
type = Stem;
},
{
horizontal = 1;
place = (515, 53);
place = (515, 53);
type = Stem;
},
{
horizontal = 1;
place = (622, 87);
place = (622, 87);
type = Stem;
},
{
place = (79, 98);
place = (79, 98);
type = Stem;
},
{
place = (261, 116);
place = (261, 116);
type = Stem;
},
{
place = (319, 58);
place = (319, 58);
type = Stem;
}
);
layerId = m01;
shapes = (
{
closed = 1;
nodes = (
(79,0,l),
(502,0,l),
(502,86,l),
(177,86,l),
(177,700,l),
(79,700,l)
);
},
{
closed = 1;
nodes = (
(251,515,l),
(333,515,o),
(377,552,o),
(377,622,cs),
(377,709,l),
(261,709,l),
(261,622,l),
(319,622,l),
(319,582,o),
(301,568,o),
(251,568,c)
);
}
);
width = 521;
},
{
hints = (
{
horizontal = 1;
place = (0, 86);
place = (0, 86);
type = Stem;
},
{
horizontal = 1;
place = (515, 53);
place = (515, 53);
type = Stem;
},
{
horizontal = 1;
place = (622, 87);
place = (622, 87);
type = Stem;
},
{
place = (79, 98);
place = (79, 98);
type = Stem;
},
{
place = (261, 116);
place = (261, 116);
type = Stem;
},
{
place = (319, 58);
place = (319, 58);
type = Stem;
}
);
layerId = "1E451FFA-12DA-4FF6-A0F2-5663C8724383";
shapes = (
{
closed = 1;
nodes = (
(79,0,l),
(502,0,l),
(502,86,l),
(177,86,l),
(177,700,l),
(79,700,l)
);
},
{
closed = 1;
nodes = (
(251,515,l),
(333,515,o),
(377,552,o),
(377,622,cs),
(377,709,l),
(261,709,l),
(261,622,l),
(319,622,l),
(319,582,o),
(301,568,o),
(251,568,c)
);
}
);
width = 521;
}
);
note = Lcaron;
unicode = 317;
},
{
glyphname = uni013B;
kernLeft = B;
kernRight = L;
lastChange = "2024-02-20 15:05:20 +0000";
layers = (
{
hints = (
{
horizontal = 1;
place = (-254, 53);
place = (-254, 53);
type = Stem;
},
{
horizontal = 1;
place = (-147, 87);
place = (-147, 87);
type = Stem;
},
{
horizontal = 1;
place = (0, 86);
place = (0, 86);
type = Stem;
},
{
place = (79, 98);
place = (79, 98);
type = Stem;
},
{
place = (238, 116);
place = (238, 116);
type = Stem;
},
{
place = (296, 58);
place = (296, 58);
type = Stem;
}
);
layerId = m01;
shapes = (
{
closed = 1;
nodes = (
(79,0,l),
(502,0,l),
(502,86,l),
(177,86,l),
(177,700,l),
(79,700,l)
);
},
{
closed = 1;
nodes = (
(228,-254,l),
(310,-254,o),
(354,-217,o),
(354,-147,cs),
(354,-60,l),
(238,-60,l),
(238,-147,l),
(296,-147,l),
(296,-187,o),
(278,-201,o),
(228,-201,c)
);
}
);
width = 558;
},
{
hints = (
{
horizontal = 1;
place = (-254, 53);
place = (-254, 53);
type = Stem;
},
{
horizontal = 1;
place = (-147, 87);
place = (-147, 87);
type = Stem;
},
{
horizontal = 1;
place = (0, 86);
place = (0, 86);
type = Stem;
},
{
place = (79, 98);
place = (79, 98);
type = Stem;
},
{
place = (238, 116);
place = (238, 116);
type = Stem;
},
{
place = (296, 58);
place = (296, 58);
type = Stem;
}
);
layerId = "1E451FFA-12DA-4FF6-A0F2-5663C8724383";
shapes = (
{
closed = 1;
nodes = (
(79,0,l),
(502,0,l),
(502,86,l),
(177,86,l),
(177,700,l),
(79,700,l)
);
},
{
closed = 1;
nodes = (
(228,-254,l),
(310,-254,o),
(354,-217,o),
(354,-147,cs),
(354,-60,l),
(238,-60,l),
(238,-147,l),
(296,-147,l),
(296,-187,o),
(278,-201,o),
(228,-201,c)
);
}
);
width = 558;
}
);
note = uni013B;
unicode = 315;
},
{
glyphname = Ldot;
kernLeft = B;
kernRight = L;
lastChange = "2024-02-20 15:05:20 +0000";
layers = (
{
hints = (
{
horizontal = 1;
place = (0, 86);
place = (0, 86);
type = Stem;
},
{
horizontal = 1;
place = (295, 110);
place = (295, 110);
type = Stem;
},
{
place = (79, 98);
place = (79, 98);
type = Stem;
},
{
place = (255, 100);
place = (255, 100);
type = Stem;
}
);
layerId = m01;
shapes = (
{
closed = 1;
nodes = (
(79,0,l),
(502,0,l),
(502,86,l),
(177,86,l),
(177,700,l),
(79,700,l)
);
},
{
closed = 1;
nodes = (
(255,295,l),
(355,295,l),
(355,405,l),
(255,405,l)
);
}
);
width = 521;
},
{
hints = (
{
horizontal = 1;
place = (0, 86);
place = (0, 86);
type = Stem;
},
{
horizontal = 1;
place = (295, 110);
place = (295, 110);
type = Stem;
},
{
place = (79, 98);
place = (79, 98);
type = Stem;
},
{
place = (255, 100);
place = (255, 100);
type = Stem;
}
);
layerId = "1E451FFA-12DA-4FF6-A0F2-5663C8724383";
shapes = (
{
closed = 1;
nodes = (
(79,0,l),
(502,0,l),
(502,86,l),
(177,86,l),
(177,700,l),
(79,700,l)
);
},
{
closed = 1;
nodes = (
(255,295,l),
(355,295,l),
(355,405,l),
(255,405,l)
);
}
);
width = 521;
}
);
note = Ldot;
unicode = 319;
},
{
glyphname = Lslash;
kernRight = L;
lastChange = "2024-02-20 15:05:20 +0000";
layers = (
{
hints = (
{
horizontal = 1;
place = (0, 86);
place = (0, 86);
type = Stem;
},
{
place = (99, 98);
place = (99, 98);
type = Stem;
}
);
layerId = m01;
shapes = (
{
closed = 1;
nodes = (
(19,242,l),
(99,275,l),
(99,0,l),
(522,0,l),
(522,86,l),
(197,86,l),
(197,315,l),
(366,384,l),
(366,458,l),
(197,389,l),
(197,700,l),
(99,700,l),
(99,349,l),
(19,316,l)
);
}
);
width = 541;
},
{
hints = (
{
horizontal = 1;
place = (0, 86);
place = (0, 86);
type = Stem;
},
{
place = (99, 98);
place = (99, 98);
type = Stem;
}
);
layerId = "1E451FFA-12DA-4FF6-A0F2-5663C8724383";
shapes = (
{
closed = 1;
nodes = (
(19,242,l),
(99,275,l),
(99,0,l),
(522,0,l),
(522,86,l),
(197,86,l),
(197,315,l),
(366,384,l),
(366,458,l),
(197,389,l),
(197,700,l),
(99,700,l),
(99,349,l),
(19,316,l)
);
}
);
width = 541;
}
);
note = Lslash;
unicode = 321;
},
{
glyphname = M;
kernLeft = B;
kernRight = H;
lastChange = "2024-02-20 15:05:20 +0000";
layers = (
{
hints = (
{
horizontal = 1;
place = (0, 21);
target = up;
type = BottomGhost;
},
{
place = (79, 98);
place = (79, 98);
type = Stem;
},
{
place = (679, 98);
place = (679, 98);
type = Stem;
}
);
layerId = m01;
shapes = (
{
closed = 1;
nodes = (
(79,0,l),
(177,0,l),
(177,567,l),
(386,0,l),
(471,0,l),
(679,564,l),
(679,0,l),
(777,0,l),
(777,700,l),
(636,700,l),
(428,134,l),
(220,700,l),
(79,700,l)
);
}
);
width = 857;
},
{
hints = (
{
horizontal = 1;
place = (0, 21);
target = up;
type = BottomGhost;
},
{
place = (79, 98);
place = (79, 98);
type = Stem;
},
{
place = (679, 98);
place = (679, 98);
type = Stem;
}
);
layerId = "1E451FFA-12DA-4FF6-A0F2-5663C8724383";
shapes = (
{
closed = 1;
nodes = (
(79,0,l),
(177,0,l),
(177,567,l),
(386,0,l),
(471,0,l),
(679,564,l),
(679,0,l),
(777,0,l),
(777,700,l),
(636,700,l),
(428,134,l),
(220,700,l),
(79,700,l)
);
}
);
width = 857;
}
);
note = M;
unicode = 77;
},
{
glyphname = N;
kernLeft = B;
kernRight = H;
lastChange = "2024-02-20 15:05:20 +0000";
layers = (
{
hints = (
{
horizontal = 1;
place = (0, 21);
target = up;
type = BottomGhost;
},
{
place = (79, 99);
place = (79, 99);
type = Stem;
},
{
place = (543, 99);
place = (543, 99);
type = Stem;
},
{
horizontal = 1;
place = (0, 137);
place = (0, 137);
type = Stem;
}
);
layerId = m01;
shapes = (
{
closed = 1;
nodes = (
(79,0,l),
(178,0,l),
(178,563,l),
(526,0,l),
(642,0,l),
(642,700,l),
(543,700,l),
(543,137,l),
(195,700,l),
(79,700,l)
);
}
);
width = 721;
},
{
hints = (
{
horizontal = 1;
place = (0, 21);
target = up;
type = BottomGhost;
},
{
place = (79, 99);
place = (79, 99);
type = Stem;
},
{
place = (543, 99);
place = (543, 99);
type = Stem;
},
{
horizontal = 1;
place = (0, 137);
place = (0, 137);
type = Stem;
}
);
layerId = "1E451FFA-12DA-4FF6-A0F2-5663C8724383";
shapes = (
{
closed = 1;
nodes = (
(79,0,l),
(178,0,l),
(178,563,l),
(526,0,l),
(642,0,l),
(642,700,l),
(543,700,l),
(543,137,l),
(195,700,l),
(79,700,l)
);
}
);
width = 721;
}
);
note = N;
unicode = 78;
},
{
glyphname = Nacute;
kernLeft = B;
kernRight = H;
lastChange = "2024-02-20 15:05:20 +0000";
layers = (
{
hints = (
{
horizontal = 1;
place = (0, 21);
target = up;
type = BottomGhost;
},
{
horizontal = 1;
place = (780, 147);
place = (780, 147);
type = Stem;
},
{
place = (79, 99);
place = (79, 99);
type = Stem;
},
{
place = (543, 99);
place = (543, 99);
type = Stem;
},
{
horizontal = 1;
place = (0, 137);
place = (0, 137);
type = Stem;
}
);
layerId = m01;
shapes = (
{
closed = 1;
nodes = (
(79,0,l),
(178,0,l),
(178,563,l),
(526,0,l),
(642,0,l),
(642,700,l),
(543,700,l),
(543,137,l),
(195,700,l),
(79,700,l)
);
},
{
closed = 1;
nodes = (
(328,780,l),
(400,780,l),
(495,927,l),
(387,927,l)
);
}
);
width = 721;
},
{
hints = (
{
horizontal = 1;
place = (0, 21);
target = up;
type = BottomGhost;
},
{
horizontal = 1;
place = (780, 147);
place = (780, 147);
type = Stem;
},
{
place = (79, 99);
place = (79, 99);
type = Stem;
},
{
place = (543, 99);
place = (543, 99);
type = Stem;
},
{
horizontal = 1;
place = (0, 137);
place = (0, 137);
type = Stem;
}
);
layerId = "1E451FFA-12DA-4FF6-A0F2-5663C8724383";
shapes = (
{
closed = 1;
nodes = (
(79,0,l),
(178,0,l),
(178,563,l),
(526,0,l),
(642,0,l),
(642,700,l),
(543,700,l),
(543,137,l),
(195,700,l),
(79,700,l)
);
},
{
closed = 1;
nodes = (
(328,780,l),
(400,780,l),
(495,927,l),
(387,927,l)
);
}
);
width = 721;
}
);
note = Nacute;
unicode = 323;
},
{
glyphname = Ncaron;
kernLeft = B;
kernRight = H;
lastChange = "2024-02-20 15:05:20 +0000";
layers = (
{
hints = (
{
horizontal = 1;
place = (0, 21);
target = up;
type = BottomGhost;
},
{
horizontal = 1;
place = (783, 147);
place = (783, 147);
type = Stem;
},
{
place = (79, 99);
place = (79, 99);
type = Stem;
},
{
place = (543, 99);
place = (543, 99);
type = Stem;
},
{
horizontal = 1;
place = (0, 137);
place = (0, 137);
type = Stem;
}
);
layerId = m01;
shapes = (
{
closed = 1;
nodes = (
(79,0,l),
(178,0,l),
(178,563,l),
(526,0,l),
(642,0,l),
(642,700,l),
(543,700,l),
(543,137,l),
(195,700,l),
(79,700,l)
);
},
{
closed = 1;
nodes = (
(215,930,l),
(289,783,l),
(433,783,l),
(507,930,l),
(424,930,l),
(361,823,l),
(298,930,l)
);
}
);
width = 721;
},
{
hints = (
{
horizontal = 1;
place = (0, 21);
target = up;
type = BottomGhost;
},
{
horizontal = 1;
place = (783, 147);
place = (783, 147);
type = Stem;
},
{
place = (79, 99);
place = (79, 99);
type = Stem;
},
{
place = (543, 99);
place = (543, 99);
type = Stem;
},
{
horizontal = 1;
place = (0, 137);
place = (0, 137);
type = Stem;
}
);
layerId = "1E451FFA-12DA-4FF6-A0F2-5663C8724383";
shapes = (
{
closed = 1;
nodes = (
(79,0,l),
(178,0,l),
(178,563,l),
(526,0,l),
(642,0,l),
(642,700,l),
(543,700,l),
(543,137,l),
(195,700,l),
(79,700,l)
);
},
{
closed = 1;
nodes = (
(215,930,l),
(289,783,l),
(433,783,l),
(507,930,l),
(424,930,l),
(361,823,l),
(298,930,l)
);
}
);
width = 721;
}
);
note = Ncaron;
unicode = 327;
},
{
glyphname = uni0145;
kernLeft = B;
kernRight = H;
lastChange = "2024-02-20 15:05:20 +0000";
layers = (
{
hints = (
{
horizontal = 1;
place = (-254, 53);
place = (-254, 53);
type = Stem;
},
{
horizontal = 1;
place = (-147, 87);
place = (-147, 87);
type = Stem;
},
{
horizontal = 1;
place = (0, 21);
target = up;
type = BottomGhost;
},
{
place = (79, 99);
place = (79, 99);
type = Stem;
},
{
place = (308, 116);
place = (308, 116);
type = Stem;
},
{
place = (543, 99);
place = (543, 99);
type = Stem;
},
{
horizontal = 1;
place = (0, 137);
place = (0, 137);
type = Stem;
},
{
place = (366, 58);
place = (366, 58);
type = Stem;
}
);
layerId = m01;
shapes = (
{
closed = 1;
nodes = (
(79,0,l),
(178,0,l),
(178,563,l),
(526,0,l),
(642,0,l),
(642,700,l),
(543,700,l),
(543,137,l),
(195,700,l),
(79,700,l)
);
},
{
closed = 1;
nodes = (
(298,-254,l),
(380,-254,o),
(424,-217,o),
(424,-147,cs),
(424,-60,l),
(308,-60,l),
(308,-147,l),
(366,-147,l),
(366,-187,o),
(348,-201,o),
(298,-201,c)
);
}
);
width = 721;
},
{
hints = (
{
horizontal = 1;
place = (-254, 53);
place = (-254, 53);
type = Stem;
},
{
horizontal = 1;
place = (-147, 87);
place = (-147, 87);
type = Stem;
},
{
horizontal = 1;
place = (0, 21);
target = up;
type = BottomGhost;
},
{
place = (79, 99);
place = (79, 99);
type = Stem;
},
{
place = (308, 116);
place = (308, 116);
type = Stem;
},
{
place = (543, 99);
place = (543, 99);
type = Stem;
},
{
horizontal = 1;
place = (0, 137);
place = (0, 137);
type = Stem;
},
{
place = (366, 58);
place = (366, 58);
type = Stem;
}
);
layerId = "1E451FFA-12DA-4FF6-A0F2-5663C8724383";
shapes = (
{
closed = 1;
nodes = (
(79,0,l),
(178,0,l),
(178,563,l),
(526,0,l),
(642,0,l),
(642,700,l),
(543,700,l),
(543,137,l),
(195,700,l),
(79,700,l)
);
},
{
closed = 1;
nodes = (
(298,-254,l),
(380,-254,o),
(424,-217,o),
(424,-147,cs),
(424,-60,l),
(308,-60,l),
(308,-147,l),
(366,-147,l),
(366,-187,o),
(348,-201,o),
(298,-201,c)
);
}
);
width = 721;
}
);
note = uni0145;
unicode = 325;
},
{
glyphname = Ntilde;
kernLeft = B;
kernRight = H;
lastChange = "2024-02-20 15:05:20 +0000";
layers = (
{
hints = (
{
horizontal = 1;
place = (0, 21);
target = up;
type = BottomGhost;
},
{
horizontal = 1;
place = (816, 77);
place = (816, 77);
type = Stem;
},
{
place = (79, 99);
place = (79, 99);
type = Stem;
},
{
place = (543, 99);
place = (543, 99);
type = Stem;
},
{
horizontal = 1;
place = (0, 137);
place = (0, 137);
type = Stem;
},
{
place = (183, 86);
place = (183, 86);
type = Stem;
},
{
horizontal = 1;
place = (760, 77);
place = (760, 77);
type = Stem;
},
{
place = (452, 86);
place = (452, 86);
type = Stem;
}
);
layerId = m01;
shapes = (
{
closed = 1;
nodes = (
(79,0,l),
(178,0,l),
(178,563,l),
(526,0,l),
(642,0,l),
(642,700,l),
(543,700,l),
(543,137,l),
(195,700,l),
(79,700,l)
);
},
{
closed = 1;
nodes = (
(269,760,l),
(269,791,o),
(283,816,o),
(306,816,cs),
(340,816,o),
(363,760,o),
(428,760,cs),
(493,760,o),
(538,815,o),
(538,883,c),
(452,893,l),
(452,862,o),
(438,837,o),
(415,837,cs),
(381,837,o),
(358,893,o),
(294,893,cs),
(228,893,o),
(183,838,o),
(183,770,c)
);
}
);
width = 721;
},
{
hints = (
{
horizontal = 1;
place = (0, 21);
target = up;
type = BottomGhost;
},
{
horizontal = 1;
place = (816, 77);
place = (816, 77);
type = Stem;
},
{
place = (79, 99);
place = (79, 99);
type = Stem;
},
{
place = (543, 99);
place = (543, 99);
type = Stem;
},
{
horizontal = 1;
place = (0, 137);
place = (0, 137);
type = Stem;
},
{
place = (183, 86);
place = (183, 86);
type = Stem;
},
{
horizontal = 1;
place = (760, 77);
place = (760, 77);
type = Stem;
},
{
place = (452, 86);
place = (452, 86);
type = Stem;
}
);
layerId = "1E451FFA-12DA-4FF6-A0F2-5663C8724383";
shapes = (
{
closed = 1;
nodes = (
(79,0,l),
(178,0,l),
(178,563,l),
(526,0,l),
(642,0,l),
(642,700,l),
(543,700,l),
(543,137,l),
(195,700,l),
(79,700,l)
);
},
{
closed = 1;
nodes = (
(269,760,l),
(269,791,o),
(283,816,o),
(306,816,cs),
(340,816,o),
(363,760,o),
(428,760,cs),
(493,760,o),
(538,815,o),
(538,883,c),
(452,893,l),
(452,862,o),
(438,837,o),
(415,837,cs),
(381,837,o),
(358,893,o),
(294,893,cs),
(228,893,o),
(183,838,o),
(183,770,c)
);
}
);
width = 721;
}
);
note = Ntilde;
unicode = 209;
},
{
glyphname = Eng;
kernLeft = B;
kernRight = H;
lastChange = "2024-02-20 15:05:20 +0000";
layers = (
{
hints = (
{
horizontal = 1;
place = (-200, 86);
place = (-200, 86);
type = Stem;
},
{
horizontal = 1;
place = (0, 21);
target = up;
type = BottomGhost;
},
{
place = (79, 99);
place = (79, 99);
type = Stem;
},
{
place = (543, 99);
place = (543, 99);
type = Stem;
},
{
place = (547, 95);
place = (547, 95);
type = Stem;
}
);
layerId = m01;
shapes = (
{
closed = 1;
nodes = (
(397,-200,l),
(492,-200,ls),
(593,-200,o),
(642,-152,o),
(642,-53,cs),
(642,700,l),
(543,700,l),
(543,137,l),
(195,700,l),
(79,700,l),
(79,0,l),
(178,0,l),
(178,563,l),
(526,0,l),
(547,0,l),
(547,-54,ls),
(547,-94,o),
(527,-114,o),
(487,-114,cs),
(397,-114,l)
);
}
);
width = 721;
},
{
hints = (
{
horizontal = 1;
place = (-200, 86);
place = (-200, 86);
type = Stem;
},
{
horizontal = 1;
place = (0, 21);
target = up;
type = BottomGhost;
},
{
place = (79, 99);
place = (79, 99);
type = Stem;
},
{
place = (543, 99);
place = (543, 99);
type = Stem;
},
{
place = (547, 95);
place = (547, 95);
type = Stem;
}
);
layerId = "1E451FFA-12DA-4FF6-A0F2-5663C8724383";
shapes = (
{
closed = 1;
nodes = (
(397,-200,l),
(492,-200,ls),
(593,-200,o),
(642,-152,o),
(642,-53,cs),
(642,700,l),
(543,700,l),
(543,137,l),
(195,700,l),
(79,700,l),
(79,0,l),
(178,0,l),
(178,563,l),
(526,0,l),
(547,0,l),
(547,-54,ls),
(547,-94,o),
(527,-114,o),
(487,-114,cs),
(397,-114,l)
);
}
);
width = 721;
}
);
note = Eng;
unicode = 330;
},
{
glyphname = O;
kernLeft = C;
kernRight = C;
lastChange = "2024-02-20 15:05:20 +0000";
layers = (
{
hints = (
{
horizontal = 1;
place = (-16, 86);
place = (-16, 86);
type = Stem;
},
{
horizontal = 1;
place = (630, 86);
place = (630, 86);
type = Stem;
},
{
place = (51, 98);
place = (51, 98);
type = Stem;
},
{
place = (617, 98);
place = (617, 98);
type = Stem;
}
);
layerId = m01;
shapes = (
{
closed = 1;
nodes = (
(578,-16,o),
(715,135,o),
(715,350,cs),
(715,565,o),
(578,716,o),
(383,716,cs),
(188,716,o),
(51,565,o),
(51,350,cs),
(51,135,o),
(188,-16,o),
(383,-16,cs)
);
},
{
closed = 1;
nodes = (
(149,516,o),
(245,630,o),
(383,630,cs),
(522,630,o),
(617,516,o),
(617,350,cs),
(617,184,o),
(522,70,o),
(383,70,cs),
(245,70,o),
(149,184,o),
(149,350,cs)
);
}
);
width = 767;
},
{
hints = (
{
horizontal = 1;
place = (-16, 86);
place = (-16, 86);
type = Stem;
},
{
horizontal = 1;
place = (630, 86);
place = (630, 86);
type = Stem;
},
{
place = (51, 98);
place = (51, 98);
type = Stem;
},
{
place = (617, 98);
place = (617, 98);
type = Stem;
}
);
layerId = "1E451FFA-12DA-4FF6-A0F2-5663C8724383";
shapes = (
{
closed = 1;
nodes = (
(578,-16,o),
(715,135,o),
(715,350,cs),
(715,565,o),
(578,716,o),
(383,716,cs),
(188,716,o),
(51,565,o),
(51,350,cs),
(51,135,o),
(188,-16,o),
(383,-16,cs)
);
},
{
closed = 1;
nodes = (
(149,516,o),
(245,630,o),
(383,630,cs),
(522,630,o),
(617,516,o),
(617,350,cs),
(617,184,o),
(522,70,o),
(383,70,cs),
(245,70,o),
(149,184,o),
(149,350,cs)
);
}
);
width = 767;
}
);
note = O;
unicode = 79;
},
{
glyphname = Oacute;
kernLeft = C;
kernRight = C;
lastChange = "2024-02-20 15:05:20 +0000";
layers = (
{
hints = (
{
horizontal = 1;
place = (-16, 86);
place = (-16, 86);
type = Stem;
},
{
horizontal = 1;
place = (630, 86);
place = (630, 86);
type = Stem;
},
{
horizontal = 1;
place = (780, 147);
place = (780, 147);
type = Stem;
},
{
place = (51, 98);
place = (51, 98);
type = Stem;
},
{
place = (617, 98);
place = (617, 98);
type = Stem;
}
);
layerId = m01;
shapes = (
{
closed = 1;
nodes = (
(578,-16,o),
(715,135,o),
(715,350,cs),
(715,565,o),
(578,716,o),
(383,716,cs),
(188,716,o),
(51,565,o),
(51,350,cs),
(51,135,o),
(188,-16,o),
(383,-16,cs)
);
},
{
closed = 1;
nodes = (
(149,516,o),
(245,630,o),
(383,630,cs),
(522,630,o),
(617,516,o),
(617,350,cs),
(617,184,o),
(522,70,o),
(383,70,cs),
(245,70,o),
(149,184,o),
(149,350,cs)
);
},
{
closed = 1;
nodes = (
(354,780,l),
(426,780,l),
(521,927,l),
(413,927,l)
);
}
);
width = 767;
},
{
hints = (
{
horizontal = 1;
place = (-16, 86);
place = (-16, 86);
type = Stem;
},
{
horizontal = 1;
place = (630, 86);
place = (630, 86);
type = Stem;
},
{
horizontal = 1;
place = (780, 147);
place = (780, 147);
type = Stem;
},
{
place = (51, 98);
place = (51, 98);
type = Stem;
},
{
place = (617, 98);
place = (617, 98);
type = Stem;
}
);
layerId = "1E451FFA-12DA-4FF6-A0F2-5663C8724383";
shapes = (
{
closed = 1;
nodes = (
(578,-16,o),
(715,135,o),
(715,350,cs),
(715,565,o),
(578,716,o),
(383,716,cs),
(188,716,o),
(51,565,o),
(51,350,cs),
(51,135,o),
(188,-16,o),
(383,-16,cs)
);
},
{
closed = 1;
nodes = (
(149,516,o),
(245,630,o),
(383,630,cs),
(522,630,o),
(617,516,o),
(617,350,cs),
(617,184,o),
(522,70,o),
(383,70,cs),
(245,70,o),
(149,184,o),
(149,350,cs)
);
},
{
closed = 1;
nodes = (
(354,780,l),
(426,780,l),
(521,927,l),
(413,927,l)
);
}
);
width = 767;
}
);
note = Oacute;
unicode = 211;
},
{
glyphname = Obreve;
kernLeft = C;
kernRight = C;
lastChange = "2024-02-20 15:05:20 +0000";
layers = (
{
hints = (
{
horizontal = 1;
place = (-16, 86);
place = (-16, 86);
type = Stem;
},
{
horizontal = 1;
place = (630, 86);
place = (630, 86);
type = Stem;
},
{
horizontal = 1;
place = (780, 74);
place = (780, 74);
type = Stem;
},
{
place = (51, 98);
place = (51, 98);
type = Stem;
},
{
place = (227, 74);
place = (227, 74);
type = Stem;
},
{
place = (466, 74);
place = (466, 74);
type = Stem;
},
{
place = (617, 98);
place = (617, 98);
type = Stem;
}
);
layerId = m01;
shapes = (
{
closed = 1;
nodes = (
(578,-16,o),
(715,135,o),
(715,350,cs),
(715,565,o),
(578,716,o),
(383,716,cs),
(188,716,o),
(51,565,o),
(51,350,cs),
(51,135,o),
(188,-16,o),
(383,-16,cs)
);
},
{
closed = 1;
nodes = (
(149,516,o),
(245,630,o),
(383,630,cs),
(522,630,o),
(617,516,o),
(617,350,cs),
(617,184,o),
(522,70,o),
(383,70,cs),
(245,70,o),
(149,184,o),
(149,350,cs)
);
},
{
closed = 1;
nodes = (
(227,937,l),
(227,847,o),
(296,780,o),
(384,780,cs),
(470,780,o),
(540,847,o),
(540,937,c),
(466,937,l),
(465,890,o),
(429,854,o),
(384,854,cs),
(338,854,o),
(302,890,o),
(301,937,c)
);
}
);
width = 767;
},
{
hints = (
{
horizontal = 1;
place = (-16, 86);
place = (-16, 86);
type = Stem;
},
{
horizontal = 1;
place = (630, 86);
place = (630, 86);
type = Stem;
},
{
horizontal = 1;
place = (780, 74);
place = (780, 74);
type = Stem;
},
{
place = (51, 98);
place = (51, 98);
type = Stem;
},
{
place = (227, 74);
place = (227, 74);
type = Stem;
},
{
place = (466, 74);
place = (466, 74);
type = Stem;
},
{
place = (617, 98);
place = (617, 98);
type = Stem;
}
);
layerId = "1E451FFA-12DA-4FF6-A0F2-5663C8724383";
shapes = (
{
closed = 1;
nodes = (
(578,-16,o),
(715,135,o),
(715,350,cs),
(715,565,o),
(578,716,o),
(383,716,cs),
(188,716,o),
(51,565,o),
(51,350,cs),
(51,135,o),
(188,-16,o),
(383,-16,cs)
);
},
{
closed = 1;
nodes = (
(149,516,o),
(245,630,o),
(383,630,cs),
(522,630,o),
(617,516,o),
(617,350,cs),
(617,184,o),
(522,70,o),
(383,70,cs),
(245,70,o),
(149,184,o),
(149,350,cs)
);
},
{
closed = 1;
nodes = (
(227,937,l),
(227,847,o),
(296,780,o),
(384,780,cs),
(470,780,o),
(540,847,o),
(540,937,c),
(466,937,l),
(465,890,o),
(429,854,o),
(384,854,cs),
(338,854,o),
(302,890,o),
(301,937,c)
);
}
);
width = 767;
}
);
note = Obreve;
unicode = 334;
},
{
glyphname = Ocircumflex;
kernLeft = C;
kernRight = C;
lastChange = "2024-02-20 15:05:20 +0000";
layers = (
{
hints = (
{
horizontal = 1;
place = (-16, 86);
place = (-16, 86);
type = Stem;
},
{
horizontal = 1;
place = (630, 86);
place = (630, 86);
type = Stem;
},
{
horizontal = 1;
place = (780, 147);
place = (780, 147);
type = Stem;
},
{
place = (51, 98);
place = (51, 98);
type = Stem;
},
{
place = (617, 98);
place = (617, 98);
type = Stem;
},
{
horizontal = 1;
place = (887, 40);
place = (887, 40);
type = Stem;
}
);
layerId = m01;
shapes = (
{
closed = 1;
nodes = (
(578,-16,o),
(715,135,o),
(715,350,cs),
(715,565,o),
(578,716,o),
(383,716,cs),
(188,716,o),
(51,565,o),
(51,350,cs),
(51,135,o),
(188,-16,o),
(383,-16,cs)
);
},
{
closed = 1;
nodes = (
(149,516,o),
(245,630,o),
(383,630,cs),
(522,630,o),
(617,516,o),
(617,350,cs),
(617,184,o),
(522,70,o),
(383,70,cs),
(245,70,o),
(149,184,o),
(149,350,cs)
);
},
{
closed = 1;
nodes = (
(237,780,l),
(320,780,l),
(383,887,l),
(446,780,l),
(529,780,l),
(455,927,l),
(311,927,l)
);
}
);
width = 767;
},
{
hints = (
{
horizontal = 1;
place = (-16, 86);
place = (-16, 86);
type = Stem;
},
{
horizontal = 1;
place = (630, 86);
place = (630, 86);
type = Stem;
},
{
horizontal = 1;
place = (780, 147);
place = (780, 147);
type = Stem;
},
{
place = (51, 98);
place = (51, 98);
type = Stem;
},
{
place = (617, 98);
place = (617, 98);
type = Stem;
},
{
horizontal = 1;
place = (887, 40);
place = (887, 40);
type = Stem;
}
);
layerId = "1E451FFA-12DA-4FF6-A0F2-5663C8724383";
shapes = (
{
closed = 1;
nodes = (
(578,-16,o),
(715,135,o),
(715,350,cs),
(715,565,o),
(578,716,o),
(383,716,cs),
(188,716,o),
(51,565,o),
(51,350,cs),
(51,135,o),
(188,-16,o),
(383,-16,cs)
);
},
{
closed = 1;
nodes = (
(149,516,o),
(245,630,o),
(383,630,cs),
(522,630,o),
(617,516,o),
(617,350,cs),
(617,184,o),
(522,70,o),
(383,70,cs),
(245,70,o),
(149,184,o),
(149,350,cs)
);
},
{
closed = 1;
nodes = (
(237,780,l),
(320,780,l),
(383,887,l),
(446,780,l),
(529,780,l),
(455,927,l),
(311,927,l)
);
}
);
width = 767;
}
);
note = Ocircumflex;
unicode = 212;
},
{
glyphname = Odieresis;
kernLeft = C;
kernRight = C;
lastChange = "2024-02-20 15:05:20 +0000";
layers = (
{
hints = (
{
horizontal = 1;
place = (-16, 86);
place = (-16, 86);
type = Stem;
},
{
horizontal = 1;
place = (630, 86);
place = (630, 86);
type = Stem;
},
{
horizontal = 1;
place = (777, 93);
place = (777, 93);
type = Stem;
},
{
place = (51, 98);
place = (51, 98);
type = Stem;
},
{
place = (254, 97);
place = (254, 97);
type = Stem;
},
{
place = (416, 97);
place = (416, 97);
type = Stem;
},
{
place = (617, 98);
place = (617, 98);
type = Stem;
}
);
layerId = m01;
shapes = (
{
closed = 1;
nodes = (
(578,-16,o),
(715,135,o),
(715,350,cs),
(715,565,o),
(578,716,o),
(383,716,cs),
(188,716,o),
(51,565,o),
(51,350,cs),
(51,135,o),
(188,-16,o),
(383,-16,cs)
);
},
{
closed = 1;
nodes = (
(149,516,o),
(245,630,o),
(383,630,cs),
(522,630,o),
(617,516,o),
(617,350,cs),
(617,184,o),
(522,70,o),
(383,70,cs),
(245,70,o),
(149,184,o),
(149,350,cs)
);
},
{
closed = 1;
nodes = (
(254,777,l),
(351,777,l),
(351,870,l),
(254,870,l)
);
},
{
closed = 1;
nodes = (
(416,777,l),
(513,777,l),
(513,870,l),
(416,870,l)
);
}
);
width = 767;
},
{
hints = (
{
horizontal = 1;
place = (-16, 86);
place = (-16, 86);
type = Stem;
},
{
horizontal = 1;
place = (630, 86);
place = (630, 86);
type = Stem;
},
{
horizontal = 1;
place = (777, 93);
place = (777, 93);
type = Stem;
},
{
place = (51, 98);
place = (51, 98);
type = Stem;
},
{
place = (254, 97);
place = (254, 97);
type = Stem;
},
{
place = (416, 97);
place = (416, 97);
type = Stem;
},
{
place = (617, 98);
place = (617, 98);
type = Stem;
}
);
layerId = "1E451FFA-12DA-4FF6-A0F2-5663C8724383";
shapes = (
{
closed = 1;
nodes = (
(578,-16,o),
(715,135,o),
(715,350,cs),
(715,565,o),
(578,716,o),
(383,716,cs),
(188,716,o),
(51,565,o),
(51,350,cs),
(51,135,o),
(188,-16,o),
(383,-16,cs)
);
},
{
closed = 1;
nodes = (
(149,516,o),
(245,630,o),
(383,630,cs),
(522,630,o),
(617,516,o),
(617,350,cs),
(617,184,o),
(522,70,o),
(383,70,cs),
(245,70,o),
(149,184,o),
(149,350,cs)
);
},
{
closed = 1;
nodes = (
(254,777,l),
(351,777,l),
(351,870,l),
(254,870,l)
);
},
{
closed = 1;
nodes = (
(416,777,l),
(513,777,l),
(513,870,l),
(416,870,l)
);
}
);
width = 767;
}
);
note = Odieresis;
unicode = 214;
},
{
glyphname = Ograve;
kernLeft = C;
kernRight = C;
lastChange = "2024-02-20 15:05:20 +0000";
layers = (
{
hints = (
{
horizontal = 1;
place = (-16, 86);
place = (-16, 86);
type = Stem;
},
{
horizontal = 1;
place = (630, 86);
place = (630, 86);
type = Stem;
},
{
horizontal = 1;
place = (780, 147);
place = (780, 147);
type = Stem;
},
{
place = (51, 98);
place = (51, 98);
type = Stem;
},
{
place = (617, 98);
place = (617, 98);
type = Stem;
}
);
layerId = m01;
shapes = (
{
closed = 1;
nodes = (
(578,-16,o),
(715,135,o),
(715,350,cs),
(715,565,o),
(578,716,o),
(383,716,cs),
(188,716,o),
(51,565,o),
(51,350,cs),
(51,135,o),
(188,-16,o),
(383,-16,cs)
);
},
{
closed = 1;
nodes = (
(149,516,o),
(245,630,o),
(383,630,cs),
(522,630,o),
(617,516,o),
(617,350,cs),
(617,184,o),
(522,70,o),
(383,70,cs),
(245,70,o),
(149,184,o),
(149,350,cs)
);
},
{
closed = 1;
nodes = (
(247,927,l),
(342,780,l),
(414,780,l),
(355,927,l)
);
}
);
width = 767;
},
{
hints = (
{
horizontal = 1;
place = (-16, 86);
place = (-16, 86);
type = Stem;
},
{
horizontal = 1;
place = (630, 86);
place = (630, 86);
type = Stem;
},
{
horizontal = 1;
place = (780, 147);
place = (780, 147);
type = Stem;
},
{
place = (51, 98);
place = (51, 98);
type = Stem;
},
{
place = (617, 98);
place = (617, 98);
type = Stem;
}
);
layerId = "1E451FFA-12DA-4FF6-A0F2-5663C8724383";
shapes = (
{
closed = 1;
nodes = (
(578,-16,o),
(715,135,o),
(715,350,cs),
(715,565,o),
(578,716,o),
(383,716,cs),
(188,716,o),
(51,565,o),
(51,350,cs),
(51,135,o),
(188,-16,o),
(383,-16,cs)
);
},
{
closed = 1;
nodes = (
(149,516,o),
(245,630,o),
(383,630,cs),
(522,630,o),
(617,516,o),
(617,350,cs),
(617,184,o),
(522,70,o),
(383,70,cs),
(245,70,o),
(149,184,o),
(149,350,cs)
);
},
{
closed = 1;
nodes = (
(247,927,l),
(342,780,l),
(414,780,l),
(355,927,l)
);
}
);
width = 767;
}
);
note = Ograve;
unicode = 210;
},
{
glyphname = Ohungarumlaut;
kernLeft = C;
kernRight = C;
lastChange = "2024-02-20 15:05:20 +0000";
layers = (
{
hints = (
{
horizontal = 1;
place = (-16, 86);
place = (-16, 86);
type = Stem;
},
{
horizontal = 1;
place = (630, 86);
place = (630, 86);
type = Stem;
},
{
horizontal = 1;
place = (780, 147);
place = (780, 147);
type = Stem;
},
{
place = (51, 98);
place = (51, 98);
type = Stem;
},
{
place = (617, 98);
place = (617, 98);
type = Stem;
}
);
layerId = m01;
shapes = (
{
closed = 1;
nodes = (
(578,-16,o),
(715,135,o),
(715,350,cs),
(715,565,o),
(578,716,o),
(383,716,cs),
(188,716,o),
(51,565,o),
(51,350,cs),
(51,135,o),
(188,-16,o),
(383,-16,cs)
);
},
{
closed = 1;
nodes = (
(149,516,o),
(245,630,o),
(383,630,cs),
(522,630,o),
(617,516,o),
(617,350,cs),
(617,184,o),
(522,70,o),
(383,70,cs),
(245,70,o),
(149,184,o),
(149,350,cs)
);
},
{
closed = 1;
nodes = (
(270,780,l),
(342,780,l),
(437,927,l),
(329,927,l)
);
},
{
closed = 1;
nodes = (
(430,780,l),
(502,780,l),
(597,927,l),
(489,927,l)
);
}
);
width = 767;
},
{
hints = (
{
horizontal = 1;
place = (-16, 86);
place = (-16, 86);
type = Stem;
},
{
horizontal = 1;
place = (630, 86);
place = (630, 86);
type = Stem;
},
{
horizontal = 1;
place = (780, 147);
place = (780, 147);
type = Stem;
},
{
place = (51, 98);
place = (51, 98);
type = Stem;
},
{
place = (617, 98);
place = (617, 98);
type = Stem;
}
);
layerId = "1E451FFA-12DA-4FF6-A0F2-5663C8724383";
shapes = (
{
closed = 1;
nodes = (
(578,-16,o),
(715,135,o),
(715,350,cs),
(715,565,o),
(578,716,o),
(383,716,cs),
(188,716,o),
(51,565,o),
(51,350,cs),
(51,135,o),
(188,-16,o),
(383,-16,cs)
);
},
{
closed = 1;
nodes = (
(149,516,o),
(245,630,o),
(383,630,cs),
(522,630,o),
(617,516,o),
(617,350,cs),
(617,184,o),
(522,70,o),
(383,70,cs),
(245,70,o),
(149,184,o),
(149,350,cs)
);
},
{
closed = 1;
nodes = (
(270,780,l),
(342,780,l),
(437,927,l),
(329,927,l)
);
},
{
closed = 1;
nodes = (
(430,780,l),
(502,780,l),
(597,927,l),
(489,927,l)
);
}
);
width = 767;
}
);
note = Ohungarumlaut;
unicode = 336;
},
{
glyphname = Omacron;
kernLeft = C;
kernRight = C;
lastChange = "2024-02-20 15:05:20 +0000";
layers = (
{
hints = (
{
horizontal = 1;
place = (-16, 86);
place = (-16, 86);
type = Stem;
},
{
horizontal = 1;
place = (630, 86);
place = (630, 86);
type = Stem;
},
{
horizontal = 1;
place = (777, 76);
place = (777, 76);
type = Stem;
},
{
place = (51, 98);
place = (51, 98);
type = Stem;
},
{
place = (617, 98);
place = (617, 98);
type = Stem;
}
);
layerId = m01;
shapes = (
{
closed = 1;
nodes = (
(578,-16,o),
(715,135,o),
(715,350,cs),
(715,565,o),
(578,716,o),
(383,716,cs),
(188,716,o),
(51,565,o),
(51,350,cs),
(51,135,o),
(188,-16,o),
(383,-16,cs)
);
},
{
closed = 1;
nodes = (
(149,516,o),
(245,630,o),
(383,630,cs),
(522,630,o),
(617,516,o),
(617,350,cs),
(617,184,o),
(522,70,o),
(383,70,cs),
(245,70,o),
(149,184,o),
(149,350,cs)
);
},
{
closed = 1;
nodes = (
(231,777,l),
(536,777,l),
(536,853,l),
(231,853,l)
);
}
);
width = 767;
},
{
hints = (
{
horizontal = 1;
place = (-16, 86);
place = (-16, 86);
type = Stem;
},
{
horizontal = 1;
place = (630, 86);
place = (630, 86);
type = Stem;
},
{
horizontal = 1;
place = (777, 76);
place = (777, 76);
type = Stem;
},
{
place = (51, 98);
place = (51, 98);
type = Stem;
},
{
place = (617, 98);
place = (617, 98);
type = Stem;
}
);
layerId = "1E451FFA-12DA-4FF6-A0F2-5663C8724383";
shapes = (
{
closed = 1;
nodes = (
(578,-16,o),
(715,135,o),
(715,350,cs),
(715,565,o),
(578,716,o),
(383,716,cs),
(188,716,o),
(51,565,o),
(51,350,cs),
(51,135,o),
(188,-16,o),
(383,-16,cs)
);
},
{
closed = 1;
nodes = (
(149,516,o),
(245,630,o),
(383,630,cs),
(522,630,o),
(617,516,o),
(617,350,cs),
(617,184,o),
(522,70,o),
(383,70,cs),
(245,70,o),
(149,184,o),
(149,350,cs)
);
},
{
closed = 1;
nodes = (
(231,777,l),
(536,777,l),
(536,853,l),
(231,853,l)
);
}
);
width = 767;
}
);
note = Omacron;
unicode = 332;
},
{
glyphname = Oslash;
kernLeft = C;
kernRight = C;
lastChange = "2024-02-20 15:05:20 +0000";
layers = (
{
hints = (
{
horizontal = 1;
place = (-16, 86);
place = (-16, 86);
type = Stem;
},
{
horizontal = 1;
place = (630, 86);
place = (630, 86);
type = Stem;
},
{
place = (65, 98);
place = (65, 98);
type = Stem;
},
{
place = (631, 98);
place = (631, 98);
type = Stem;
}
);
layerId = m01;
shapes = (
{
closed = 1;
nodes = (
(21,-66,l),
(120,-66,l),
(206,43,l),
(259,5,o),
(324,-16,o),
(397,-16,cs),
(592,-16,o),
(729,135,o),
(729,350,cs),
(729,452,o),
(698,539,o),
(645,603,c),
(772,765,l),
(673,765,l),
(588,657,l),
(535,695,o),
(470,716,o),
(397,716,cs),
(202,716,o),
(65,565,o),
(65,350,cs),
(65,248,o),
(96,161,o),
(149,97,c)
);
},
{
closed = 1;
nodes = (
(163,516,o),
(259,630,o),
(397,630,cs),
(449,630,o),
(495,614,o),
(532,585,c),
(209,174,l),
(180,221,o),
(163,281,o),
(163,350,cs)
);
},
{
closed = 1;
nodes = (
(585,526,l),
(614,480,o),
(631,419,o),
(631,350,cs),
(631,184,o),
(536,70,o),
(397,70,cs),
(345,70,o),
(299,86,o),
(262,115,c)
);
}
);
width = 793;
},
{
hints = (
{
horizontal = 1;
place = (-16, 86);
place = (-16, 86);
type = Stem;
},
{
horizontal = 1;
place = (630, 86);
place = (630, 86);
type = Stem;
},
{
place = (65, 98);
place = (65, 98);
type = Stem;
},
{
place = (631, 98);
place = (631, 98);
type = Stem;
}
);
layerId = "1E451FFA-12DA-4FF6-A0F2-5663C8724383";
shapes = (
{
closed = 1;
nodes = (
(21,-66,l),
(120,-66,l),
(206,43,l),
(259,5,o),
(324,-16,o),
(397,-16,cs),
(592,-16,o),
(729,135,o),
(729,350,cs),
(729,452,o),
(698,539,o),
(645,603,c),
(772,765,l),
(673,765,l),
(588,657,l),
(535,695,o),
(470,716,o),
(397,716,cs),
(202,716,o),
(65,565,o),
(65,350,cs),
(65,248,o),
(96,161,o),
(149,97,c)
);
},
{
closed = 1;
nodes = (
(163,516,o),
(259,630,o),
(397,630,cs),
(449,630,o),
(495,614,o),
(532,585,c),
(209,174,l),
(180,221,o),
(163,281,o),
(163,350,cs)
);
},
{
closed = 1;
nodes = (
(585,526,l),
(614,480,o),
(631,419,o),
(631,350,cs),
(631,184,o),
(536,70,o),
(397,70,cs),
(345,70,o),
(299,86,o),
(262,115,c)
);
}
);
width = 793;
}
);
note = Oslash;
unicode = 216;
},
{
glyphname = Oslashacute;
kernLeft = C;
kernRight = C;
lastChange = "2024-02-20 15:05:20 +0000";
layers = (
{
hints = (
{
horizontal = 1;
place = (-16, 86);
place = (-16, 86);
type = Stem;
},
{
horizontal = 1;
place = (630, 86);
place = (630, 86);
type = Stem;
},
{
horizontal = 1;
place = (780, 147);
place = (780, 147);
type = Stem;
},
{
place = (65, 98);
place = (65, 98);
type = Stem;
},
{
place = (631, 98);
place = (631, 98);
type = Stem;
}
);
layerId = m01;
shapes = (
{
closed = 1;
nodes = (
(21,-66,l),
(120,-66,l),
(206,43,l),
(259,5,o),
(324,-16,o),
(397,-16,cs),
(592,-16,o),
(729,135,o),
(729,350,cs),
(729,452,o),
(698,539,o),
(645,603,c),
(772,765,l),
(673,765,l),
(588,657,l),
(535,695,o),
(470,716,o),
(397,716,cs),
(202,716,o),
(65,565,o),
(65,350,cs),
(65,248,o),
(96,161,o),
(149,97,c)
);
},
{
closed = 1;
nodes = (
(163,516,o),
(259,630,o),
(397,630,cs),
(449,630,o),
(495,614,o),
(532,585,c),
(209,174,l),
(180,221,o),
(163,281,o),
(163,350,cs)
);
},
{
closed = 1;
nodes = (
(585,526,l),
(614,480,o),
(631,419,o),
(631,350,cs),
(631,184,o),
(536,70,o),
(397,70,cs),
(345,70,o),
(299,86,o),
(262,115,c)
);
},
{
closed = 1;
nodes = (
(347,780,l),
(419,780,l),
(514,927,l),
(406,927,l)
);
}
);
width = 793;
},
{
hints = (
{
horizontal = 1;
place = (-16, 86);
place = (-16, 86);
type = Stem;
},
{
horizontal = 1;
place = (630, 86);
place = (630, 86);
type = Stem;
},
{
horizontal = 1;
place = (780, 147);
place = (780, 147);
type = Stem;
},
{
place = (65, 98);
place = (65, 98);
type = Stem;
},
{
place = (631, 98);
place = (631, 98);
type = Stem;
}
);
layerId = "1E451FFA-12DA-4FF6-A0F2-5663C8724383";
shapes = (
{
closed = 1;
nodes = (
(21,-66,l),
(120,-66,l),
(206,43,l),
(259,5,o),
(324,-16,o),
(397,-16,cs),
(592,-16,o),
(729,135,o),
(729,350,cs),
(729,452,o),
(698,539,o),
(645,603,c),
(772,765,l),
(673,765,l),
(588,657,l),
(535,695,o),
(470,716,o),
(397,716,cs),
(202,716,o),
(65,565,o),
(65,350,cs),
(65,248,o),
(96,161,o),
(149,97,c)
);
},
{
closed = 1;
nodes = (
(163,516,o),
(259,630,o),
(397,630,cs),
(449,630,o),
(495,614,o),
(532,585,c),
(209,174,l),
(180,221,o),
(163,281,o),
(163,350,cs)
);
},
{
closed = 1;
nodes = (
(585,526,l),
(614,480,o),
(631,419,o),
(631,350,cs),
(631,184,o),
(536,70,o),
(397,70,cs),
(345,70,o),
(299,86,o),
(262,115,c)
);
},
{
closed = 1;
nodes = (
(347,780,l),
(419,780,l),
(514,927,l),
(406,927,l)
);
}
);
width = 793;
}
);
note = Oslashacute;
unicode = 510;
},
{
glyphname = Otilde;
kernLeft = C;
kernRight = C;
lastChange = "2024-02-20 15:05:20 +0000";
layers = (
{
hints = (
{
horizontal = 1;
place = (-16, 86);
place = (-16, 86);
type = Stem;
},
{
horizontal = 1;
place = (630, 86);
place = (630, 86);
type = Stem;
},
{
horizontal = 1;
place = (836, 77);
place = (836, 77);
type = Stem;
},
{
place = (51, 98);
place = (51, 98);
type = Stem;
},
{
place = (206, 86);
place = (206, 86);
type = Stem;
},
{
place = (617, 98);
place = (617, 98);
type = Stem;
},
{
horizontal = 1;
place = (780, 77);
place = (780, 77);
type = Stem;
},
{
place = (475, 86);
place = (475, 86);
type = Stem;
}
);
layerId = m01;
shapes = (
{
closed = 1;
nodes = (
(578,-16,o),
(715,135,o),
(715,350,cs),
(715,565,o),
(578,716,o),
(383,716,cs),
(188,716,o),
(51,565,o),
(51,350,cs),
(51,135,o),
(188,-16,o),
(383,-16,cs)
);
},
{
closed = 1;
nodes = (
(149,516,o),
(245,630,o),
(383,630,cs),
(522,630,o),
(617,516,o),
(617,350,cs),
(617,184,o),
(522,70,o),
(383,70,cs),
(245,70,o),
(149,184,o),
(149,350,cs)
);
},
{
closed = 1;
nodes = (
(292,780,l),
(292,811,o),
(306,836,o),
(329,836,cs),
(363,836,o),
(386,780,o),
(451,780,cs),
(516,780,o),
(561,835,o),
(561,903,c),
(475,913,l),
(475,882,o),
(461,857,o),
(438,857,cs),
(404,857,o),
(381,913,o),
(317,913,cs),
(251,913,o),
(206,858,o),
(206,790,c)
);
}
);
width = 767;
},
{
hints = (
{
horizontal = 1;
place = (-16, 86);
place = (-16, 86);
type = Stem;
},
{
horizontal = 1;
place = (630, 86);
place = (630, 86);
type = Stem;
},
{
horizontal = 1;
place = (836, 77);
place = (836, 77);
type = Stem;
},
{
place = (51, 98);
place = (51, 98);
type = Stem;
},
{
place = (206, 86);
place = (206, 86);
type = Stem;
},
{
place = (617, 98);
place = (617, 98);
type = Stem;
},
{
horizontal = 1;
place = (780, 77);
place = (780, 77);
type = Stem;
},
{
place = (475, 86);
place = (475, 86);
type = Stem;
}
);
layerId = "1E451FFA-12DA-4FF6-A0F2-5663C8724383";
shapes = (
{
closed = 1;
nodes = (
(578,-16,o),
(715,135,o),
(715,350,cs),
(715,565,o),
(578,716,o),
(383,716,cs),
(188,716,o),
(51,565,o),
(51,350,cs),
(51,135,o),
(188,-16,o),
(383,-16,cs)
);
},
{
closed = 1;
nodes = (
(149,516,o),
(245,630,o),
(383,630,cs),
(522,630,o),
(617,516,o),
(617,350,cs),
(617,184,o),
(522,70,o),
(383,70,cs),
(245,70,o),
(149,184,o),
(149,350,cs)
);
},
{
closed = 1;
nodes = (
(292,780,l),
(292,811,o),
(306,836,o),
(329,836,cs),
(363,836,o),
(386,780,o),
(451,780,cs),
(516,780,o),
(561,835,o),
(561,903,c),
(475,913,l),
(475,882,o),
(461,857,o),
(438,857,cs),
(404,857,o),
(381,913,o),
(317,913,cs),
(251,913,o),
(206,858,o),
(206,790,c)
);
}
);
width = 767;
}
);
note = Otilde;
unicode = 213;
},
{
glyphname = OE;
kernLeft = C;
kernRight = AE;
lastChange = "2024-02-20 15:05:20 +0000";
layers = (
{
hints = (
{
horizontal = 1;
place = (0, 86);
place = (0, 86);
type = Stem;
},
{
horizontal = 1;
place = (320, 87);
place = (320, 87);
type = Stem;
},
{
horizontal = 1;
place = (614, 86);
place = (614, 86);
type = Stem;
},
{
place = (51, 98);
place = (51, 98);
type = Stem;
},
{
place = (617, 98);
place = (617, 98);
type = Stem;
},
{
horizontal = 1;
place = (-16, 86);
place = (-16, 86);
type = Stem;
},
{
horizontal = 1;
place = (630, 86);
place = (630, 86);
type = Stem;
}
);
layerId = m01;
shapes = (
{
closed = 1;
nodes = (
(617,0,l),
(1045,0,l),
(1045,86,l),
(715,86,l),
(715,320,l),
(985,320,l),
(985,407,l),
(715,407,l),
(715,614,l),
(1045,614,l),
(1045,700,l),
(617,700,l),
(617,593,l),
(567,668,o),
(489,716,o),
(383,716,cs),
(188,716,o),
(51,565,o),
(51,350,cs),
(51,135,o),
(188,-16,o),
(383,-16,cs),
(489,-16,o),
(567,32,o),
(617,107,c)
);
},
{
closed = 1;
nodes = (
(149,516,o),
(245,630,o),
(383,630,cs),
(522,630,o),
(617,516,o),
(617,350,cs),
(617,184,o),
(522,70,o),
(383,70,cs),
(245,70,o),
(149,184,o),
(149,350,cs)
);
}
);
width = 1097;
},
{
hints = (
{
horizontal = 1;
place = (0, 86);
place = (0, 86);
type = Stem;
},
{
horizontal = 1;
place = (320, 87);
place = (320, 87);
type = Stem;
},
{
horizontal = 1;
place = (614, 86);
place = (614, 86);
type = Stem;
},
{
place = (51, 98);
place = (51, 98);
type = Stem;
},
{
place = (617, 98);
place = (617, 98);
type = Stem;
},
{
horizontal = 1;
place = (-16, 86);
place = (-16, 86);
type = Stem;
},
{
horizontal = 1;
place = (630, 86);
place = (630, 86);
type = Stem;
}
);
layerId = "1E451FFA-12DA-4FF6-A0F2-5663C8724383";
shapes = (
{
closed = 1;
nodes = (
(617,0,l),
(1045,0,l),
(1045,86,l),
(715,86,l),
(715,320,l),
(985,320,l),
(985,407,l),
(715,407,l),
(715,614,l),
(1045,614,l),
(1045,700,l),
(617,700,l),
(617,593,l),
(567,668,o),
(489,716,o),
(383,716,cs),
(188,716,o),
(51,565,o),
(51,350,cs),
(51,135,o),
(188,-16,o),
(383,-16,cs),
(489,-16,o),
(567,32,o),
(617,107,c)
);
},
{
closed = 1;
nodes = (
(149,516,o),
(245,630,o),
(383,630,cs),
(522,630,o),
(617,516,o),
(617,350,cs),
(617,184,o),
(522,70,o),
(383,70,cs),
(245,70,o),
(149,184,o),
(149,350,cs)
);
}
);
width = 1097;
}
);
note = OE;
unicode = 338;
},
{
glyphname = P;
kernLeft = B;
kernRight = P;
lastChange = "2024-02-20 15:05:20 +0000";
layers = (
{
hints = (
{
horizontal = 1;
place = (0, 21);
target = up;
type = BottomGhost;
},
{
horizontal = 1;
place = (299, 86);
place = (299, 86);
type = Stem;
},
{
horizontal = 1;
place = (614, 86);
place = (614, 86);
type = Stem;
},
{
place = (79, 98);
place = (79, 98);
type = Stem;
},
{
place = (452, 98);
place = (452, 98);
type = Stem;
}
);
layerId = m01;
shapes = (
{
closed = 1;
nodes = (
(79,0,l),
(177,0,l),
(177,299,l),
(319,299,ls),
(457,299,o),
(550,379,o),
(550,499,cs),
(550,619,o),
(457,700,o),
(319,700,cs),
(79,700,l)
);
},
{
closed = 1;
nodes = (
(177,385,l),
(177,614,l),
(319,614,ls),
(399,614,o),
(452,568,o),
(452,499,cs),
(452,430,o),
(400,385,o),
(319,385,cs)
);
}
);
width = 588;
},
{
hints = (
{
horizontal = 1;
place = (0, 21);
target = up;
type = BottomGhost;
},
{
horizontal = 1;
place = (299, 86);
place = (299, 86);
type = Stem;
},
{
horizontal = 1;
place = (614, 86);
place = (614, 86);
type = Stem;
},
{
place = (79, 98);
place = (79, 98);
type = Stem;
},
{
place = (452, 98);
place = (452, 98);
type = Stem;
}
);
layerId = "1E451FFA-12DA-4FF6-A0F2-5663C8724383";
shapes = (
{
closed = 1;
nodes = (
(79,0,l),
(177,0,l),
(177,299,l),
(319,299,ls),
(457,299,o),
(550,379,o),
(550,499,cs),
(550,619,o),
(457,700,o),
(319,700,cs),
(79,700,l)
);
},
{
closed = 1;
nodes = (
(177,385,l),
(177,614,l),
(319,614,ls),
(399,614,o),
(452,568,o),
(452,499,cs),
(452,430,o),
(400,385,o),
(319,385,cs)
);
}
);
width = 588;
}
);
note = P;
unicode = 80;
},
{
glyphname = Thorn;
kernLeft = B;
kernRight = Thorn;
lastChange = "2024-02-20 15:05:20 +0000";
layers = (
{
hints = (
{
horizontal = 1;
place = (0, 21);
target = up;
type = BottomGhost;
},
{
horizontal = 1;
place = (148, 86);
place = (148, 86);
type = Stem;
},
{
horizontal = 1;
place = (466, 87);
place = (466, 87);
type = Stem;
},
{
place = (79, 98);
place = (79, 98);
type = Stem;
},
{
place = (452, 98);
place = (452, 98);
type = Stem;
}
);
layerId = m01;
shapes = (
{
closed = 1;
nodes = (
(79,0,l),
(177,0,l),
(177,148,l),
(319,148,ls),
(457,148,o),
(550,229,o),
(550,350,cs),
(550,471,o),
(457,553,o),
(319,553,cs),
(177,553,l),
(177,700,l),
(79,700,l)
);
},
{
closed = 1;
nodes = (
(177,234,l),
(177,466,l),
(319,466,ls),
(399,466,o),
(452,420,o),
(452,350,cs),
(452,280,o),
(400,234,o),
(319,234,cs)
);
}
);
width = 597;
},
{
hints = (
{
horizontal = 1;
place = (0, 21);
target = up;
type = BottomGhost;
},
{
horizontal = 1;
place = (148, 86);
place = (148, 86);
type = Stem;
},
{
horizontal = 1;
place = (466, 87);
place = (466, 87);
type = Stem;
},
{
place = (79, 98);
place = (79, 98);
type = Stem;
},
{
place = (452, 98);
place = (452, 98);
type = Stem;
}
);
layerId = "1E451FFA-12DA-4FF6-A0F2-5663C8724383";
shapes = (
{
closed = 1;
nodes = (
(79,0,l),
(177,0,l),
(177,148,l),
(319,148,ls),
(457,148,o),
(550,229,o),
(550,350,cs),
(550,471,o),
(457,553,o),
(319,553,cs),
(177,553,l),
(177,700,l),
(79,700,l)
);
},
{
closed = 1;
nodes = (
(177,234,l),
(177,466,l),
(319,466,ls),
(399,466,o),
(452,420,o),
(452,350,cs),
(452,280,o),
(400,234,o),
(319,234,cs)
);
}
);
width = 597;
}
);
note = Thorn;
unicode = 222;
},
{
glyphname = Q;
kernLeft = C;
kernRight = C;
lastChange = "2024-02-20 15:05:20 +0000";
layers = (
{
hints = (
{
horizontal = 1;
place = (-16, 86);
place = (-16, 86);
type = Stem;
},
{
horizontal = 1;
place = (630, 86);
place = (630, 86);
type = Stem;
},
{
place = (51, 98);
place = (51, 98);
type = Stem;
},
{
place = (617, 98);
place = (617, 98);
type = Stem;
}
);
layerId = m01;
shapes = (
{
closed = 1;
nodes = (
(624,-66,l),
(734,-66,l),
(622,86,l),
(681,151,o),
(715,242,o),
(715,350,cs),
(715,565,o),
(578,716,o),
(383,716,cs),
(188,716,o),
(51,565,o),
(51,350,cs),
(51,135,o),
(188,-16,o),
(383,-16,cs),
(447,-16,o),
(505,0,o),
(553,30,c)
);
},
{
closed = 1;
nodes = (
(149,516,o),
(245,630,o),
(383,630,cs),
(522,630,o),
(617,516,o),
(617,350,cs),
(617,276,o),
(598,212,o),
(564,164,c),
(425,353,l),
(315,353,l),
(500,102,l),
(466,81,o),
(427,70,o),
(383,70,cs),
(245,70,o),
(149,184,o),
(149,350,cs)
);
}
);
width = 776;
},
{
hints = (
{
horizontal = 1;
place = (-16, 86);
place = (-16, 86);
type = Stem;
},
{
horizontal = 1;
place = (630, 86);
place = (630, 86);
type = Stem;
},
{
place = (51, 98);
place = (51, 98);
type = Stem;
},
{
place = (617, 98);
place = (617, 98);
type = Stem;
}
);
layerId = "1E451FFA-12DA-4FF6-A0F2-5663C8724383";
shapes = (
{
closed = 1;
nodes = (
(624,-66,l),
(734,-66,l),
(622,86,l),
(681,151,o),
(715,242,o),
(715,350,cs),
(715,565,o),
(578,716,o),
(383,716,cs),
(188,716,o),
(51,565,o),
(51,350,cs),
(51,135,o),
(188,-16,o),
(383,-16,cs),
(447,-16,o),
(505,0,o),
(553,30,c)
);
},
{
closed = 1;
nodes = (
(149,516,o),
(245,630,o),
(383,630,cs),
(522,630,o),
(617,516,o),
(617,350,cs),
(617,276,o),
(598,212,o),
(564,164,c),
(425,353,l),
(315,353,l),
(500,102,l),
(466,81,o),
(427,70,o),
(383,70,cs),
(245,70,o),
(149,184,o),
(149,350,cs)
);
}
);
width = 776;
}
);
note = Q;
unicode = 81;
},
{
glyphname = R;
kernLeft = B;
kernRight = R;
lastChange = "2024-02-20 15:28:09 +0000";
layers = (
{
hints = (
{
horizontal = 1;
place = (0, 21);
target = up;
type = BottomGhost;
},
{
horizontal = 1;
place = (299, 86);
place = (299, 86);
type = Stem;
},
{
horizontal = 1;
place = (614, 86);
place = (614, 86);
type = Stem;
},
{
place = (79, 98);
place = (79, 98);
type = Stem;
},
{
place = (452, 98);
place = (452, 98);
type = Stem;
},
{
place = (452, 99.5);
place = (452, 99.5);
type = Stem;
}
);
layerId = m01;
shapes = (
{
closed = 1;
nodes = (
(-225,700,l),
(-225,0,l),
(-127,0,l),
(-127,700,l)
);
},
{
closed = 1;
nodes = (
(177,165,l),
(319,165,ls),
(398,165,o),
(452,118,o),
(452,50,cs),
(452,-18,o),
(398,-64,o),
(319,-64,cs),
(177,-64,l),
(177,-150,l),
(317,-150,ls),
(400,-150,o),
(440,-190,o),
(446,-279,cs),
(458,-449,l),
(556,-449,l),
(547,-296,ls),
(541,-187,o),
(495,-125,o),
(413,-112,c),
(497,-94,o),
(550,-31,o),
(550,56,cs),
(550,170,o),
(455,251,o),
(319,251,cs),
(177,251,l)
);
}
);
width = 621;
},
{
hints = (
{
horizontal = 1;
place = (0, 21);
target = up;
type = BottomGhost;
},
{
horizontal = 1;
place = (299, 86);
place = (299, 86);
type = Stem;
},
{
horizontal = 1;
place = (614, 86);
place = (614, 86);
type = Stem;
},
{
place = (79, 98);
place = (79, 98);
type = Stem;
},
{
place = (452, 98);
place = (452, 98);
type = Stem;
},
{
place = (452, 99.5);
place = (452, 99.5);
type = Stem;
}
);
layerId = "1E451FFA-12DA-4FF6-A0F2-5663C8724383";
shapes = (
{
closed = 1;
nodes = (
(79,700,l),
(79,0,l),
(177,0,l),
(177,700,l)
);
},
{
closed = 1;
nodes = (
(177,614,l),
(319,614,ls),
(398,614,o),
(452,567,o),
(452,499,cs),
(452,431,o),
(398,385,o),
(319,385,cs),
(177,385,l),
(177,299,l),
(317,299,ls),
(400,299,o),
(440,259,o),
(446,170,cs),
(458,0,l),
(556,0,l),
(547,153,ls),
(541,262,o),
(495,324,o),
(413,337,c),
(497,355,o),
(550,418,o),
(550,505,cs),
(550,619,o),
(455,700,o),
(319,700,cs),
(177,700,l)
);
}
);
width = 621;
}
);
note = R;
unicode = 82;
},
{
glyphname = Racute;
kernLeft = B;
kernRight = R;
lastChange = "2024-02-20 15:05:20 +0000";
layers = (
{
hints = (
{
horizontal = 1;
place = (0, 21);
target = up;
type = BottomGhost;
},
{
horizontal = 1;
place = (299, 86);
place = (299, 86);
type = Stem;
},
{
horizontal = 1;
place = (614, 86);
place = (614, 86);
type = Stem;
},
{
place = (79, 98);
place = (79, 98);
type = Stem;
},
{
place = (452, 98);
place = (452, 98);
type = Stem;
},
{
place = (452, 99.5);
place = (452, 99.5);
type = Stem;
},
{
horizontal = 1;
place = (780, 147);
place = (780, 147);
type = Stem;
}
);
layerId = m01;
shapes = (
{
closed = 1;
nodes = (
(79,0,l),
(177,0,l),
(177,299,l),
(317,299,ls),
(400,299,o),
(441,259,o),
(446,170,cs),
(458,0,l),
(556,0,l),
(547,153,ls),
(540,262,o),
(495,324,o),
(413,337,c),
(497,355,o),
(550,418,o),
(550,505,cs),
(550,619,o),
(455,700,o),
(319,700,cs),
(79,700,l)
);
},
{
closed = 1;
nodes = (
(177,385,l),
(177,614,l),
(319,614,ls),
(398,614,o),
(452,567,o),
(452,499,cs),
(452,431,o),
(398,385,o),
(319,385,cs)
);
},
{
closed = 1;
nodes = (
(235,780,l),
(307,780,l),
(402,927,l),
(294,927,l)
);
}
);
width = 621;
},
{
hints = (
{
horizontal = 1;
place = (0, 21);
target = up;
type = BottomGhost;
},
{
horizontal = 1;
place = (299, 86);
place = (299, 86);
type = Stem;
},
{
horizontal = 1;
place = (614, 86);
place = (614, 86);
type = Stem;
},
{
place = (79, 98);
place = (79, 98);
type = Stem;
},
{
place = (452, 98);
place = (452, 98);
type = Stem;
},
{
place = (452, 99.5);
place = (452, 99.5);
type = Stem;
},
{
horizontal = 1;
place = (780, 147);
place = (780, 147);
type = Stem;
}
);
layerId = "1E451FFA-12DA-4FF6-A0F2-5663C8724383";
shapes = (
{
closed = 1;
nodes = (
(79,0,l),
(177,0,l),
(177,299,l),
(317,299,ls),
(400,299,o),
(441,259,o),
(446,170,cs),
(458,0,l),
(556,0,l),
(547,153,ls),
(540,262,o),
(495,324,o),
(413,337,c),
(497,355,o),
(550,418,o),
(550,505,cs),
(550,619,o),
(455,700,o),
(319,700,cs),
(79,700,l)
);
},
{
closed = 1;
nodes = (
(177,385,l),
(177,614,l),
(319,614,ls),
(398,614,o),
(452,567,o),
(452,499,cs),
(452,431,o),
(398,385,o),
(319,385,cs)
);
},
{
closed = 1;
nodes = (
(235,780,l),
(307,780,l),
(402,927,l),
(294,927,l)
);
}
);
width = 621;
}
);
note = Racute;
unicode = 340;
},
{
glyphname = Rcaron;
kernLeft = B;
kernRight = R;
lastChange = "2024-02-20 15:05:20 +0000";
layers = (
{
hints = (
{
horizontal = 1;
place = (0, 21);
target = up;
type = BottomGhost;
},
{
horizontal = 1;
place = (299, 86);
place = (299, 86);
type = Stem;
},
{
horizontal = 1;
place = (614, 86);
place = (614, 86);
type = Stem;
},
{
horizontal = 1;
place = (783, 147);
place = (783, 147);
type = Stem;
},
{
place = (79, 98);
place = (79, 98);
type = Stem;
},
{
place = (452, 98);
place = (452, 98);
type = Stem;
},
{
place = (452, 99.5);
place = (452, 99.5);
type = Stem;
}
);
layerId = m01;
shapes = (
{
closed = 1;
nodes = (
(79,0,l),
(177,0,l),
(177,299,l),
(317,299,ls),
(400,299,o),
(441,259,o),
(446,170,cs),
(458,0,l),
(556,0,l),
(547,153,ls),
(540,262,o),
(495,324,o),
(413,337,c),
(497,355,o),
(550,418,o),
(550,505,cs),
(550,619,o),
(455,700,o),
(319,700,cs),
(79,700,l)
);
},
{
closed = 1;
nodes = (
(152,930,l),
(226,783,l),
(370,783,l),
(444,930,l),
(361,930,l),
(298,823,l),
(235,930,l)
);
},
{
closed = 1;
nodes = (
(177,385,l),
(177,614,l),
(319,614,ls),
(398,614,o),
(452,567,o),
(452,499,cs),
(452,431,o),
(398,385,o),
(319,385,cs)
);
}
);
width = 621;
},
{
hints = (
{
horizontal = 1;
place = (0, 21);
target = up;
type = BottomGhost;
},
{
horizontal = 1;
place = (299, 86);
place = (299, 86);
type = Stem;
},
{
horizontal = 1;
place = (614, 86);
place = (614, 86);
type = Stem;
},
{
horizontal = 1;
place = (783, 147);
place = (783, 147);
type = Stem;
},
{
place = (79, 98);
place = (79, 98);
type = Stem;
},
{
place = (452, 98);
place = (452, 98);
type = Stem;
},
{
place = (452, 99.5);
place = (452, 99.5);
type = Stem;
}
);
layerId = "1E451FFA-12DA-4FF6-A0F2-5663C8724383";
shapes = (
{
closed = 1;
nodes = (
(79,0,l),
(177,0,l),
(177,299,l),
(317,299,ls),
(400,299,o),
(441,259,o),
(446,170,cs),
(458,0,l),
(556,0,l),
(547,153,ls),
(540,262,o),
(495,324,o),
(413,337,c),
(497,355,o),
(550,418,o),
(550,505,cs),
(550,619,o),
(455,700,o),
(319,700,cs),
(79,700,l)
);
},
{
closed = 1;
nodes = (
(152,930,l),
(226,783,l),
(370,783,l),
(444,930,l),
(361,930,l),
(298,823,l),
(235,930,l)
);
},
{
closed = 1;
nodes = (
(177,385,l),
(177,614,l),
(319,614,ls),
(398,614,o),
(452,567,o),
(452,499,cs),
(452,431,o),
(398,385,o),
(319,385,cs)
);
}
);
width = 621;
}
);
note = Rcaron;
unicode = 344;
},
{
glyphname = uni0156;
kernLeft = B;
kernRight = R;
lastChange = "2024-02-20 15:05:20 +0000";
layers = (
{
hints = (
{
horizontal = 1;
place = (-254, 53);
place = (-254, 53);
type = Stem;
},
{
horizontal = 1;
place = (-147, 87);
place = (-147, 87);
type = Stem;
},
{
horizontal = 1;
place = (0, 21);
target = up;
type = BottomGhost;
},
{
horizontal = 1;
place = (299, 86);
place = (299, 86);
type = Stem;
},
{
horizontal = 1;
place = (614, 86);
place = (614, 86);
type = Stem;
},
{
place = (79, 98);
place = (79, 98);
type = Stem;
},
{
place = (265, 116);
place = (265, 116);
type = Stem;
},
{
place = (452, 98);
place = (452, 98);
type = Stem;
},
{
place = (452, 99.5);
place = (452, 99.5);
type = Stem;
},
{
place = (323, 58);
place = (323, 58);
type = Stem;
}
);
layerId = m01;
shapes = (
{
closed = 1;
nodes = (
(79,0,l),
(177,0,l),
(177,299,l),
(317,299,ls),
(400,299,o),
(441,259,o),
(446,170,cs),
(458,0,l),
(556,0,l),
(547,153,ls),
(540,262,o),
(495,324,o),
(413,337,c),
(497,355,o),
(550,418,o),
(550,505,cs),
(550,619,o),
(455,700,o),
(319,700,cs),
(79,700,l)
);
},
{
closed = 1;
nodes = (
(177,385,l),
(177,614,l),
(319,614,ls),
(398,614,o),
(452,567,o),
(452,499,cs),
(452,431,o),
(398,385,o),
(319,385,cs)
);
},
{
closed = 1;
nodes = (
(255,-254,l),
(337,-254,o),
(381,-217,o),
(381,-147,cs),
(381,-60,l),
(265,-60,l),
(265,-147,l),
(323,-147,l),
(323,-187,o),
(305,-201,o),
(255,-201,c)
);
}
);
width = 621;
},
{
hints = (
{
horizontal = 1;
place = (-254, 53);
place = (-254, 53);
type = Stem;
},
{
horizontal = 1;
place = (-147, 87);
place = (-147, 87);
type = Stem;
},
{
horizontal = 1;
place = (0, 21);
target = up;
type = BottomGhost;
},
{
horizontal = 1;
place = (299, 86);
place = (299, 86);
type = Stem;
},
{
horizontal = 1;
place = (614, 86);
place = (614, 86);
type = Stem;
},
{
place = (79, 98);
place = (79, 98);
type = Stem;
},
{
place = (265, 116);
place = (265, 116);
type = Stem;
},
{
place = (452, 98);
place = (452, 98);
type = Stem;
},
{
place = (452, 99.5);
place = (452, 99.5);
type = Stem;
},
{
place = (323, 58);
place = (323, 58);
type = Stem;
}
);
layerId = "1E451FFA-12DA-4FF6-A0F2-5663C8724383";
shapes = (
{
closed = 1;
nodes = (
(79,0,l),
(177,0,l),
(177,299,l),
(317,299,ls),
(400,299,o),
(441,259,o),
(446,170,cs),
(458,0,l),
(556,0,l),
(547,153,ls),
(540,262,o),
(495,324,o),
(413,337,c),
(497,355,o),
(550,418,o),
(550,505,cs),
(550,619,o),
(455,700,o),
(319,700,cs),
(79,700,l)
);
},
{
closed = 1;
nodes = (
(177,385,l),
(177,614,l),
(319,614,ls),
(398,614,o),
(452,567,o),
(452,499,cs),
(452,431,o),
(398,385,o),
(319,385,cs)
);
},
{
closed = 1;
nodes = (
(255,-254,l),
(337,-254,o),
(381,-217,o),
(381,-147,cs),
(381,-60,l),
(265,-60,l),
(265,-147,l),
(323,-147,l),
(323,-187,o),
(305,-201,o),
(255,-201,c)
);
}
);
width = 621;
}
);
note = uni0156;
unicode = 342;
},
{
glyphname = S;
kernLeft = S;
kernRight = S;
lastChange = "2024-02-20 15:28:00 +0000";
layers = (
{
hints = (
{
horizontal = 1;
place = (-16, 86);
place = (-16, 86);
type = Stem;
},
{
horizontal = 1;
place = (630, 86);
place = (630, 86);
type = Stem;
},
{
place = (32, 98);
place = (32, 98);
type = Stem;
},
{
place = (453, 98);
place = (453, 98);
type = Stem;
},
{
place = (71, 98);
place = (71, 98);
type = Stem;
},
{
place = (432, 98);
place = (432, 98);
type = Stem;
}
);
layerId = m01;
shapes = (
{
closed = 1;
nodes = (
(1028,197,l),
(1028,433,o),
(646,370,o),
(646,529,c),
(548,520,l),
(548,291,o),
(930,356,o),
(930,186,c)
);
},
{
closed = 1;
nodes = (
(445,-374,o),
(551,-283,o),
(551,-161,c),
(453,-172,l),
(453,-247,o),
(379,-288,o),
(305,-288,cs),
(197,-288,o),
(130,-201,o),
(130,-93,c),
(32,-103,l),
(32,-260,o),
(144,-374,o),
(302,-374,cs)
);
},
{
closed = 1;
nodes = (
(530,771,l),
(520,891,o),
(415,961,o),
(296,961,cs),
(171,961,o),
(71,882,o),
(71,765,c),
(169,774,l),
(169,837,o),
(227,875,o),
(293,875,cs),
(363,875,o),
(423,831,o),
(432,761,c)
);
}
);
width = 592;
},
{
hints = (
{
horizontal = 1;
place = (-16, 86);
place = (-16, 86);
type = Stem;
},
{
horizontal = 1;
place = (630, 86);
place = (630, 86);
type = Stem;
},
{
place = (32, 98);
place = (32, 98);
type = Stem;
},
{
place = (453, 98);
place = (453, 98);
type = Stem;
},
{
place = (71, 98);
place = (71, 98);
type = Stem;
},
{
place = (432, 98);
place = (432, 98);
type = Stem;
}
);
layerId = "1E451FFA-12DA-4FF6-A0F2-5663C8724383";
shapes = (
{
closed = 1;
nodes = (
(551,197,l),
(551,433,o),
(169,370,o),
(169,529,c),
(71,520,l),
(71,291,o),
(453,356,o),
(453,186,c)
);
},
{
closed = 1;
nodes = (
(445,-16,o),
(551,75,o),
(551,197,c),
(453,186,l),
(453,111,o),
(379,70,o),
(305,70,cs),
(197,70,o),
(130,157,o),
(130,265,c),
(32,255,l),
(32,98,o),
(144,-16,o),
(302,-16,cs)
);
},
{
closed = 1;
nodes = (
(530,526,l),
(520,646,o),
(415,716,o),
(296,716,cs),
(171,716,o),
(71,637,o),
(71,520,c),
(169,529,l),
(169,592,o),
(227,630,o),
(293,630,cs),
(363,630,o),
(423,586,o),
(432,516,c)
);
}
);
width = 592;
}
);
note = S;
unicode = 83;
},
{
glyphname = Sacute;
kernLeft = S;
kernRight = S;
lastChange = "2024-02-20 15:05:20 +0000";
layers = (
{
hints = (
{
horizontal = 1;
place = (-16, 86);
place = (-16, 86);
type = Stem;
},
{
horizontal = 1;
place = (630, 86);
place = (630, 86);
type = Stem;
},
{
horizontal = 1;
place = (780, 147);
place = (780, 147);
type = Stem;
},
{
place = (32, 98);
place = (32, 98);
type = Stem;
},
{
place = (453, 98);
place = (453, 98);
type = Stem;
},
{
place = (71, 98);
place = (71, 98);
type = Stem;
},
{
place = (432, 98);
place = (432, 98);
type = Stem;
}
);
layerId = m01;
shapes = (
{
closed = 1;
nodes = (
(445,-16,o),
(551,75,o),
(551,197,cs),
(551,433,o),
(169,370,o),
(169,529,cs),
(169,592,o),
(227,630,o),
(293,630,cs),
(363,630,o),
(423,586,o),
(432,516,c),
(530,526,l),
(520,646,o),
(415,716,o),
(296,716,cs),
(171,716,o),
(71,637,o),
(71,520,cs),
(71,291,o),
(453,356,o),
(453,186,cs),
(453,111,o),
(379,70,o),
(305,70,cs),
(197,70,o),
(130,157,o),
(130,265,c),
(32,255,l),
(32,98,o),
(144,-16,o),
(302,-16,cs)
);
},
{
closed = 1;
nodes = (
(267,780,l),
(339,780,l),
(434,927,l),
(326,927,l)
);
}
);
width = 592;
},
{
hints = (
{
horizontal = 1;
place = (-16, 86);
place = (-16, 86);
type = Stem;
},
{
horizontal = 1;
place = (630, 86);
place = (630, 86);
type = Stem;
},
{
horizontal = 1;
place = (780, 147);
place = (780, 147);
type = Stem;
},
{
place = (32, 98);
place = (32, 98);
type = Stem;
},
{
place = (453, 98);
place = (453, 98);
type = Stem;
},
{
place = (71, 98);
place = (71, 98);
type = Stem;
},
{
place = (432, 98);
place = (432, 98);
type = Stem;
}
);
layerId = "1E451FFA-12DA-4FF6-A0F2-5663C8724383";
shapes = (
{
closed = 1;
nodes = (
(445,-16,o),
(551,75,o),
(551,197,cs),
(551,433,o),
(169,370,o),
(169,529,cs),
(169,592,o),
(227,630,o),
(293,630,cs),
(363,630,o),
(423,586,o),
(432,516,c),
(530,526,l),
(520,646,o),
(415,716,o),
(296,716,cs),
(171,716,o),
(71,637,o),
(71,520,cs),
(71,291,o),
(453,356,o),
(453,186,cs),
(453,111,o),
(379,70,o),
(305,70,cs),
(197,70,o),
(130,157,o),
(130,265,c),
(32,255,l),
(32,98,o),
(144,-16,o),
(302,-16,cs)
);
},
{
closed = 1;
nodes = (
(267,780,l),
(339,780,l),
(434,927,l),
(326,927,l)
);
}
);
width = 592;
}
);
note = Sacute;
unicode = 346;
},
{
glyphname = Scaron;
kernLeft = S;
kernRight = S;
lastChange = "2024-02-20 15:05:20 +0000";
layers = (
{
hints = (
{
horizontal = 1;
place = (-16, 86);
place = (-16, 86);
type = Stem;
},
{
horizontal = 1;
place = (630, 86);
place = (630, 86);
type = Stem;
},
{
horizontal = 1;
place = (783, 147);
place = (783, 147);
type = Stem;
},
{
place = (32, 98);
place = (32, 98);
type = Stem;
},
{
place = (453, 98);
place = (453, 98);
type = Stem;
},
{
place = (71, 98);
place = (71, 98);
type = Stem;
},
{
place = (432, 98);
place = (432, 98);
type = Stem;
}
);
layerId = m01;
shapes = (
{
closed = 1;
nodes = (
(445,-16,o),
(551,75,o),
(551,197,cs),
(551,433,o),
(169,370,o),
(169,529,cs),
(169,592,o),
(227,630,o),
(293,630,cs),
(363,630,o),
(423,586,o),
(432,516,c),
(530,526,l),
(520,646,o),
(415,716,o),
(296,716,cs),
(171,716,o),
(71,637,o),
(71,520,cs),
(71,291,o),
(453,356,o),
(453,186,cs),
(453,111,o),
(379,70,o),
(305,70,cs),
(197,70,o),
(130,157,o),
(130,265,c),
(32,255,l),
(32,98,o),
(144,-16,o),
(302,-16,cs)
);
},
{
closed = 1;
nodes = (
(151,930,l),
(225,783,l),
(369,783,l),
(443,930,l),
(360,930,l),
(297,823,l),
(234,930,l)
);
}
);
width = 592;
},
{
hints = (
{
horizontal = 1;
place = (-16, 86);
place = (-16, 86);
type = Stem;
},
{
horizontal = 1;
place = (630, 86);
place = (630, 86);
type = Stem;
},
{
horizontal = 1;
place = (783, 147);
place = (783, 147);
type = Stem;
},
{
place = (32, 98);
place = (32, 98);
type = Stem;
},
{
place = (453, 98);
place = (453, 98);
type = Stem;
},
{
place = (71, 98);
place = (71, 98);
type = Stem;
},
{
place = (432, 98);
place = (432, 98);
type = Stem;
}
);
layerId = "1E451FFA-12DA-4FF6-A0F2-5663C8724383";
shapes = (
{
closed = 1;
nodes = (
(445,-16,o),
(551,75,o),
(551,197,cs),
(551,433,o),
(169,370,o),
(169,529,cs),
(169,592,o),
(227,630,o),
(293,630,cs),
(363,630,o),
(423,586,o),
(432,516,c),
(530,526,l),
(520,646,o),
(415,716,o),
(296,716,cs),
(171,716,o),
(71,637,o),
(71,520,cs),
(71,291,o),
(453,356,o),
(453,186,cs),
(453,111,o),
(379,70,o),
(305,70,cs),
(197,70,o),
(130,157,o),
(130,265,c),
(32,255,l),
(32,98,o),
(144,-16,o),
(302,-16,cs)
);
},
{
closed = 1;
nodes = (
(151,930,l),
(225,783,l),
(369,783,l),
(443,930,l),
(360,930,l),
(297,823,l),
(234,930,l)
);
}
);
width = 592;
}
);
note = Scaron;
unicode = 352;
},
{
glyphname = Scedilla;
kernLeft = S;
kernRight = S;
lastChange = "2024-02-20 15:05:20 +0000";
layers = (
{
hints = (
{
horizontal = 1;
place = (-216, 58);
place = (-216, 58);
type = Stem;
},
{
horizontal = 1;
place = (-94, 49);
place = (-94, 49);
type = Stem;
},
{
horizontal = 1;
place = (-13, 21);
target = up;
type = BottomGhost;
},
{
horizontal = 1;
place = (630, 86);
place = (630, 86);
type = Stem;
},
{
place = (71, 98);
place = (71, 98);
type = Stem;
},
{
place = (332, 61);
place = (332, 61);
type = Stem;
},
{
place = (453, 98);
place = (453, 98);
type = Stem;
},
{
place = (432, 98);
place = (432, 98);
type = Stem;
},
{
horizontal = 1;
place = (-94, 164);
place = (-94, 164);
type = Stem;
},
{
place = (32, 98);
place = (32, 98);
type = Stem;
}
);
layerId = m01;
shapes = (
{
closed = 1;
nodes = (
(352,-216,o),
(393,-178,o),
(393,-127,cs),
(393,-80,o),
(358,-45,o),
(312,-45,cs),
(307,-45,o),
(302,-45,o),
(298,-46,c),
(311,-16,l),
(450,-12,o),
(551,78,o),
(551,197,cs),
(551,433,o),
(169,370,o),
(169,529,cs),
(169,592,o),
(227,630,o),
(293,630,cs),
(363,630,o),
(423,586,o),
(432,516,c),
(530,526,l),
(520,646,o),
(415,716,o),
(296,716,cs),
(171,716,o),
(71,637,o),
(71,520,cs),
(71,291,o),
(453,356,o),
(453,186,cs),
(453,111,o),
(379,70,o),
(305,70,cs),
(197,70,o),
(130,157,o),
(130,265,c),
(32,255,l),
(32,113,o),
(123,6,o),
(257,-13,c),
(223,-87,l),
(270,-108,l),
(276,-99,o),
(286,-94,o),
(298,-94,cs),
(318,-94,o),
(332,-107,o),
(332,-125,cs),
(332,-144,o),
(318,-158,o),
(297,-158,cs),
(280,-158,o),
(267,-148,o),
(264,-132,c),
(202,-142,l),
(207,-186,o),
(245,-216,o),
(296,-216,cs)
);
}
);
width = 592;
},
{
hints = (
{
horizontal = 1;
place = (-216, 58);
place = (-216, 58);
type = Stem;
},
{
horizontal = 1;
place = (-94, 49);
place = (-94, 49);
type = Stem;
},
{
horizontal = 1;
place = (-13, 21);
target = up;
type = BottomGhost;
},
{
horizontal = 1;
place = (630, 86);
place = (630, 86);
type = Stem;
},
{
place = (71, 98);
place = (71, 98);
type = Stem;
},
{
place = (332, 61);
place = (332, 61);
type = Stem;
},
{
place = (453, 98);
place = (453, 98);
type = Stem;
},
{
place = (432, 98);
place = (432, 98);
type = Stem;
},
{
horizontal = 1;
place = (-94, 164);
place = (-94, 164);
type = Stem;
},
{
place = (32, 98);
place = (32, 98);
type = Stem;
}
);
layerId = "1E451FFA-12DA-4FF6-A0F2-5663C8724383";
shapes = (
{
closed = 1;
nodes = (
(352,-216,o),
(393,-178,o),
(393,-127,cs),
(393,-80,o),
(358,-45,o),
(312,-45,cs),
(307,-45,o),
(302,-45,o),
(298,-46,c),
(311,-16,l),
(450,-12,o),
(551,78,o),
(551,197,cs),
(551,433,o),
(169,370,o),
(169,529,cs),
(169,592,o),
(227,630,o),
(293,630,cs),
(363,630,o),
(423,586,o),
(432,516,c),
(530,526,l),
(520,646,o),
(415,716,o),
(296,716,cs),
(171,716,o),
(71,637,o),
(71,520,cs),
(71,291,o),
(453,356,o),
(453,186,cs),
(453,111,o),
(379,70,o),
(305,70,cs),
(197,70,o),
(130,157,o),
(130,265,c),
(32,255,l),
(32,113,o),
(123,6,o),
(257,-13,c),
(223,-87,l),
(270,-108,l),
(276,-99,o),
(286,-94,o),
(298,-94,cs),
(318,-94,o),
(332,-107,o),
(332,-125,cs),
(332,-144,o),
(318,-158,o),
(297,-158,cs),
(280,-158,o),
(267,-148,o),
(264,-132,c),
(202,-142,l),
(207,-186,o),
(245,-216,o),
(296,-216,cs)
);
}
);
width = 592;
}
);
note = Scedilla;
unicode = 350;
},
{
glyphname = Scircumflex;
kernLeft = S;
kernRight = S;
lastChange = "2024-02-20 15:05:20 +0000";
layers = (
{
hints = (
{
horizontal = 1;
place = (-16, 86);
place = (-16, 86);
type = Stem;
},
{
horizontal = 1;
place = (630, 86);
place = (630, 86);
type = Stem;
},
{
horizontal = 1;
place = (780, 147);
place = (780, 147);
type = Stem;
},
{
place = (32, 98);
place = (32, 98);
type = Stem;
},
{
place = (453, 98);
place = (453, 98);
type = Stem;
},
{
place = (71, 98);
place = (71, 98);
type = Stem;
},
{
place = (432, 98);
place = (432, 98);
type = Stem;
},
{
horizontal = 1;
place = (887, 40);
place = (887, 40);
type = Stem;
}
);
layerId = m01;
shapes = (
{
closed = 1;
nodes = (
(445,-16,o),
(551,75,o),
(551,197,cs),
(551,433,o),
(169,370,o),
(169,529,cs),
(169,592,o),
(227,630,o),
(293,630,cs),
(363,630,o),
(423,586,o),
(432,516,c),
(530,526,l),
(520,646,o),
(415,716,o),
(296,716,cs),
(171,716,o),
(71,637,o),
(71,520,cs),
(71,291,o),
(453,356,o),
(453,186,cs),
(453,111,o),
(379,70,o),
(305,70,cs),
(197,70,o),
(130,157,o),
(130,265,c),
(32,255,l),
(32,98,o),
(144,-16,o),
(302,-16,cs)
);
},
{
closed = 1;
nodes = (
(151,780,l),
(234,780,l),
(297,887,l),
(360,780,l),
(443,780,l),
(369,927,l),
(225,927,l)
);
}
);
width = 592;
},
{
hints = (
{
horizontal = 1;
place = (-16, 86);
place = (-16, 86);
type = Stem;
},
{
horizontal = 1;
place = (630, 86);
place = (630, 86);
type = Stem;
},
{
horizontal = 1;
place = (780, 147);
place = (780, 147);
type = Stem;
},
{
place = (32, 98);
place = (32, 98);
type = Stem;
},
{
place = (453, 98);
place = (453, 98);
type = Stem;
},
{
place = (71, 98);
place = (71, 98);
type = Stem;
},
{
place = (432, 98);
place = (432, 98);
type = Stem;
},
{
horizontal = 1;
place = (887, 40);
place = (887, 40);
type = Stem;
}
);
layerId = "1E451FFA-12DA-4FF6-A0F2-5663C8724383";
shapes = (
{
closed = 1;
nodes = (
(445,-16,o),
(551,75,o),
(551,197,cs),
(551,433,o),
(169,370,o),
(169,529,cs),
(169,592,o),
(227,630,o),
(293,630,cs),
(363,630,o),
(423,586,o),
(432,516,c),
(530,526,l),
(520,646,o),
(415,716,o),
(296,716,cs),
(171,716,o),
(71,637,o),
(71,520,cs),
(71,291,o),
(453,356,o),
(453,186,cs),
(453,111,o),
(379,70,o),
(305,70,cs),
(197,70,o),
(130,157,o),
(130,265,c),
(32,255,l),
(32,98,o),
(144,-16,o),
(302,-16,cs)
);
},
{
closed = 1;
nodes = (
(151,780,l),
(234,780,l),
(297,887,l),
(360,780,l),
(443,780,l),
(369,927,l),
(225,927,l)
);
}
);
width = 592;
}
);
note = Scircumflex;
unicode = 348;
},
{
glyphname = uni0218;
kernLeft = S;
kernRight = S;
lastChange = "2024-02-20 15:05:20 +0000";
layers = (
{
hints = (
{
horizontal = 1;
place = (-254, 53);
place = (-254, 53);
type = Stem;
},
{
horizontal = 1;
place = (-147, 87);
place = (-147, 87);
type = Stem;
},
{
horizontal = 1;
place = (-16, 86);
place = (-16, 86);
type = Stem;
},
{
horizontal = 1;
place = (630, 86);
place = (630, 86);
type = Stem;
},
{
place = (32, 98);
place = (32, 98);
type = Stem;
},
{
place = (244, 116);
place = (244, 116);
type = Stem;
},
{
place = (453, 98);
place = (453, 98);
type = Stem;
},
{
place = (71, 98);
place = (71, 98);
type = Stem;
},
{
place = (432, 98);
place = (432, 98);
type = Stem;
},
{
place = (302, 58);
place = (302, 58);
type = Stem;
}
);
layerId = m01;
shapes = (
{
closed = 1;
nodes = (
(445,-16,o),
(551,75,o),
(551,197,cs),
(551,433,o),
(169,370,o),
(169,529,cs),
(169,592,o),
(227,630,o),
(293,630,cs),
(363,630,o),
(423,586,o),
(432,516,c),
(530,526,l),
(520,646,o),
(415,716,o),
(296,716,cs),
(171,716,o),
(71,637,o),
(71,520,cs),
(71,291,o),
(453,356,o),
(453,186,cs),
(453,111,o),
(379,70,o),
(305,70,cs),
(197,70,o),
(130,157,o),
(130,265,c),
(32,255,l),
(32,98,o),
(144,-16,o),
(302,-16,cs)
);
},
{
closed = 1;
nodes = (
(234,-254,l),
(316,-254,o),
(360,-217,o),
(360,-147,cs),
(360,-60,l),
(244,-60,l),
(244,-147,l),
(302,-147,l),
(302,-187,o),
(284,-201,o),
(234,-201,c)
);
}
);
width = 592;
},
{
hints = (
{
horizontal = 1;
place = (-254, 53);
place = (-254, 53);
type = Stem;
},
{
horizontal = 1;
place = (-147, 87);
place = (-147, 87);
type = Stem;
},
{
horizontal = 1;
place = (-16, 86);
place = (-16, 86);
type = Stem;
},
{
horizontal = 1;
place = (630, 86);
place = (630, 86);
type = Stem;
},
{
place = (32, 98);
place = (32, 98);
type = Stem;
},
{
place = (244, 116);
place = (244, 116);
type = Stem;
},
{
place = (453, 98);
place = (453, 98);
type = Stem;
},
{
place = (71, 98);
place = (71, 98);
type = Stem;
},
{
place = (432, 98);
place = (432, 98);
type = Stem;
},
{
place = (302, 58);
place = (302, 58);
type = Stem;
}
);
layerId = "1E451FFA-12DA-4FF6-A0F2-5663C8724383";
shapes = (
{
closed = 1;
nodes = (
(445,-16,o),
(551,75,o),
(551,197,cs),
(551,433,o),
(169,370,o),
(169,529,cs),
(169,592,o),
(227,630,o),
(293,630,cs),
(363,630,o),
(423,586,o),
(432,516,c),
(530,526,l),
(520,646,o),
(415,716,o),
(296,716,cs),
(171,716,o),
(71,637,o),
(71,520,cs),
(71,291,o),
(453,356,o),
(453,186,cs),
(453,111,o),
(379,70,o),
(305,70,cs),
(197,70,o),
(130,157,o),
(130,265,c),
(32,255,l),
(32,98,o),
(144,-16,o),
(302,-16,cs)
);
},
{
closed = 1;
nodes = (
(234,-254,l),
(316,-254,o),
(360,-217,o),
(360,-147,cs),
(360,-60,l),
(244,-60,l),
(244,-147,l),
(302,-147,l),
(302,-187,o),
(284,-201,o),
(234,-201,c)
);
}
);
width = 592;
}
);
note = uni0218;
unicode = 536;
},
{
glyphname = uni1E9E;
kernLeft = B;
kernRight = B;
lastChange = "2024-02-20 15:05:20 +0000";
layers = (
{
hints = (
{
horizontal = 1;
place = (0, 91);
place = (0, 91);
type = Stem;
},
{
horizontal = 1;
place = (614, 86);
place = (614, 86);
type = Stem;
},
{
place = (79, 98);
place = (79, 98);
type = Stem;
},
{
place = (541, 98);
place = (541, 98);
type = Stem;
}
);
layerId = m01;
shapes = (
{
closed = 1;
nodes = (
(294,0,l),
(377,0,ls),
(535,0,o),
(639,82,o),
(639,206,cs),
(639,316,o),
(556,392,o),
(424,407,c),
(563,570,ls),
(580,590,o),
(588,611,o),
(588,631,cs),
(588,670,o),
(558,700,o),
(509,700,cs),
(79,700,l),
(79,0,l),
(177,0,l),
(177,614,l),
(485,614,l),
(317,411,l),
(317,327,l),
(377,327,ls),
(478,327,o),
(541,281,o),
(541,209,cs),
(541,136,o),
(479,91,o),
(377,91,cs),
(294,91,l)
);
}
);
width = 691;
},
{
hints = (
{
horizontal = 1;
place = (0, 91);
place = (0, 91);
type = Stem;
},
{
horizontal = 1;
place = (614, 86);
place = (614, 86);
type = Stem;
},
{
place = (79, 98);
place = (79, 98);
type = Stem;
},
{
place = (541, 98);
place = (541, 98);
type = Stem;
}
);
layerId = "1E451FFA-12DA-4FF6-A0F2-5663C8724383";
shapes = (
{
closed = 1;
nodes = (
(294,0,l),
(377,0,ls),
(535,0,o),
(639,82,o),
(639,206,cs),
(639,316,o),
(556,392,o),
(424,407,c),
(563,570,ls),
(580,590,o),
(588,611,o),
(588,631,cs),
(588,670,o),
(558,700,o),
(509,700,cs),
(79,700,l),
(79,0,l),
(177,0,l),
(177,614,l),
(485,614,l),
(317,411,l),
(317,327,l),
(377,327,ls),
(478,327,o),
(541,281,o),
(541,209,cs),
(541,136,o),
(479,91,o),
(377,91,cs),
(294,91,l)
);
}
);
width = 691;
}
);
note = uni1E9E;
unicode = 7838;
},
{
glyphname = T;
kernLeft = T;
kernRight = T;
lastChange = "2024-02-20 15:05:20 +0000";
layers = (
{
hints = (
{
horizontal = 1;
place = (0, 21);
target = up;
type = BottomGhost;
},
{
horizontal = 1;
place = (614, 86);
place = (614, 86);
type = Stem;
},
{
place = (269, 98);
place = (269, 98);
type = Stem;
}
);
layerId = m01;
shapes = (
{
closed = 1;
nodes = (
(269,0,l),
(367,0,l),
(367,614,l),
(617,614,l),
(617,700,l),
(19,700,l),
(19,614,l),
(269,614,l)
);
}
);
width = 635;
},
{
hints = (
{
horizontal = 1;
place = (0, 21);
target = up;
type = BottomGhost;
},
{
horizontal = 1;
place = (614, 86);
place = (614, 86);
type = Stem;
},
{
place = (269, 98);
place = (269, 98);
type = Stem;
}
);
layerId = "1E451FFA-12DA-4FF6-A0F2-5663C8724383";
shapes = (
{
closed = 1;
nodes = (
(269,0,l),
(367,0,l),
(367,614,l),
(617,614,l),
(617,700,l),
(19,700,l),
(19,614,l),
(269,614,l)
);
}
);
width = 635;
}
);
note = T;
unicode = 84;
},
{
glyphname = Tbar;
kernLeft = T;
kernRight = T;
lastChange = "2024-02-20 15:05:20 +0000";
layers = (
{
hints = (
{
horizontal = 1;
place = (0, 21);
target = up;
type = BottomGhost;
},
{
horizontal = 1;
place = (315, 70);
place = (315, 70);
type = Stem;
},
{
horizontal = 1;
place = (614, 86);
place = (614, 86);
type = Stem;
},
{
place = (269, 98);
place = (269, 98);
type = Stem;
}
);
layerId = m01;
shapes = (
{
closed = 1;
nodes = (
(144,315,l),
(269,315,l),
(269,0,l),
(367,0,l),
(367,315,l),
(491,315,l),
(491,385,l),
(367,385,l),
(367,614,l),
(617,614,l),
(617,700,l),
(19,700,l),
(19,614,l),
(269,614,l),
(269,385,l),
(144,385,l)
);
}
);
width = 635;
},
{
hints = (
{
horizontal = 1;
place = (0, 21);
target = up;
type = BottomGhost;
},
{
horizontal = 1;
place = (315, 70);
place = (315, 70);
type = Stem;
},
{
horizontal = 1;
place = (614, 86);
place = (614, 86);
type = Stem;
},
{
place = (269, 98);
place = (269, 98);
type = Stem;
}
);
layerId = "1E451FFA-12DA-4FF6-A0F2-5663C8724383";
shapes = (
{
closed = 1;
nodes = (
(144,315,l),
(269,315,l),
(269,0,l),
(367,0,l),
(367,315,l),
(491,315,l),
(491,385,l),
(367,385,l),
(367,614,l),
(617,614,l),
(617,700,l),
(19,700,l),
(19,614,l),
(269,614,l),
(269,385,l),
(144,385,l)
);
}
);
width = 635;
}
);
note = Tbar;
unicode = 358;
},
{
glyphname = Tcaron;
kernLeft = T;
kernRight = T;
lastChange = "2024-02-20 15:05:20 +0000";
layers = (
{
hints = (
{
horizontal = 1;
place = (0, 21);
target = up;
type = BottomGhost;
},
{
horizontal = 1;
place = (614, 86);
place = (614, 86);
type = Stem;
},
{
horizontal = 1;
place = (783, 147);
place = (783, 147);
type = Stem;
},
{
place = (269, 98);
place = (269, 98);
type = Stem;
}
);
layerId = m01;
shapes = (
{
closed = 1;
nodes = (
(269,0,l),
(367,0,l),
(367,614,l),
(617,614,l),
(617,700,l),
(19,700,l),
(19,614,l),
(269,614,l)
);
},
{
closed = 1;
nodes = (
(172,930,l),
(246,783,l),
(390,783,l),
(464,930,l),
(381,930,l),
(318,823,l),
(255,930,l)
);
}
);
width = 635;
},
{
hints = (
{
horizontal = 1;
place = (0, 21);
target = up;
type = BottomGhost;
},
{
horizontal = 1;
place = (614, 86);
place = (614, 86);
type = Stem;
},
{
horizontal = 1;
place = (783, 147);
place = (783, 147);
type = Stem;
},
{
place = (269, 98);
place = (269, 98);
type = Stem;
}
);
layerId = "1E451FFA-12DA-4FF6-A0F2-5663C8724383";
shapes = (
{
closed = 1;
nodes = (
(269,0,l),
(367,0,l),
(367,614,l),
(617,614,l),
(617,700,l),
(19,700,l),
(19,614,l),
(269,614,l)
);
},
{
closed = 1;
nodes = (
(172,930,l),
(246,783,l),
(390,783,l),
(464,930,l),
(381,930,l),
(318,823,l),
(255,930,l)
);
}
);
width = 635;
}
);
note = Tcaron;
unicode = 356;
},
{
glyphname = uni0162;
kernLeft = T;
kernRight = T;
lastChange = "2024-02-20 15:05:20 +0000";
layers = (
{
hints = (
{
horizontal = 1;
place = (-216, 58);
place = (-216, 58);
type = Stem;
},
{
horizontal = 1;
place = (-94, 49);
place = (-94, 49);
type = Stem;
},
{
horizontal = 1;
place = (0, 21);
target = up;
type = BottomGhost;
},
{
horizontal = 1;
place = (614, 86);
place = (614, 86);
type = Stem;
},
{
place = (269, 98);
place = (269, 98);
type = Stem;
},
{
place = (352, 61);
place = (352, 61);
type = Stem;
}
);
layerId = m01;
shapes = (
{
closed = 1;
nodes = (
(269,0,l),
(283,0,l),
(243,-87,l),
(290,-108,l),
(296,-99,o),
(306,-94,o),
(318,-94,cs),
(338,-94,o),
(352,-107,o),
(352,-125,cs),
(352,-144,o),
(338,-158,o),
(317,-158,cs),
(300,-158,o),
(287,-148,o),
(284,-132,c),
(222,-142,l),
(227,-186,o),
(265,-216,o),
(316,-216,cs),
(372,-216,o),
(413,-178,o),
(413,-127,cs),
(413,-80,o),
(378,-45,o),
(332,-45,cs),
(327,-45,o),
(322,-45,o),
(318,-46,c),
(338,0,l),
(367,0,l),
(367,614,l),
(617,614,l),
(617,700,l),
(19,700,l),
(19,614,l),
(269,614,l)
);
}
);
width = 635;
},
{
hints = (
{
horizontal = 1;
place = (-216, 58);
place = (-216, 58);
type = Stem;
},
{
horizontal = 1;
place = (-94, 49);
place = (-94, 49);
type = Stem;
},
{
horizontal = 1;
place = (0, 21);
target = up;
type = BottomGhost;
},
{
horizontal = 1;
place = (614, 86);
place = (614, 86);
type = Stem;
},
{
place = (269, 98);
place = (269, 98);
type = Stem;
},
{
place = (352, 61);
place = (352, 61);
type = Stem;
}
);
layerId = "1E451FFA-12DA-4FF6-A0F2-5663C8724383";
shapes = (
{
closed = 1;
nodes = (
(269,0,l),
(283,0,l),
(243,-87,l),
(290,-108,l),
(296,-99,o),
(306,-94,o),
(318,-94,cs),
(338,-94,o),
(352,-107,o),
(352,-125,cs),
(352,-144,o),
(338,-158,o),
(317,-158,cs),
(300,-158,o),
(287,-148,o),
(284,-132,c),
(222,-142,l),
(227,-186,o),
(265,-216,o),
(316,-216,cs),
(372,-216,o),
(413,-178,o),
(413,-127,cs),
(413,-80,o),
(378,-45,o),
(332,-45,cs),
(327,-45,o),
(322,-45,o),
(318,-46,c),
(338,0,l),
(367,0,l),
(367,614,l),
(617,614,l),
(617,700,l),
(19,700,l),
(19,614,l),
(269,614,l)
);
}
);
width = 635;
}
);
note = uni0162;
unicode = 354;
},
{
glyphname = uni021A;
kernLeft = T;
kernRight = T;
lastChange = "2024-02-20 15:05:20 +0000";
layers = (
{
hints = (
{
horizontal = 1;
place = (-254, 53);
place = (-254, 53);
type = Stem;
},
{
horizontal = 1;
place = (-147, 87);
place = (-147, 87);
type = Stem;
},
{
horizontal = 1;
place = (0, 21);
target = up;
type = BottomGhost;
},
{
horizontal = 1;
place = (614, 86);
place = (614, 86);
type = Stem;
},
{
place = (269, 98);
place = (269, 98);
type = Stem;
},
{
place = (269, 112);
place = (269, 112);
type = Stem;
},
{
place = (265, 102);
place = (265, 102);
type = Stem;
},
{
place = (323, 58);
place = (323, 58);
type = Stem;
}
);
layerId = m01;
shapes = (
{
closed = 1;
nodes = (
(269,0,l),
(367,0,l),
(367,614,l),
(617,614,l),
(617,700,l),
(19,700,l),
(19,614,l),
(269,614,l)
);
},
{
closed = 1;
nodes = (
(255,-254,l),
(337,-254,o),
(381,-217,o),
(381,-147,cs),
(381,-60,l),
(265,-60,l),
(265,-147,l),
(323,-147,l),
(323,-187,o),
(305,-201,o),
(255,-201,c)
);
}
);
width = 635;
},
{
hints = (
{
horizontal = 1;
place = (-254, 53);
place = (-254, 53);
type = Stem;
},
{
horizontal = 1;
place = (-147, 87);
place = (-147, 87);
type = Stem;
},
{
horizontal = 1;
place = (0, 21);
target = up;
type = BottomGhost;
},
{
horizontal = 1;
place = (614, 86);
place = (614, 86);
type = Stem;
},
{
place = (269, 98);
place = (269, 98);
type = Stem;
},
{
place = (269, 112);
place = (269, 112);
type = Stem;
},
{
place = (265, 102);
place = (265, 102);
type = Stem;
},
{
place = (323, 58);
place = (323, 58);
type = Stem;
}
);
layerId = "1E451FFA-12DA-4FF6-A0F2-5663C8724383";
shapes = (
{
closed = 1;
nodes = (
(269,0,l),
(367,0,l),
(367,614,l),
(617,614,l),
(617,700,l),
(19,700,l),
(19,614,l),
(269,614,l)
);
},
{
closed = 1;
nodes = (
(255,-254,l),
(337,-254,o),
(381,-217,o),
(381,-147,cs),
(381,-60,l),
(265,-60,l),
(265,-147,l),
(323,-147,l),
(323,-187,o),
(305,-201,o),
(255,-201,c)
);
}
);
width = 635;
}
);
note = uni021A;
unicode = 538;
},
{
glyphname = U;
kernLeft = U;
kernRight = IJ;
lastChange = "2024-02-20 15:05:20 +0000";
layers = (
{
hints = (
{
horizontal = 1;
place = (-16, 86);
place = (-16, 86);
type = Stem;
},
{
place = (65, 98);
place = (65, 98);
type = Stem;
},
{
place = (482, 98);
place = (482, 98);
type = Stem;
}
);
layerId = m01;
shapes = (
{
closed = 1;
nodes = (
(479,-16,o),
(580,89,o),
(580,249,cs),
(580,700,l),
(482,700,l),
(482,249,ls),
(482,143,o),
(423,70,o),
(323,70,cs),
(223,70,o),
(163,143,o),
(163,249,cs),
(163,700,l),
(65,700,l),
(65,249,ls),
(65,89,o),
(168,-16,o),
(323,-16,cs)
);
}
);
width = 646;
},
{
hints = (
{
horizontal = 1;
place = (-16, 86);
place = (-16, 86);
type = Stem;
},
{
place = (65, 98);
place = (65, 98);
type = Stem;
},
{
place = (482, 98);
place = (482, 98);
type = Stem;
}
);
layerId = "1E451FFA-12DA-4FF6-A0F2-5663C8724383";
shapes = (
{
closed = 1;
nodes = (
(479,-16,o),
(580,89,o),
(580,249,cs),
(580,700,l),
(482,700,l),
(482,249,ls),
(482,143,o),
(423,70,o),
(323,70,cs),
(223,70,o),
(163,143,o),
(163,249,cs),
(163,700,l),
(65,700,l),
(65,249,ls),
(65,89,o),
(168,-16,o),
(323,-16,cs)
);
}
);
width = 646;
}
);
note = U;
unicode = 85;
},
{
glyphname = Uacute;
kernLeft = U;
kernRight = IJ;
lastChange = "2024-02-20 15:05:20 +0000";
layers = (
{
hints = (
{
horizontal = 1;
place = (-16, 86);
place = (-16, 86);
type = Stem;
},
{
horizontal = 1;
place = (780, 147);
place = (780, 147);
type = Stem;
},
{
place = (65, 98);
place = (65, 98);
type = Stem;
},
{
place = (482, 98);
place = (482, 98);
type = Stem;
}
);
layerId = m01;
shapes = (
{
closed = 1;
nodes = (
(479,-16,o),
(580,89,o),
(580,249,cs),
(580,700,l),
(482,700,l),
(482,249,ls),
(482,143,o),
(423,70,o),
(323,70,cs),
(223,70,o),
(163,143,o),
(163,249,cs),
(163,700,l),
(65,700,l),
(65,249,ls),
(65,89,o),
(168,-16,o),
(323,-16,cs)
);
},
{
closed = 1;
nodes = (
(293,780,l),
(365,780,l),
(460,927,l),
(352,927,l)
);
}
);
width = 646;
},
{
hints = (
{
horizontal = 1;
place = (-16, 86);
place = (-16, 86);
type = Stem;
},
{
horizontal = 1;
place = (780, 147);
place = (780, 147);
type = Stem;
},
{
place = (65, 98);
place = (65, 98);
type = Stem;
},
{
place = (482, 98);
place = (482, 98);
type = Stem;
}
);
layerId = "1E451FFA-12DA-4FF6-A0F2-5663C8724383";
shapes = (
{
closed = 1;
nodes = (
(479,-16,o),
(580,89,o),
(580,249,cs),
(580,700,l),
(482,700,l),
(482,249,ls),
(482,143,o),
(423,70,o),
(323,70,cs),
(223,70,o),
(163,143,o),
(163,249,cs),
(163,700,l),
(65,700,l),
(65,249,ls),
(65,89,o),
(168,-16,o),
(323,-16,cs)
);
},
{
closed = 1;
nodes = (
(293,780,l),
(365,780,l),
(460,927,l),
(352,927,l)
);
}
);
width = 646;
}
);
note = Uacute;
unicode = 218;
},
{
glyphname = Ubreve;
kernLeft = U;
kernRight = IJ;
lastChange = "2024-02-20 15:05:20 +0000";
layers = (
{
hints = (
{
horizontal = 1;
place = (-16, 86);
place = (-16, 86);
type = Stem;
},
{
horizontal = 1;
place = (780, 74);
place = (780, 74);
type = Stem;
},
{
place = (65, 98);
place = (65, 98);
type = Stem;
},
{
place = (482, 98);
place = (482, 98);
type = Stem;
},
{
place = (167, 74);
place = (167, 74);
type = Stem;
},
{
place = (406, 74);
place = (406, 74);
type = Stem;
}
);
layerId = m01;
shapes = (
{
closed = 1;
nodes = (
(479,-16,o),
(580,89,o),
(580,249,cs),
(580,700,l),
(482,700,l),
(482,249,ls),
(482,143,o),
(423,70,o),
(323,70,cs),
(223,70,o),
(163,143,o),
(163,249,cs),
(163,700,l),
(65,700,l),
(65,249,ls),
(65,89,o),
(168,-16,o),
(323,-16,cs)
);
},
{
closed = 1;
nodes = (
(167,937,l),
(167,847,o),
(236,780,o),
(324,780,cs),
(410,780,o),
(480,847,o),
(480,937,c),
(406,937,l),
(405,890,o),
(369,854,o),
(324,854,cs),
(278,854,o),
(242,890,o),
(241,937,c)
);
}
);
width = 646;
},
{
hints = (
{
horizontal = 1;
place = (-16, 86);
place = (-16, 86);
type = Stem;
},
{
horizontal = 1;
place = (780, 74);
place = (780, 74);
type = Stem;
},
{
place = (65, 98);
place = (65, 98);
type = Stem;
},
{
place = (482, 98);
place = (482, 98);
type = Stem;
},
{
place = (167, 74);
place = (167, 74);
type = Stem;
},
{
place = (406, 74);
place = (406, 74);
type = Stem;
}
);
layerId = "1E451FFA-12DA-4FF6-A0F2-5663C8724383";
shapes = (
{
closed = 1;
nodes = (
(479,-16,o),
(580,89,o),
(580,249,cs),
(580,700,l),
(482,700,l),
(482,249,ls),
(482,143,o),
(423,70,o),
(323,70,cs),
(223,70,o),
(163,143,o),
(163,249,cs),
(163,700,l),
(65,700,l),
(65,249,ls),
(65,89,o),
(168,-16,o),
(323,-16,cs)
);
},
{
closed = 1;
nodes = (
(167,937,l),
(167,847,o),
(236,780,o),
(324,780,cs),
(410,780,o),
(480,847,o),
(480,937,c),
(406,937,l),
(405,890,o),
(369,854,o),
(324,854,cs),
(278,854,o),
(242,890,o),
(241,937,c)
);
}
);
width = 646;
}
);
note = Ubreve;
unicode = 364;
},
{
glyphname = Ucircumflex;
kernLeft = U;
kernRight = IJ;
lastChange = "2024-02-20 15:05:20 +0000";
layers = (
{
hints = (
{
horizontal = 1;
place = (-16, 86);
place = (-16, 86);
type = Stem;
},
{
horizontal = 1;
place = (780, 147);
place = (780, 147);
type = Stem;
},
{
place = (65, 98);
place = (65, 98);
type = Stem;
},
{
place = (482, 98);
place = (482, 98);
type = Stem;
},
{
horizontal = 1;
place = (887, 40);
place = (887, 40);
type = Stem;
}
);
layerId = m01;
shapes = (
{
closed = 1;
nodes = (
(479,-16,o),
(580,89,o),
(580,249,cs),
(580,700,l),
(482,700,l),
(482,249,ls),
(482,143,o),
(423,70,o),
(323,70,cs),
(223,70,o),
(163,143,o),
(163,249,cs),
(163,700,l),
(65,700,l),
(65,249,ls),
(65,89,o),
(168,-16,o),
(323,-16,cs)
);
},
{
closed = 1;
nodes = (
(177,780,l),
(260,780,l),
(323,887,l),
(386,780,l),
(469,780,l),
(395,927,l),
(251,927,l)
);
}
);
width = 646;
},
{
hints = (
{
horizontal = 1;
place = (-16, 86);
place = (-16, 86);
type = Stem;
},
{
horizontal = 1;
place = (780, 147);
place = (780, 147);
type = Stem;
},
{
place = (65, 98);
place = (65, 98);
type = Stem;
},
{
place = (482, 98);
place = (482, 98);
type = Stem;
},
{
horizontal = 1;
place = (887, 40);
place = (887, 40);
type = Stem;
}
);
layerId = "1E451FFA-12DA-4FF6-A0F2-5663C8724383";
shapes = (
{
closed = 1;
nodes = (
(479,-16,o),
(580,89,o),
(580,249,cs),
(580,700,l),
(482,700,l),
(482,249,ls),
(482,143,o),
(423,70,o),
(323,70,cs),
(223,70,o),
(163,143,o),
(163,249,cs),
(163,700,l),
(65,700,l),
(65,249,ls),
(65,89,o),
(168,-16,o),
(323,-16,cs)
);
},
{
closed = 1;
nodes = (
(177,780,l),
(260,780,l),
(323,887,l),
(386,780,l),
(469,780,l),
(395,927,l),
(251,927,l)
);
}
);
width = 646;
}
);
note = Ucircumflex;
unicode = 219;
},
